{"glyphs":{"0":{"ha":694,"x_min":0,"x_max":0,"o":"m 208 903 l 486 903 l 486 1042 l 208 1042 z m 208 139 l 208 903 l 69 903 l 69 139 z m 625 903 l 486 903 l 486 139 l 625 139 z m 486 139 l 208 139 l 208 0 l 486 0 z "},"1":{"ha":278,"x_min":0,"x_max":0,"o":"m 208 1042 l 69 1042 l 69 0 l 208 0 z "},"2":{"ha":694,"x_min":0,"x_max":0,"o":"m 486 1042 l 139 1042 l 139 903 l 486 903 z m 625 903 l 486 903 l 486 556 l 625 556 z m 347 556 l 347 417 l 486 417 l 486 556 z m 208 417 l 208 278 l 347 278 l 347 417 z m 69 278 l 69 0 l 625 0 l 625 139 l 208 139 l 208 278 z "},"3":{"ha":590,"x_min":0,"x_max":0,"o":"m 382 1042 l 35 1042 l 35 903 l 382 903 z m 521 903 l 382 903 l 382 625 l 521 625 z m 243 625 l 243 486 l 382 486 l 382 625 z m 382 486 l 382 139 l 521 139 l 521 486 z m 382 139 l 35 139 l 35 0 l 382 0 z "},"4":{"ha":660,"x_min":0,"x_max":0,"o":"m 590 1042 l 451 1042 l 451 903 l 313 903 l 313 764 l 451 764 l 451 486 l 174 486 l 174 625 l 35 625 l 35 347 l 451 347 l 451 0 l 590 0 z m 313 625 l 313 764 l 174 764 l 174 625 z "},"5":{"ha":694,"x_min":0,"x_max":0,"o":"m 486 625 l 208 625 l 208 903 l 556 903 l 556 1042 l 69 1042 l 69 486 l 486 486 z m 625 486 l 486 486 l 486 139 l 625 139 z m 208 139 l 208 347 l 69 347 l 69 139 z m 486 139 l 208 139 l 208 0 l 486 0 z "},"6":{"ha":694,"x_min":0,"x_max":0,"o":"m 208 903 l 556 903 l 556 1042 l 208 1042 z m 208 139 l 208 486 l 486 486 l 486 625 l 208 625 l 208 903 l 69 903 l 69 139 z m 625 486 l 486 486 l 486 139 l 625 139 z m 486 139 l 208 139 l 208 0 l 486 0 z "},"7":{"ha":729,"x_min":0,"x_max":0,"o":"m 660 1042 l 35 1042 l 35 903 l 521 903 l 521 694 l 660 694 z m 382 694 l 382 486 l 521 486 l 521 694 z m 243 486 l 243 0 l 382 0 l 382 486 z "},"8":{"ha":694,"x_min":0,"x_max":0,"o":"m 208 903 l 486 903 l 486 1042 l 208 1042 z m 208 625 l 208 903 l 69 903 l 69 625 z m 625 903 l 486 903 l 486 625 l 625 625 z m 486 625 l 208 625 l 208 486 l 486 486 z m 208 139 l 208 486 l 69 486 l 69 139 z m 486 486 l 486 139 l 625 139 l 625 486 z m 486 139 l 208 139 l 208 0 l 486 0 z "},"9":{"ha":694,"x_min":0,"x_max":0,"o":"m 208 903 l 486 903 l 486 1042 l 208 1042 z m 208 556 l 208 903 l 69 903 l 69 556 z m 625 903 l 486 903 l 486 556 l 208 556 l 208 417 l 486 417 l 486 139 l 625 139 z m 486 139 l 139 139 l 139 0 l 486 0 z "}," ":{"ha":486,"x_min":0,"x_max":0,"o":""},"A":{"ha":833,"x_min":0,"x_max":0,"o":"m 208 903 l 625 903 l 625 1042 l 208 1042 z m 764 903 l 625 903 l 625 486 l 208 486 l 208 903 l 69 903 l 69 0 l 208 0 l 208 347 l 625 347 l 625 0 l 764 0 z "},"Á":{"ha":833,"x_min":0,"x_max":0,"o":"m 625 1250 l 625 1389 l 486 1389 l 486 1250 z m 486 1111 l 486 1250 l 347 1250 l 347 1111 z m 208 903 l 625 903 l 625 1042 l 208 1042 z m 764 903 l 625 903 l 625 486 l 208 486 l 208 903 l 69 903 l 69 0 l 208 0 l 208 347 l 625 347 l 625 0 l 764 0 z "},"Ă":{"ha":833,"x_min":0,"x_max":0,"o":"m 278 1250 l 278 1389 l 139 1389 l 139 1250 z m 694 1250 l 694 1389 l 556 1389 l 556 1250 z m 278 1111 l 556 1111 l 556 1250 l 278 1250 z m 208 903 l 625 903 l 625 1042 l 208 1042 z m 764 903 l 625 903 l 625 486 l 208 486 l 208 903 l 69 903 l 69 0 l 208 0 l 208 347 l 625 347 l 625 0 l 764 0 z "},"Ắ":{"ha":833,"x_min":0,"x_max":0,"o":"m 625 1458 l 625 1597 l 486 1597 l 486 1458 z m 486 1319 l 486 1458 l 347 1458 l 347 1319 z m 278 1250 l 278 1389 l 139 1389 l 139 1250 z m 694 1250 l 694 1389 l 556 1389 l 556 1250 z m 278 1111 l 556 1111 l 556 1250 l 278 1250 z m 208 903 l 625 903 l 625 1042 l 208 1042 z m 764 903 l 625 903 l 625 486 l 208 486 l 208 903 l 69 903 l 69 0 l 208 0 l 208 347 l 625 347 l 625 0 l 764 0 z "},"Ặ":{"ha":833,"x_min":0,"x_max":0,"o":"m 278 1250 l 278 1389 l 139 1389 l 139 1250 z m 694 1250 l 694 1389 l 556 1389 l 556 1250 z m 278 1111 l 556 1111 l 556 1250 l 278 1250 z m 208 903 l 625 903 l 625 1042 l 208 1042 z m 764 903 l 625 903 l 625 486 l 208 486 l 208 903 l 69 903 l 69 0 l 208 0 l 208 347 l 625 347 l 625 0 l 764 0 z m 347 -69 l 347 -208 l 486 -208 l 486 -69 z "},"Ằ":{"ha":833,"x_min":0,"x_max":0,"o":"m 347 1458 l 347 1597 l 208 1597 l 208 1458 z m 347 1319 l 486 1319 l 486 1458 l 347 1458 z m 278 1250 l 278 1389 l 139 1389 l 139 1250 z m 694 1250 l 694 1389 l 556 1389 l 556 1250 z m 278 1111 l 556 1111 l 556 1250 l 278 1250 z m 208 903 l 625 903 l 625 1042 l 208 1042 z m 764 903 l 625 903 l 625 486 l 208 486 l 208 903 l 69 903 l 69 0 l 208 0 l 208 347 l 625 347 l 625 0 l 764 0 z "},"Ẳ":{"ha":833,"x_min":0,"x_max":0,"o":"m 347 1458 l 347 1319 l 486 1319 l 486 1597 l 208 1597 l 208 1458 z m 278 1250 l 278 1389 l 139 1389 l 139 1250 z m 694 1250 l 694 1389 l 556 1389 l 556 1250 z m 278 1111 l 556 1111 l 556 1250 l 278 1250 z m 208 903 l 625 903 l 625 1042 l 208 1042 z m 764 903 l 625 903 l 625 486 l 208 486 l 208 903 l 69 903 l 69 0 l 208 0 l 208 347 l 625 347 l 625 0 l 764 0 z "},"Ẵ":{"ha":833,"x_min":0,"x_max":0,"o":"m 417 1458 l 417 1597 l 278 1597 l 278 1458 z m 694 1458 l 694 1597 l 556 1597 l 556 1458 z m 278 1319 l 278 1458 l 139 1458 l 139 1319 z m 417 1319 l 556 1319 l 556 1458 l 417 1458 z m 764 1389 l 625 1389 l 625 1250 l 764 1250 z m 625 1250 l 208 1250 l 208 1111 l 625 1111 z m 208 903 l 625 903 l 625 1042 l 208 1042 z m 625 903 l 625 486 l 208 486 l 208 903 l 69 903 l 69 0 l 208 0 l 208 347 l 625 347 l 625 0 l 764 0 l 764 903 z "},"Ǎ":{"ha":833,"x_min":0,"x_max":0,"o":"m 347 1250 l 347 1389 l 208 1389 l 208 1250 z m 625 1250 l 625 1389 l 486 1389 l 486 1250 z m 347 1111 l 486 1111 l 486 1250 l 347 1250 z m 208 903 l 625 903 l 625 1042 l 208 1042 z m 764 903 l 625 903 l 625 486 l 208 486 l 208 903 l 69 903 l 69 0 l 208 0 l 208 347 l 625 347 l 625 0 l 764 0 z "},"Â":{"ha":833,"x_min":0,"x_max":0,"o":"m 486 1250 l 486 1389 l 347 1389 l 347 1250 z m 347 1111 l 347 1250 l 208 1250 l 208 1111 z m 486 1111 l 625 1111 l 625 1250 l 486 1250 z m 208 903 l 625 903 l 625 1042 l 208 1042 z m 764 903 l 625 903 l 625 486 l 208 486 l 208 903 l 69 903 l 69 0 l 208 0 l 208 347 l 625 347 l 625 0 l 764 0 z "},"Ấ":{"ha":833,"x_min":0,"x_max":0,"o":"m 729 1458 l 729 1597 l 590 1597 l 590 1458 z m 590 1319 l 590 1458 l 451 1458 l 451 1319 z m 382 1250 l 382 1389 l 243 1389 l 243 1250 z m 243 1111 l 243 1250 l 104 1250 l 104 1111 z m 382 1111 l 521 1111 l 521 1250 l 382 1250 z m 208 903 l 625 903 l 625 1042 l 208 1042 z m 764 903 l 625 903 l 625 486 l 208 486 l 208 903 l 69 903 l 69 0 l 208 0 l 208 347 l 625 347 l 625 0 l 764 0 z "},"Ậ":{"ha":833,"x_min":0,"x_max":0,"o":"m 486 1250 l 486 1389 l 347 1389 l 347 1250 z m 347 1111 l 347 1250 l 208 1250 l 208 1111 z m 486 1111 l 625 1111 l 625 1250 l 486 1250 z m 208 903 l 625 903 l 625 1042 l 208 1042 z m 764 903 l 625 903 l 625 486 l 208 486 l 208 903 l 69 903 l 69 0 l 208 0 l 208 347 l 625 347 l 625 0 l 764 0 z m 347 -69 l 347 -208 l 486 -208 l 486 -69 z "},"Ầ":{"ha":833,"x_min":0,"x_max":0,"o":"m 556 1458 l 556 1597 l 417 1597 l 417 1458 z m 556 1319 l 694 1319 l 694 1458 l 556 1458 z m 417 1250 l 417 1389 l 278 1389 l 278 1250 z m 278 1111 l 278 1250 l 139 1250 l 139 1111 z m 417 1111 l 556 1111 l 556 1250 l 417 1250 z m 208 903 l 625 903 l 625 1042 l 208 1042 z m 764 903 l 625 903 l 625 486 l 208 486 l 208 903 l 69 903 l 69 0 l 208 0 l 208 347 l 625 347 l 625 0 l 764 0 z "},"Ẩ":{"ha":833,"x_min":0,"x_max":0,"o":"m 556 1458 l 556 1319 l 694 1319 l 694 1597 l 417 1597 l 417 1458 z m 417 1250 l 417 1389 l 278 1389 l 278 1250 z m 278 1111 l 278 1250 l 139 1250 l 139 1111 z m 417 1111 l 556 1111 l 556 1250 l 417 1250 z m 208 903 l 625 903 l 625 1042 l 208 1042 z m 764 903 l 625 903 l 625 486 l 208 486 l 208 903 l 69 903 l 69 0 l 208 0 l 208 347 l 625 347 l 625 0 l 764 0 z "},"Ẫ":{"ha":833,"x_min":0,"x_max":0,"o":"m 417 1389 l 417 1528 l 278 1528 l 278 1389 z m 694 1389 l 694 1528 l 556 1528 l 556 1389 z m 278 1111 l 278 1389 l 139 1389 l 139 1111 z m 417 1389 l 417 1111 l 556 1111 l 556 1389 z m 208 903 l 625 903 l 625 1042 l 208 1042 z m 764 903 l 625 903 l 625 486 l 208 486 l 208 903 l 69 903 l 69 0 l 208 0 l 208 347 l 625 347 l 625 0 l 764 0 z "},"Ä":{"ha":833,"x_min":0,"x_max":0,"o":"m 347 1111 l 347 1250 l 208 1250 l 208 1111 z m 625 1111 l 625 1250 l 486 1250 l 486 1111 z m 208 903 l 625 903 l 625 1042 l 208 1042 z m 764 903 l 625 903 l 625 486 l 208 486 l 208 903 l 69 903 l 69 0 l 208 0 l 208 347 l 625 347 l 625 0 l 764 0 z "},"Ǟ":{"ha":833,"x_min":0,"x_max":0,"o":"m 208 1319 l 625 1319 l 625 1458 l 208 1458 z m 347 1111 l 347 1250 l 208 1250 l 208 1111 z m 486 1250 l 486 1111 l 625 1111 l 625 1250 z m 208 903 l 625 903 l 625 1042 l 208 1042 z m 764 903 l 625 903 l 625 486 l 208 486 l 208 903 l 69 903 l 69 0 l 208 0 l 208 347 l 625 347 l 625 0 l 764 0 z "},"Ạ":{"ha":833,"x_min":0,"x_max":0,"o":"m 208 903 l 625 903 l 625 1042 l 208 1042 z m 764 903 l 625 903 l 625 486 l 208 486 l 208 903 l 69 903 l 69 0 l 208 0 l 208 347 l 625 347 l 625 0 l 764 0 z m 347 -69 l 347 -208 l 486 -208 l 486 -69 z "},"À":{"ha":833,"x_min":0,"x_max":0,"o":"m 347 1250 l 347 1389 l 208 1389 l 208 1250 z m 347 1111 l 486 1111 l 486 1250 l 347 1250 z m 208 903 l 625 903 l 625 1042 l 208 1042 z m 764 903 l 625 903 l 625 486 l 208 486 l 208 903 l 69 903 l 69 0 l 208 0 l 208 347 l 625 347 l 625 0 l 764 0 z "},"Ả":{"ha":833,"x_min":0,"x_max":0,"o":"m 347 1250 l 347 1111 l 486 1111 l 486 1389 l 208 1389 l 208 1250 z m 208 903 l 625 903 l 625 1042 l 208 1042 z m 764 903 l 625 903 l 625 486 l 208 486 l 208 903 l 69 903 l 69 0 l 208 0 l 208 347 l 625 347 l 625 0 l 764 0 z "},"Ɑ":{"ha":833,"x_min":0,"x_max":0,"o":"m 764 1042 l 208 1042 l 208 903 l 625 903 l 625 139 l 208 139 l 208 0 l 764 0 z m 208 139 l 208 903 l 69 903 l 69 139 z "},"Ā":{"ha":833,"x_min":0,"x_max":0,"o":"m 208 1111 l 625 1111 l 625 1250 l 208 1250 z m 208 903 l 625 903 l 625 1042 l 208 1042 z m 764 903 l 625 903 l 625 486 l 208 486 l 208 903 l 69 903 l 69 0 l 208 0 l 208 347 l 625 347 l 625 0 l 764 0 z "},"Ą":{"ha":833,"x_min":0,"x_max":0,"o":"m 208 903 l 625 903 l 625 1042 l 208 1042 z m 764 903 l 625 903 l 625 486 l 208 486 l 208 903 l 69 903 l 69 0 l 208 0 l 208 347 l 625 347 l 625 -139 l 764 -139 z m 486 -139 l 486 -278 l 625 -278 l 625 -139 z m 625 -417 l 764 -417 l 764 -278 l 625 -278 z "},"Å":{"ha":833,"x_min":0,"x_max":0,"o":"m 486 1389 l 486 1528 l 347 1528 l 347 1389 z m 347 1250 l 347 1389 l 208 1389 l 208 1250 z m 486 1250 l 625 1250 l 625 1389 l 486 1389 z m 347 1250 l 347 1111 l 486 1111 l 486 1250 z m 208 903 l 625 903 l 625 1042 l 208 1042 z m 764 903 l 625 903 l 625 486 l 208 486 l 208 903 l 69 903 l 69 0 l 208 0 l 208 347 l 625 347 l 625 0 l 764 0 z "},"Ã":{"ha":833,"x_min":0,"x_max":0,"o":"m 417 1250 l 417 1389 l 278 1389 l 278 1250 z m 694 1250 l 694 1389 l 556 1389 l 556 1250 z m 278 1111 l 278 1250 l 139 1250 l 139 1111 z m 417 1111 l 556 1111 l 556 1250 l 417 1250 z m 208 903 l 625 903 l 625 1042 l 208 1042 z m 764 903 l 625 903 l 625 486 l 208 486 l 208 903 l 69 903 l 69 0 l 208 0 l 208 347 l 625 347 l 625 0 l 764 0 z "},"Æ":{"ha":1042,"x_min":0,"x_max":0,"o":"m 486 903 l 486 1042 l 347 1042 l 347 903 z m 972 1042 l 625 1042 l 625 903 l 972 903 z m 486 903 l 486 486 l 208 486 l 208 694 l 69 694 l 69 0 l 208 0 l 208 347 l 486 347 l 486 0 l 972 0 l 972 139 l 625 139 l 625 486 l 972 486 l 972 625 l 625 625 l 625 903 z m 347 694 l 347 903 l 208 903 l 208 694 z "},"B":{"ha":833,"x_min":0,"x_max":0,"o":"m 625 625 l 208 625 l 208 903 l 625 903 l 625 1042 l 69 1042 l 69 0 l 625 0 l 625 139 l 208 139 l 208 486 l 625 486 z m 764 903 l 625 903 l 625 625 l 764 625 z m 625 486 l 625 139 l 764 139 l 764 486 z "},"Ḅ":{"ha":833,"x_min":0,"x_max":0,"o":"m 625 625 l 208 625 l 208 903 l 625 903 l 625 1042 l 69 1042 l 69 0 l 625 0 l 625 139 l 208 139 l 208 486 l 625 486 z m 764 903 l 625 903 l 625 625 l 764 625 z m 625 486 l 625 139 l 764 139 l 764 486 z m 313 -69 l 313 -208 l 451 -208 l 451 -69 z "},"Ɓ":{"ha":1007,"x_min":0,"x_max":0,"o":"m 243 1042 l 35 1042 l 35 903 l 243 903 z m 382 903 l 799 903 l 799 1042 l 382 1042 z m 799 625 l 382 625 l 382 903 l 243 903 l 243 0 l 799 0 l 799 139 l 382 139 l 382 486 l 799 486 z m 938 903 l 799 903 l 799 625 l 938 625 z m 799 486 l 799 139 l 938 139 l 938 486 z "},"Ƀ":{"ha":938,"x_min":0,"x_max":0,"o":"m 729 625 l 313 625 l 313 903 l 729 903 l 729 1042 l 174 1042 l 174 382 l 35 382 l 35 243 l 174 243 l 174 0 l 729 0 l 729 139 l 313 139 l 313 243 l 451 243 l 451 382 l 313 382 l 313 486 l 729 486 z m 868 903 l 729 903 l 729 625 l 868 625 z m 729 486 l 729 139 l 868 139 l 868 486 z "},"C":{"ha":764,"x_min":0,"x_max":0,"o":"m 694 1042 l 208 1042 l 208 903 l 694 903 z m 69 903 l 69 139 l 208 139 l 208 903 z m 208 0 l 694 0 l 694 139 l 208 139 z "},"Ć":{"ha":764,"x_min":0,"x_max":0,"o":"m 660 1250 l 660 1389 l 521 1389 l 521 1250 z m 521 1111 l 521 1250 l 382 1250 l 382 1111 z m 694 1042 l 208 1042 l 208 903 l 694 903 z m 69 903 l 69 139 l 208 139 l 208 903 z m 208 0 l 694 0 l 694 139 l 208 139 z "},"Č":{"ha":764,"x_min":0,"x_max":0,"o":"m 382 1250 l 382 1389 l 243 1389 l 243 1250 z m 660 1250 l 660 1389 l 521 1389 l 521 1250 z m 382 1111 l 521 1111 l 521 1250 l 382 1250 z m 694 1042 l 208 1042 l 208 903 l 694 903 z m 69 903 l 69 139 l 208 139 l 208 903 z m 208 0 l 694 0 l 694 139 l 208 139 z "},"Ç":{"ha":764,"x_min":0,"x_max":0,"o":"m 694 1042 l 208 1042 l 208 903 l 694 903 z m 69 903 l 69 139 l 208 139 l 208 903 z m 208 0 l 347 0 l 347 -139 l 486 -139 l 486 0 l 694 0 l 694 139 l 208 139 z m 486 -278 l 625 -278 l 625 -139 l 486 -139 z m 347 -278 l 347 -417 l 486 -417 l 486 -278 z "},"Ċ":{"ha":764,"x_min":0,"x_max":0,"o":"m 521 1111 l 521 1250 l 382 1250 l 382 1111 z m 694 1042 l 208 1042 l 208 903 l 694 903 z m 69 903 l 69 139 l 208 139 l 208 903 z m 208 0 l 694 0 l 694 139 l 208 139 z "},"Ƈ":{"ha":903,"x_min":0,"x_max":0,"o":"m 833 1250 l 694 1250 l 694 1042 l 833 1042 z m 694 1042 l 208 1042 l 208 903 l 694 903 z m 69 903 l 69 139 l 208 139 l 208 903 z m 208 0 l 694 0 l 694 139 l 208 139 z "},"D":{"ha":833,"x_min":0,"x_max":0,"o":"m 625 139 l 208 139 l 208 903 l 625 903 l 625 1042 l 69 1042 l 69 0 l 625 0 z m 764 903 l 625 903 l 625 139 l 764 139 z "},"Ɖ":{"ha":938,"x_min":0,"x_max":0,"o":"m 729 139 l 313 139 l 313 451 l 451 451 l 451 590 l 313 590 l 313 903 l 729 903 l 729 1042 l 174 1042 l 174 590 l 35 590 l 35 451 l 174 451 l 174 0 l 729 0 z m 868 903 l 729 903 l 729 139 l 868 139 z "},"Ð":{"ha":938,"x_min":0,"x_max":0,"o":"m 729 139 l 313 139 l 313 451 l 451 451 l 451 590 l 313 590 l 313 903 l 729 903 l 729 1042 l 174 1042 l 174 590 l 35 590 l 35 451 l 174 451 l 174 0 l 729 0 z m 868 903 l 729 903 l 729 139 l 868 139 z "},"Ď":{"ha":833,"x_min":0,"x_max":0,"o":"m 347 1250 l 347 1389 l 208 1389 l 208 1250 z m 625 1250 l 625 1389 l 486 1389 l 486 1250 z m 347 1111 l 486 1111 l 486 1250 l 347 1250 z m 625 139 l 208 139 l 208 903 l 625 903 l 625 1042 l 69 1042 l 69 0 l 625 0 z m 764 903 l 625 903 l 625 139 l 764 139 z "},"Ḓ":{"ha":833,"x_min":0,"x_max":0,"o":"m 625 139 l 208 139 l 208 903 l 625 903 l 625 1042 l 69 1042 l 69 0 l 625 0 z m 764 903 l 625 903 l 625 139 l 764 139 z m 486 -69 l 347 -69 l 347 -208 l 486 -208 z m 208 -208 l 208 -347 l 347 -347 l 347 -208 z m 486 -208 l 486 -347 l 625 -347 l 625 -208 z "},"Đ":{"ha":938,"x_min":0,"x_max":0,"o":"m 729 139 l 313 139 l 313 451 l 451 451 l 451 590 l 313 590 l 313 903 l 729 903 l 729 1042 l 174 1042 l 174 590 l 35 590 l 35 451 l 174 451 l 174 0 l 729 0 z m 868 903 l 729 903 l 729 139 l 868 139 z "},"Ḍ":{"ha":833,"x_min":0,"x_max":0,"o":"m 625 139 l 208 139 l 208 903 l 625 903 l 625 1042 l 69 1042 l 69 0 l 625 0 z m 764 903 l 625 903 l 625 139 l 764 139 z m 347 -69 l 347 -208 l 486 -208 l 486 -69 z "},"Ɗ":{"ha":1007,"x_min":0,"x_max":0,"o":"m 243 1042 l 35 1042 l 35 903 l 243 903 z m 382 903 l 799 903 l 799 1042 l 382 1042 z m 799 139 l 382 139 l 382 903 l 243 903 l 243 0 l 799 0 z m 938 903 l 799 903 l 799 139 l 938 139 z "},"Ḏ":{"ha":833,"x_min":0,"x_max":0,"o":"m 625 139 l 208 139 l 208 903 l 625 903 l 625 1042 l 69 1042 l 69 0 l 625 0 z m 764 903 l 625 903 l 625 139 l 764 139 z m 764 -69 l 69 -69 l 69 -208 l 764 -208 z "},"E":{"ha":694,"x_min":0,"x_max":0,"o":"m 625 1042 l 69 1042 l 69 0 l 625 0 l 625 139 l 208 139 l 208 486 l 625 486 l 625 625 l 208 625 l 208 903 l 625 903 z "},"É":{"ha":694,"x_min":0,"x_max":0,"o":"m 556 1250 l 556 1389 l 417 1389 l 417 1250 z m 417 1111 l 417 1250 l 278 1250 l 278 1111 z m 625 1042 l 69 1042 l 69 0 l 625 0 l 625 139 l 208 139 l 208 486 l 625 486 l 625 625 l 208 625 l 208 903 l 625 903 z "},"Ě":{"ha":694,"x_min":0,"x_max":0,"o":"m 278 1250 l 278 1389 l 139 1389 l 139 1250 z m 556 1250 l 556 1389 l 417 1389 l 417 1250 z m 278 1111 l 417 1111 l 417 1250 l 278 1250 z m 625 1042 l 69 1042 l 69 0 l 625 0 l 625 139 l 208 139 l 208 486 l 625 486 l 625 625 l 208 625 l 208 903 l 625 903 z "},"Ȩ":{"ha":694,"x_min":0,"x_max":0,"o":"m 625 1042 l 69 1042 l 69 0 l 278 0 l 278 -139 l 417 -139 l 417 0 l 625 0 l 625 139 l 208 139 l 208 486 l 625 486 l 625 625 l 208 625 l 208 903 l 625 903 z m 417 -278 l 556 -278 l 556 -139 l 417 -139 z m 278 -278 l 278 -417 l 417 -417 l 417 -278 z "},"Ê":{"ha":694,"x_min":0,"x_max":0,"o":"m 417 1250 l 417 1389 l 278 1389 l 278 1250 z m 278 1111 l 278 1250 l 139 1250 l 139 1111 z m 417 1111 l 556 1111 l 556 1250 l 417 1250 z m 625 1042 l 69 1042 l 69 0 l 625 0 l 625 139 l 208 139 l 208 486 l 625 486 l 625 625 l 208 625 l 208 903 l 625 903 z "},"Ế":{"ha":694,"x_min":0,"x_max":0,"o":"m 660 1597 l 521 1597 l 521 1458 l 660 1458 z m 382 1458 l 382 1319 l 521 1319 l 521 1458 z m 313 1250 l 313 1389 l 174 1389 l 174 1250 z m 174 1111 l 174 1250 l 35 1250 l 35 1111 z m 313 1111 l 451 1111 l 451 1250 l 313 1250 z m 625 1042 l 69 1042 l 69 0 l 625 0 l 625 139 l 208 139 l 208 486 l 625 486 l 625 625 l 208 625 l 208 903 l 625 903 z "},"Ệ":{"ha":694,"x_min":0,"x_max":0,"o":"m 417 1250 l 417 1389 l 278 1389 l 278 1250 z m 278 1111 l 278 1250 l 139 1250 l 139 1111 z m 417 1111 l 556 1111 l 556 1250 l 417 1250 z m 625 1042 l 69 1042 l 69 0 l 625 0 l 625 139 l 208 139 l 208 486 l 625 486 l 625 625 l 208 625 l 208 903 l 625 903 z m 278 -69 l 278 -208 l 417 -208 l 417 -69 z "},"Ề":{"ha":694,"x_min":0,"x_max":0,"o":"m 486 1597 l 347 1597 l 347 1458 l 486 1458 z m 625 1458 l 486 1458 l 486 1319 l 625 1319 z m 347 1250 l 347 1389 l 208 1389 l 208 1250 z m 208 1111 l 208 1250 l 69 1250 l 69 1111 z m 347 1111 l 486 1111 l 486 1250 l 347 1250 z m 625 1042 l 69 1042 l 69 0 l 625 0 l 625 139 l 208 139 l 208 486 l 625 486 l 625 625 l 208 625 l 208 903 l 625 903 z "},"Ể":{"ha":694,"x_min":0,"x_max":0,"o":"m 625 1597 l 347 1597 l 347 1458 l 486 1458 l 486 1319 l 625 1319 z m 347 1250 l 347 1389 l 208 1389 l 208 1250 z m 208 1111 l 208 1250 l 69 1250 l 69 1111 z m 347 1111 l 486 1111 l 486 1250 l 347 1250 z m 625 1042 l 69 1042 l 69 0 l 625 0 l 625 139 l 208 139 l 208 486 l 625 486 l 625 625 l 208 625 l 208 903 l 625 903 z "},"Ễ":{"ha":694,"x_min":0,"x_max":0,"o":"m 347 1528 l 208 1528 l 208 1389 l 347 1389 z m 625 1528 l 486 1528 l 486 1389 l 625 1389 z m 69 1389 l 69 1111 l 208 1111 l 208 1389 z m 347 1389 l 347 1111 l 486 1111 l 486 1389 z m 625 1042 l 69 1042 l 69 0 l 625 0 l 625 139 l 208 139 l 208 486 l 625 486 l 625 625 l 208 625 l 208 903 l 625 903 z "},"Ë":{"ha":694,"x_min":0,"x_max":0,"o":"m 278 1111 l 278 1250 l 139 1250 l 139 1111 z m 556 1111 l 556 1250 l 417 1250 l 417 1111 z m 625 1042 l 69 1042 l 69 0 l 625 0 l 625 139 l 208 139 l 208 486 l 625 486 l 625 625 l 208 625 l 208 903 l 625 903 z "},"Ė":{"ha":694,"x_min":0,"x_max":0,"o":"m 417 1111 l 417 1250 l 278 1250 l 278 1111 z m 625 1042 l 69 1042 l 69 0 l 625 0 l 625 139 l 208 139 l 208 486 l 625 486 l 625 625 l 208 625 l 208 903 l 625 903 z "},"Ẹ":{"ha":694,"x_min":0,"x_max":0,"o":"m 625 1042 l 69 1042 l 69 0 l 625 0 l 625 139 l 208 139 l 208 486 l 625 486 l 625 625 l 208 625 l 208 903 l 625 903 z m 278 -69 l 278 -208 l 417 -208 l 417 -69 z "},"È":{"ha":694,"x_min":0,"x_max":0,"o":"m 278 1250 l 278 1389 l 139 1389 l 139 1250 z m 278 1111 l 417 1111 l 417 1250 l 278 1250 z m 625 1042 l 69 1042 l 69 0 l 625 0 l 625 139 l 208 139 l 208 486 l 625 486 l 625 625 l 208 625 l 208 903 l 625 903 z "},"Ẻ":{"ha":694,"x_min":0,"x_max":0,"o":"m 278 1250 l 278 1111 l 417 1111 l 417 1389 l 139 1389 l 139 1250 z m 625 1042 l 69 1042 l 69 0 l 625 0 l 625 139 l 208 139 l 208 486 l 625 486 l 625 625 l 208 625 l 208 903 l 625 903 z "},"Ē":{"ha":694,"x_min":0,"x_max":0,"o":"m 139 1111 l 556 1111 l 556 1250 l 139 1250 z m 625 1042 l 69 1042 l 69 0 l 625 0 l 625 139 l 208 139 l 208 486 l 625 486 l 625 625 l 208 625 l 208 903 l 625 903 z "},"Ę":{"ha":694,"x_min":0,"x_max":0,"o":"m 625 1042 l 69 1042 l 69 0 l 486 0 l 486 -139 l 625 -139 l 625 139 l 208 139 l 208 486 l 625 486 l 625 625 l 208 625 l 208 903 l 625 903 z m 347 -139 l 347 -278 l 486 -278 l 486 -139 z m 486 -417 l 625 -417 l 625 -278 l 486 -278 z "},"Ɛ":{"ha":625,"x_min":0,"x_max":0,"o":"m 556 1042 l 208 1042 l 208 903 l 556 903 z m 69 903 l 69 625 l 208 625 l 208 903 z m 208 486 l 417 486 l 417 625 l 208 625 z m 69 486 l 69 139 l 208 139 l 208 486 z m 208 0 l 556 0 l 556 139 l 208 139 z "},"Ǝ":{"ha":694,"x_min":0,"x_max":0,"o":"m 625 1042 l 69 1042 l 69 903 l 486 903 l 486 625 l 69 625 l 69 486 l 486 486 l 486 139 l 69 139 l 69 0 l 625 0 z "},"Ʃ":{"ha":764,"x_min":0,"x_max":0,"o":"m 694 1042 l 69 1042 l 69 764 l 208 764 l 208 903 l 694 903 z m 208 625 l 347 625 l 347 764 l 208 764 z m 347 625 l 347 417 l 486 417 l 486 625 z m 208 417 l 208 278 l 347 278 l 347 417 z m 69 278 l 69 0 l 694 0 l 694 139 l 208 139 l 208 278 z "},"Ẽ":{"ha":694,"x_min":0,"x_max":0,"o":"m 347 1389 l 208 1389 l 208 1250 l 347 1250 z m 625 1389 l 486 1389 l 486 1250 l 625 1250 z m 69 1250 l 69 1111 l 208 1111 l 208 1250 z m 347 1250 l 347 1111 l 486 1111 l 486 1250 z m 625 1042 l 69 1042 l 69 0 l 625 0 l 625 139 l 208 139 l 208 486 l 625 486 l 625 625 l 208 625 l 208 903 l 625 903 z "},"Ʒ":{"ha":694,"x_min":0,"x_max":0,"o":"m 625 1042 l 69 1042 l 69 903 l 486 903 l 486 764 l 625 764 z m 347 764 l 347 625 l 208 625 l 208 486 l 486 486 l 486 764 z m 486 486 l 486 139 l 625 139 l 625 486 z m 486 139 l 69 139 l 69 0 l 486 0 z "},"F":{"ha":694,"x_min":0,"x_max":0,"o":"m 625 1042 l 69 1042 l 69 0 l 208 0 l 208 486 l 625 486 l 625 625 l 208 625 l 208 903 l 625 903 z "},"Ƒ":{"ha":868,"x_min":0,"x_max":0,"o":"m 799 1042 l 243 1042 l 243 -139 l 382 -139 l 382 486 l 799 486 l 799 625 l 382 625 l 382 903 l 799 903 z m 243 -139 l 35 -139 l 35 -278 l 243 -278 z "},"G":{"ha":833,"x_min":0,"x_max":0,"o":"m 208 903 l 694 903 l 694 1042 l 208 1042 z m 208 139 l 208 903 l 69 903 l 69 139 z m 764 625 l 486 625 l 486 486 l 625 486 l 625 139 l 764 139 z m 625 139 l 208 139 l 208 0 l 625 0 z "},"Ɣ":{"ha":833,"x_min":0,"x_max":0,"o":"m 208 486 l 208 1042 l 69 1042 l 69 486 z m 764 1042 l 625 1042 l 625 486 l 764 486 z m 347 208 l 347 486 l 208 486 l 208 208 z m 486 486 l 486 208 l 625 208 l 625 486 z m 347 208 l 347 0 l 486 0 l 486 208 z m 347 0 l 208 0 l 208 -139 l 347 -139 z m 486 -139 l 625 -139 l 625 0 l 486 0 z m 347 -139 l 347 -278 l 486 -278 l 486 -139 z "},"Ğ":{"ha":833,"x_min":0,"x_max":0,"o":"m 278 1250 l 278 1389 l 139 1389 l 139 1250 z m 694 1250 l 694 1389 l 556 1389 l 556 1250 z m 278 1111 l 556 1111 l 556 1250 l 278 1250 z m 208 903 l 694 903 l 694 1042 l 208 1042 z m 208 139 l 208 903 l 69 903 l 69 139 z m 764 625 l 486 625 l 486 486 l 625 486 l 625 139 l 764 139 z m 625 139 l 208 139 l 208 0 l 625 0 z "},"Ǧ":{"ha":833,"x_min":0,"x_max":0,"o":"m 382 1250 l 382 1389 l 243 1389 l 243 1250 z m 660 1250 l 660 1389 l 521 1389 l 521 1250 z m 382 1111 l 521 1111 l 521 1250 l 382 1250 z m 208 903 l 694 903 l 694 1042 l 208 1042 z m 208 139 l 208 903 l 69 903 l 69 139 z m 764 625 l 486 625 l 486 486 l 625 486 l 625 139 l 764 139 z m 625 139 l 208 139 l 208 0 l 625 0 z "},"Ģ":{"ha":833,"x_min":0,"x_max":0,"o":"m 208 903 l 694 903 l 694 1042 l 208 1042 z m 208 139 l 208 903 l 69 903 l 69 139 z m 764 625 l 486 625 l 486 486 l 625 486 l 625 139 l 764 139 z m 625 139 l 208 139 l 208 0 l 625 0 z m 347 -69 l 347 -278 l 486 -278 l 486 -69 z m 208 -278 l 208 -417 l 347 -417 l 347 -278 z "},"Ġ":{"ha":833,"x_min":0,"x_max":0,"o":"m 521 1111 l 521 1250 l 382 1250 l 382 1111 z m 208 903 l 694 903 l 694 1042 l 208 1042 z m 208 139 l 208 903 l 69 903 l 69 139 z m 764 625 l 486 625 l 486 486 l 625 486 l 625 139 l 764 139 z m 625 139 l 208 139 l 208 0 l 625 0 z "},"Ɠ":{"ha":833,"x_min":0,"x_max":0,"o":"m 764 1250 l 625 1250 l 625 1042 l 764 1042 z m 625 1042 l 208 1042 l 208 903 l 625 903 z m 69 903 l 69 139 l 208 139 l 208 903 z m 764 139 l 764 625 l 486 625 l 486 486 l 625 486 l 625 139 z m 208 0 l 625 0 l 625 139 l 208 139 z "},"H":{"ha":833,"x_min":0,"x_max":0,"o":"m 764 1042 l 625 1042 l 625 625 l 208 625 l 208 1042 l 69 1042 l 69 0 l 208 0 l 208 486 l 625 486 l 625 0 l 764 0 z "},"Ħ":{"ha":1042,"x_min":0,"x_max":0,"o":"m 1007 903 l 868 903 l 868 1042 l 729 1042 l 729 903 l 313 903 l 313 1042 l 174 1042 l 174 903 l 35 903 l 35 764 l 174 764 l 174 0 l 313 0 l 313 486 l 729 486 l 729 0 l 868 0 l 868 764 l 1007 764 z m 729 764 l 729 625 l 313 625 l 313 764 z "},"Ḥ":{"ha":833,"x_min":0,"x_max":0,"o":"m 764 1042 l 625 1042 l 625 625 l 208 625 l 208 1042 l 69 1042 l 69 0 l 208 0 l 208 486 l 625 486 l 625 0 l 764 0 z m 347 -69 l 347 -208 l 486 -208 l 486 -69 z "},"Ɦ":{"ha":1007,"x_min":0,"x_max":0,"o":"m 243 1042 l 35 1042 l 35 903 l 243 903 z m 938 1042 l 799 1042 l 799 625 l 382 625 l 382 903 l 243 903 l 243 0 l 382 0 l 382 486 l 799 486 l 799 0 l 938 0 z "},"Ɥ":{"ha":833,"x_min":0,"x_max":0,"o":"m 764 1042 l 625 1042 l 625 556 l 208 556 l 208 1042 l 69 1042 l 69 417 l 625 417 l 625 0 l 764 0 z "},"I":{"ha":278,"x_min":0,"x_max":0,"o":"m 208 1042 l 69 1042 l 69 0 l 208 0 z "},"Í":{"ha":382,"x_min":0,"x_max":0,"o":"m 347 1389 l 208 1389 l 208 1250 l 347 1250 z m 69 1250 l 69 1111 l 208 1111 l 208 1250 z m 69 1042 l 69 0 l 208 0 l 208 1042 z "},"Ǐ":{"ha":486,"x_min":0,"x_max":0,"o":"m 174 1389 l 35 1389 l 35 1250 l 174 1250 z m 451 1389 l 313 1389 l 313 1250 l 451 1250 z m 174 1250 l 174 1111 l 313 1111 l 313 1250 z m 174 1042 l 174 0 l 313 0 l 313 1042 z "},"Î":{"ha":486,"x_min":0,"x_max":0,"o":"m 313 1389 l 174 1389 l 174 1250 l 313 1250 z m 35 1250 l 35 1111 l 174 1111 l 174 1250 z m 451 1250 l 313 1250 l 313 1111 l 451 1111 z m 174 1042 l 174 0 l 313 0 l 313 1042 z "},"Ï":{"ha":486,"x_min":0,"x_max":0,"o":"m 174 1111 l 174 1250 l 35 1250 l 35 1111 z m 451 1250 l 313 1250 l 313 1111 l 451 1111 z m 174 1042 l 174 0 l 313 0 l 313 1042 z "},"Ḯ":{"ha":486,"x_min":0,"x_max":0,"o":"m 451 1597 l 313 1597 l 313 1458 l 451 1458 z m 174 1458 l 174 1319 l 313 1319 l 313 1458 z m 174 1111 l 174 1250 l 35 1250 l 35 1111 z m 313 1250 l 313 1111 l 451 1111 l 451 1250 z m 174 1042 l 174 0 l 313 0 l 313 1042 z "},"İ":{"ha":278,"x_min":0,"x_max":0,"o":"m 208 1250 l 69 1250 l 69 1111 l 208 1111 z m 69 1042 l 69 0 l 208 0 l 208 1042 z "},"Ị":{"ha":278,"x_min":0,"x_max":0,"o":"m 208 1042 l 69 1042 l 69 0 l 208 0 z m 69 -69 l 69 -208 l 208 -208 l 208 -69 z "},"Ì":{"ha":382,"x_min":0,"x_max":0,"o":"m 174 1389 l 35 1389 l 35 1250 l 174 1250 z m 313 1250 l 174 1250 l 174 1111 l 313 1111 z m 174 1042 l 174 0 l 313 0 l 313 1042 z "},"Ỉ":{"ha":382,"x_min":0,"x_max":0,"o":"m 313 1389 l 35 1389 l 35 1250 l 174 1250 l 174 1111 l 313 1111 z m 174 1042 l 174 0 l 313 0 l 313 1042 z "},"Ī":{"ha":486,"x_min":0,"x_max":0,"o":"m 451 1250 l 35 1250 l 35 1111 l 451 1111 z m 174 1042 l 174 0 l 313 0 l 313 1042 z "},"Į":{"ha":382,"x_min":0,"x_max":0,"o":"m 313 1042 l 174 1042 l 174 -139 l 313 -139 z m 35 -139 l 35 -278 l 174 -278 l 174 -139 z m 174 -417 l 313 -417 l 313 -278 l 174 -278 z "},"Ɩ":{"ha":521,"x_min":0,"x_max":0,"o":"m 208 139 l 208 1042 l 69 1042 l 69 139 z m 486 139 l 208 139 l 208 0 l 486 0 z "},"Ɨ":{"ha":486,"x_min":0,"x_max":0,"o":"m 451 625 l 313 625 l 313 1042 l 174 1042 l 174 625 l 35 625 l 35 486 l 174 486 l 174 0 l 313 0 l 313 486 l 451 486 z "},"Ĩ":{"ha":625,"x_min":0,"x_max":0,"o":"m 313 1389 l 174 1389 l 174 1250 l 313 1250 z m 590 1389 l 451 1389 l 451 1250 l 590 1250 z m 35 1250 l 35 1111 l 174 1111 l 174 1250 z m 313 1250 l 313 1111 l 451 1111 l 451 1250 z m 243 1042 l 243 0 l 382 0 l 382 1042 z "},"J":{"ha":556,"x_min":0,"x_max":0,"o":"m 486 1042 l 347 1042 l 347 139 l 486 139 z m 347 139 l 69 139 l 69 0 l 347 0 z "},"K":{"ha":764,"x_min":0,"x_max":0,"o":"m 556 625 l 208 625 l 208 1042 l 69 1042 l 69 0 l 208 0 l 208 486 l 556 486 z m 694 1042 l 556 1042 l 556 625 l 694 625 z m 556 486 l 556 0 l 694 0 l 694 486 z "},"Ķ":{"ha":764,"x_min":0,"x_max":0,"o":"m 556 625 l 208 625 l 208 1042 l 69 1042 l 69 0 l 208 0 l 208 486 l 556 486 z m 694 1042 l 556 1042 l 556 625 l 694 625 z m 556 486 l 556 0 l 694 0 l 694 486 z m 313 -69 l 313 -278 l 451 -278 l 451 -69 z m 174 -278 l 174 -417 l 313 -417 l 313 -278 z "},"Ƙ":{"ha":938,"x_min":0,"x_max":0,"o":"m 556 625 l 208 625 l 208 1042 l 69 1042 l 69 0 l 208 0 l 208 486 l 556 486 z m 903 1042 l 694 1042 l 694 903 l 903 903 z m 556 903 l 556 625 l 694 625 l 694 903 z m 556 486 l 556 0 l 694 0 l 694 486 z "},"L":{"ha":660,"x_min":0,"x_max":0,"o":"m 625 139 l 208 139 l 208 1042 l 69 1042 l 69 0 l 625 0 z "},"Ĺ":{"ha":660,"x_min":0,"x_max":0,"o":"m 347 1250 l 347 1389 l 208 1389 l 208 1250 z m 208 1111 l 208 1250 l 69 1250 l 69 1111 z m 625 139 l 208 139 l 208 1042 l 69 1042 l 69 0 l 625 0 z "},"Ľ":{"ha":660,"x_min":0,"x_max":0,"o":"m 625 139 l 208 139 l 208 1042 l 69 1042 l 69 0 l 625 0 z m 486 764 l 486 1042 l 347 1042 l 347 764 z "},"Ḽ":{"ha":660,"x_min":0,"x_max":0,"o":"m 625 139 l 208 139 l 208 1042 l 69 1042 l 69 0 l 625 0 z m 417 -69 l 278 -69 l 278 -208 l 417 -208 z m 139 -208 l 139 -347 l 278 -347 l 278 -208 z m 417 -208 l 417 -347 l 556 -347 l 556 -208 z "},"Ļ":{"ha":660,"x_min":0,"x_max":0,"o":"m 625 139 l 208 139 l 208 1042 l 69 1042 l 69 0 l 625 0 z m 278 -69 l 278 -278 l 417 -278 l 417 -69 z m 139 -278 l 139 -417 l 278 -417 l 278 -278 z "},"Ḷ":{"ha":660,"x_min":0,"x_max":0,"o":"m 625 139 l 208 139 l 208 1042 l 69 1042 l 69 0 l 625 0 z m 278 -69 l 278 -208 l 417 -208 l 417 -69 z "},"Ł":{"ha":764,"x_min":0,"x_max":0,"o":"m 729 139 l 313 139 l 313 486 l 451 486 l 451 625 l 313 625 l 313 1042 l 174 1042 l 174 625 l 35 625 l 35 486 l 174 486 l 174 0 l 729 0 z "},"M":{"ha":1111,"x_min":0,"x_max":0,"o":"m 347 625 l 347 833 l 208 833 l 208 1042 l 69 1042 l 69 0 l 208 0 l 208 625 z m 1042 1042 l 903 1042 l 903 833 l 764 833 l 764 625 l 903 625 l 903 0 l 1042 0 z m 486 347 l 486 625 l 347 625 l 347 347 z m 625 625 l 625 347 l 764 347 l 764 625 z m 486 347 l 486 139 l 625 139 l 625 347 z "},"Ḿ":{"ha":1111,"x_min":0,"x_max":0,"o":"m 764 1250 l 764 1389 l 625 1389 l 625 1250 z m 625 1111 l 625 1250 l 486 1250 l 486 1111 z m 347 625 l 347 833 l 208 833 l 208 1042 l 69 1042 l 69 0 l 208 0 l 208 625 z m 1042 1042 l 903 1042 l 903 833 l 764 833 l 764 625 l 903 625 l 903 0 l 1042 0 z m 486 347 l 486 625 l 347 625 l 347 347 z m 625 625 l 625 347 l 764 347 l 764 625 z m 486 347 l 486 139 l 625 139 l 625 347 z "},"N":{"ha":833,"x_min":0,"x_max":0,"o":"m 347 660 l 347 868 l 208 868 l 208 1042 l 69 1042 l 69 0 l 208 0 l 208 660 z m 764 1042 l 625 1042 l 625 382 l 486 382 l 486 174 l 625 174 l 625 0 l 764 0 z m 486 382 l 486 660 l 347 660 l 347 382 z "},"Ń":{"ha":833,"x_min":0,"x_max":0,"o":"m 625 1250 l 625 1389 l 486 1389 l 486 1250 z m 486 1111 l 486 1250 l 347 1250 l 347 1111 z m 347 660 l 347 868 l 208 868 l 208 1042 l 69 1042 l 69 0 l 208 0 l 208 660 z m 764 1042 l 625 1042 l 625 382 l 486 382 l 486 174 l 625 174 l 625 0 l 764 0 z m 486 382 l 486 660 l 347 660 l 347 382 z "},"Ň":{"ha":833,"x_min":0,"x_max":0,"o":"m 347 1250 l 347 1389 l 208 1389 l 208 1250 z m 625 1250 l 625 1389 l 486 1389 l 486 1250 z m 347 1111 l 486 1111 l 486 1250 l 347 1250 z m 347 660 l 347 868 l 208 868 l 208 1042 l 69 1042 l 69 0 l 208 0 l 208 660 z m 764 1042 l 625 1042 l 625 382 l 486 382 l 486 174 l 625 174 l 625 0 l 764 0 z m 486 382 l 486 660 l 347 660 l 347 382 z "},"Ṋ":{"ha":833,"x_min":0,"x_max":0,"o":"m 347 660 l 347 868 l 208 868 l 208 1042 l 69 1042 l 69 0 l 208 0 l 208 660 z m 764 1042 l 625 1042 l 625 382 l 486 382 l 486 174 l 625 174 l 625 0 l 764 0 z m 486 382 l 486 660 l 347 660 l 347 382 z m 486 -69 l 347 -69 l 347 -208 l 486 -208 z m 208 -208 l 208 -347 l 347 -347 l 347 -208 z m 486 -208 l 486 -347 l 625 -347 l 625 -208 z "},"Ņ":{"ha":833,"x_min":0,"x_max":0,"o":"m 347 660 l 347 868 l 208 868 l 208 1042 l 69 1042 l 69 0 l 208 0 l 208 660 z m 764 1042 l 625 1042 l 625 382 l 486 382 l 486 174 l 625 174 l 625 0 l 764 0 z m 486 382 l 486 660 l 347 660 l 347 382 z m 347 -69 l 347 -278 l 486 -278 l 486 -69 z m 208 -278 l 208 -417 l 347 -417 l 347 -278 z "},"Ṅ":{"ha":833,"x_min":0,"x_max":0,"o":"m 486 1111 l 486 1250 l 347 1250 l 347 1111 z m 347 660 l 347 868 l 208 868 l 208 1042 l 69 1042 l 69 0 l 208 0 l 208 660 z m 764 1042 l 625 1042 l 625 382 l 486 382 l 486 174 l 625 174 l 625 0 l 764 0 z m 486 382 l 486 660 l 347 660 l 347 382 z "},"Ṇ":{"ha":833,"x_min":0,"x_max":0,"o":"m 347 660 l 347 868 l 208 868 l 208 1042 l 69 1042 l 69 0 l 208 0 l 208 660 z m 764 1042 l 625 1042 l 625 382 l 486 382 l 486 174 l 625 174 l 625 0 l 764 0 z m 486 382 l 486 660 l 347 660 l 347 382 z m 347 -69 l 347 -208 l 486 -208 l 486 -69 z "},"Ŋ":{"ha":833,"x_min":0,"x_max":0,"o":"m 347 660 l 347 868 l 208 868 l 208 1042 l 69 1042 l 69 0 l 208 0 l 208 660 z m 764 1042 l 625 1042 l 625 382 l 486 382 l 486 174 l 625 174 l 625 -139 l 764 -139 z m 486 382 l 486 660 l 347 660 l 347 382 z m 625 -139 l 417 -139 l 417 -278 l 625 -278 z "},"Ɲ":{"ha":1007,"x_min":0,"x_max":0,"o":"m 521 660 l 521 868 l 382 868 l 382 1042 l 243 1042 l 243 -139 l 382 -139 l 382 660 z m 938 1042 l 799 1042 l 799 382 l 660 382 l 660 174 l 799 174 l 799 0 l 938 0 z m 660 382 l 660 660 l 521 660 l 521 382 z m 243 -139 l 35 -139 l 35 -278 l 243 -278 z "},"Ñ":{"ha":833,"x_min":0,"x_max":0,"o":"m 417 1250 l 417 1389 l 278 1389 l 278 1250 z m 694 1250 l 694 1389 l 556 1389 l 556 1250 z m 278 1111 l 278 1250 l 139 1250 l 139 1111 z m 417 1111 l 556 1111 l 556 1250 l 417 1250 z m 347 660 l 347 868 l 208 868 l 208 1042 l 69 1042 l 69 0 l 208 0 l 208 660 z m 764 1042 l 625 1042 l 625 382 l 486 382 l 486 174 l 625 174 l 625 0 l 764 0 z m 486 382 l 486 660 l 347 660 l 347 382 z "},"O":{"ha":833,"x_min":0,"x_max":0,"o":"m 208 903 l 625 903 l 625 1042 l 208 1042 z m 208 139 l 208 903 l 69 903 l 69 139 z m 764 903 l 625 903 l 625 139 l 764 139 z m 625 139 l 208 139 l 208 0 l 625 0 z "},"Ó":{"ha":833,"x_min":0,"x_max":0,"o":"m 625 1250 l 625 1389 l 486 1389 l 486 1250 z m 486 1111 l 486 1250 l 347 1250 l 347 1111 z m 208 903 l 625 903 l 625 1042 l 208 1042 z m 208 139 l 208 903 l 69 903 l 69 139 z m 764 903 l 625 903 l 625 139 l 764 139 z m 625 139 l 208 139 l 208 0 l 625 0 z "},"Ǒ":{"ha":833,"x_min":0,"x_max":0,"o":"m 347 1250 l 347 1389 l 208 1389 l 208 1250 z m 625 1250 l 625 1389 l 486 1389 l 486 1250 z m 347 1111 l 486 1111 l 486 1250 l 347 1250 z m 208 903 l 625 903 l 625 1042 l 208 1042 z m 208 139 l 208 903 l 69 903 l 69 139 z m 764 903 l 625 903 l 625 139 l 764 139 z m 625 139 l 208 139 l 208 0 l 625 0 z "},"Ô":{"ha":833,"x_min":0,"x_max":0,"o":"m 486 1250 l 486 1389 l 347 1389 l 347 1250 z m 347 1111 l 347 1250 l 208 1250 l 208 1111 z m 486 1111 l 625 1111 l 625 1250 l 486 1250 z m 208 903 l 625 903 l 625 1042 l 208 1042 z m 208 139 l 208 903 l 69 903 l 69 139 z m 764 903 l 625 903 l 625 139 l 764 139 z m 625 139 l 208 139 l 208 0 l 625 0 z "},"Ố":{"ha":833,"x_min":0,"x_max":0,"o":"m 729 1458 l 729 1597 l 590 1597 l 590 1458 z m 590 1319 l 590 1458 l 451 1458 l 451 1319 z m 382 1250 l 382 1389 l 243 1389 l 243 1250 z m 243 1111 l 243 1250 l 104 1250 l 104 1111 z m 382 1111 l 521 1111 l 521 1250 l 382 1250 z m 208 903 l 625 903 l 625 1042 l 208 1042 z m 208 139 l 208 903 l 69 903 l 69 139 z m 764 903 l 625 903 l 625 139 l 764 139 z m 625 139 l 208 139 l 208 0 l 625 0 z "},"Ộ":{"ha":833,"x_min":0,"x_max":0,"o":"m 486 1250 l 486 1389 l 347 1389 l 347 1250 z m 347 1111 l 347 1250 l 208 1250 l 208 1111 z m 486 1111 l 625 1111 l 625 1250 l 486 1250 z m 208 903 l 625 903 l 625 1042 l 208 1042 z m 208 139 l 208 903 l 69 903 l 69 139 z m 764 903 l 625 903 l 625 139 l 764 139 z m 625 139 l 208 139 l 208 0 l 625 0 z m 347 -69 l 347 -208 l 486 -208 l 486 -69 z "},"Ồ":{"ha":833,"x_min":0,"x_max":0,"o":"m 556 1458 l 556 1597 l 417 1597 l 417 1458 z m 556 1319 l 694 1319 l 694 1458 l 556 1458 z m 417 1250 l 417 1389 l 278 1389 l 278 1250 z m 278 1111 l 278 1250 l 139 1250 l 139 1111 z m 417 1111 l 556 1111 l 556 1250 l 417 1250 z m 208 903 l 625 903 l 625 1042 l 208 1042 z m 208 139 l 208 903 l 69 903 l 69 139 z m 764 903 l 625 903 l 625 139 l 764 139 z m 625 139 l 208 139 l 208 0 l 625 0 z "},"Ổ":{"ha":833,"x_min":0,"x_max":0,"o":"m 556 1458 l 556 1319 l 694 1319 l 694 1597 l 417 1597 l 417 1458 z m 417 1250 l 417 1389 l 278 1389 l 278 1250 z m 278 1111 l 278 1250 l 139 1250 l 139 1111 z m 417 1111 l 556 1111 l 556 1250 l 417 1250 z m 208 903 l 625 903 l 625 1042 l 208 1042 z m 208 139 l 208 903 l 69 903 l 69 139 z m 764 903 l 625 903 l 625 139 l 764 139 z m 625 139 l 208 139 l 208 0 l 625 0 z "},"Ỗ":{"ha":833,"x_min":0,"x_max":0,"o":"m 417 1389 l 417 1528 l 278 1528 l 278 1389 z m 694 1389 l 694 1528 l 556 1528 l 556 1389 z m 278 1111 l 278 1389 l 139 1389 l 139 1111 z m 417 1389 l 417 1111 l 556 1111 l 556 1389 z m 208 903 l 625 903 l 625 1042 l 208 1042 z m 208 139 l 208 903 l 69 903 l 69 139 z m 764 903 l 625 903 l 625 139 l 764 139 z m 625 139 l 208 139 l 208 0 l 625 0 z "},"Ö":{"ha":833,"x_min":0,"x_max":0,"o":"m 347 1111 l 347 1250 l 208 1250 l 208 1111 z m 625 1111 l 625 1250 l 486 1250 l 486 1111 z m 208 903 l 625 903 l 625 1042 l 208 1042 z m 208 139 l 208 903 l 69 903 l 69 139 z m 764 903 l 625 903 l 625 139 l 764 139 z m 625 139 l 208 139 l 208 0 l 625 0 z "},"Ȫ":{"ha":833,"x_min":0,"x_max":0,"o":"m 208 1319 l 625 1319 l 625 1458 l 208 1458 z m 347 1111 l 347 1250 l 208 1250 l 208 1111 z m 486 1250 l 486 1111 l 625 1111 l 625 1250 z m 208 903 l 625 903 l 625 1042 l 208 1042 z m 208 139 l 208 903 l 69 903 l 69 139 z m 764 903 l 625 903 l 625 139 l 764 139 z m 625 139 l 208 139 l 208 0 l 625 0 z "},"Ọ":{"ha":833,"x_min":0,"x_max":0,"o":"m 208 903 l 625 903 l 625 1042 l 208 1042 z m 208 139 l 208 903 l 69 903 l 69 139 z m 764 903 l 625 903 l 625 139 l 764 139 z m 625 139 l 208 139 l 208 0 l 625 0 z m 347 -69 l 347 -208 l 486 -208 l 486 -69 z "},"Ò":{"ha":833,"x_min":0,"x_max":0,"o":"m 347 1250 l 347 1389 l 208 1389 l 208 1250 z m 347 1111 l 486 1111 l 486 1250 l 347 1250 z m 208 903 l 625 903 l 625 1042 l 208 1042 z m 208 139 l 208 903 l 69 903 l 69 139 z m 764 903 l 625 903 l 625 139 l 764 139 z m 625 139 l 208 139 l 208 0 l 625 0 z "},"Ỏ":{"ha":833,"x_min":0,"x_max":0,"o":"m 347 1250 l 347 1111 l 486 1111 l 486 1389 l 208 1389 l 208 1250 z m 208 903 l 625 903 l 625 1042 l 208 1042 z m 208 139 l 208 903 l 69 903 l 69 139 z m 764 903 l 625 903 l 625 139 l 764 139 z m 625 139 l 208 139 l 208 0 l 625 0 z "},"Ơ":{"ha":1007,"x_min":0,"x_max":0,"o":"m 208 903 l 625 903 l 625 1042 l 208 1042 z m 972 1042 l 764 1042 l 764 903 l 972 903 z m 208 139 l 208 903 l 69 903 l 69 139 z m 625 903 l 625 139 l 764 139 l 764 903 z m 625 139 l 208 139 l 208 0 l 625 0 z "},"Ớ":{"ha":1007,"x_min":0,"x_max":0,"o":"m 625 1250 l 625 1389 l 486 1389 l 486 1250 z m 486 1111 l 486 1250 l 347 1250 l 347 1111 z m 208 903 l 625 903 l 625 1042 l 208 1042 z m 972 1042 l 764 1042 l 764 903 l 972 903 z m 208 139 l 208 903 l 69 903 l 69 139 z m 625 903 l 625 139 l 764 139 l 764 903 z m 625 139 l 208 139 l 208 0 l 625 0 z "},"Ợ":{"ha":1007,"x_min":0,"x_max":0,"o":"m 208 903 l 625 903 l 625 1042 l 208 1042 z m 972 1042 l 764 1042 l 764 903 l 972 903 z m 208 139 l 208 903 l 69 903 l 69 139 z m 625 903 l 625 139 l 764 139 l 764 903 z m 625 139 l 208 139 l 208 0 l 625 0 z m 347 -69 l 347 -208 l 486 -208 l 486 -69 z "},"Ờ":{"ha":1007,"x_min":0,"x_max":0,"o":"m 347 1250 l 347 1389 l 208 1389 l 208 1250 z m 347 1111 l 486 1111 l 486 1250 l 347 1250 z m 208 903 l 625 903 l 625 1042 l 208 1042 z m 972 1042 l 764 1042 l 764 903 l 972 903 z m 208 139 l 208 903 l 69 903 l 69 139 z m 625 903 l 625 139 l 764 139 l 764 903 z m 625 139 l 208 139 l 208 0 l 625 0 z "},"Ở":{"ha":1007,"x_min":0,"x_max":0,"o":"m 347 1250 l 347 1111 l 486 1111 l 486 1389 l 208 1389 l 208 1250 z m 208 903 l 625 903 l 625 1042 l 208 1042 z m 972 1042 l 764 1042 l 764 903 l 972 903 z m 208 139 l 208 903 l 69 903 l 69 139 z m 625 903 l 625 139 l 764 139 l 764 903 z m 625 139 l 208 139 l 208 0 l 625 0 z "},"Ỡ":{"ha":1007,"x_min":0,"x_max":0,"o":"m 486 1250 l 486 1389 l 347 1389 l 347 1250 z m 764 1250 l 764 1389 l 625 1389 l 625 1250 z m 347 1111 l 347 1250 l 208 1250 l 208 1111 z m 486 1111 l 625 1111 l 625 1250 l 486 1250 z m 208 903 l 625 903 l 625 1042 l 208 1042 z m 972 1042 l 764 1042 l 764 903 l 972 903 z m 208 139 l 208 903 l 69 903 l 69 139 z m 625 903 l 625 139 l 764 139 l 764 903 z m 625 139 l 208 139 l 208 0 l 625 0 z "},"Ő":{"ha":833,"x_min":0,"x_max":0,"o":"m 347 1111 l 347 1389 l 208 1389 l 208 1111 z m 625 1111 l 625 1389 l 486 1389 l 486 1111 z m 208 903 l 625 903 l 625 1042 l 208 1042 z m 208 139 l 208 903 l 69 903 l 69 139 z m 764 903 l 625 903 l 625 139 l 764 139 z m 625 139 l 208 139 l 208 0 l 625 0 z "},"Ō":{"ha":833,"x_min":0,"x_max":0,"o":"m 208 1111 l 625 1111 l 625 1250 l 208 1250 z m 208 903 l 625 903 l 625 1042 l 208 1042 z m 208 139 l 208 903 l 69 903 l 69 139 z m 764 903 l 625 903 l 625 139 l 764 139 z m 625 139 l 208 139 l 208 0 l 625 0 z "},"Ṓ":{"ha":833,"x_min":0,"x_max":0,"o":"m 625 1458 l 625 1597 l 486 1597 l 486 1458 z m 486 1319 l 486 1458 l 347 1458 l 347 1319 z m 208 1111 l 625 1111 l 625 1250 l 208 1250 z m 208 903 l 625 903 l 625 1042 l 208 1042 z m 208 139 l 208 903 l 69 903 l 69 139 z m 764 903 l 625 903 l 625 139 l 764 139 z m 625 139 l 208 139 l 208 0 l 625 0 z "},"Ṑ":{"ha":833,"x_min":0,"x_max":0,"o":"m 347 1458 l 347 1597 l 208 1597 l 208 1458 z m 347 1319 l 486 1319 l 486 1458 l 347 1458 z m 208 1111 l 625 1111 l 625 1250 l 208 1250 z m 208 903 l 625 903 l 625 1042 l 208 1042 z m 208 139 l 208 903 l 69 903 l 69 139 z m 764 903 l 625 903 l 625 139 l 764 139 z m 625 139 l 208 139 l 208 0 l 625 0 z "},"Ɔ":{"ha":764,"x_min":0,"x_max":0,"o":"m 556 1042 l 69 1042 l 69 903 l 556 903 z m 694 903 l 556 903 l 556 139 l 694 139 z m 556 139 l 69 139 l 69 0 l 556 0 z "},"Ø":{"ha":833,"x_min":0,"x_max":0,"o":"m 764 903 l 625 903 l 625 1042 l 208 1042 l 208 903 l 486 903 l 486 694 l 625 694 l 625 139 l 764 139 z m 625 139 l 347 139 l 347 347 l 208 347 l 208 903 l 69 903 l 69 139 l 208 139 l 208 0 l 625 0 z m 347 694 l 347 347 l 486 347 l 486 694 z "},"Ǿ":{"ha":833,"x_min":0,"x_max":0,"o":"m 625 1250 l 625 1389 l 486 1389 l 486 1250 z m 486 1111 l 486 1250 l 347 1250 l 347 1111 z m 764 903 l 625 903 l 625 1042 l 208 1042 l 208 903 l 486 903 l 486 694 l 625 694 l 625 139 l 764 139 z m 625 139 l 347 139 l 347 347 l 208 347 l 208 903 l 69 903 l 69 139 l 208 139 l 208 0 l 625 0 z m 347 694 l 347 347 l 486 347 l 486 694 z "},"Õ":{"ha":833,"x_min":0,"x_max":0,"o":"m 417 1250 l 417 1389 l 278 1389 l 278 1250 z m 694 1250 l 694 1389 l 556 1389 l 556 1250 z m 278 1111 l 278 1250 l 139 1250 l 139 1111 z m 417 1111 l 556 1111 l 556 1250 l 417 1250 z m 208 903 l 625 903 l 625 1042 l 208 1042 z m 208 139 l 208 903 l 69 903 l 69 139 z m 764 903 l 625 903 l 625 139 l 764 139 z m 625 139 l 208 139 l 208 0 l 625 0 z "},"Ṍ":{"ha":833,"x_min":0,"x_max":0,"o":"m 417 1458 l 417 1597 l 278 1597 l 278 1458 z m 278 1319 l 278 1458 l 139 1458 l 139 1319 z m 486 1389 l 347 1389 l 347 1250 l 486 1250 z m 764 1389 l 625 1389 l 625 1250 l 764 1250 z m 208 1250 l 208 1111 l 347 1111 l 347 1250 z m 486 1250 l 486 1111 l 625 1111 l 625 1250 z m 208 903 l 625 903 l 625 1042 l 208 1042 z m 208 139 l 208 903 l 69 903 l 69 139 z m 625 903 l 625 139 l 764 139 l 764 903 z m 625 139 l 208 139 l 208 0 l 625 0 z "},"Œ":{"ha":1250,"x_min":0,"x_max":0,"o":"m 208 903 l 625 903 l 625 1042 l 208 1042 z m 1181 1042 l 764 1042 l 764 903 l 1181 903 z m 208 139 l 208 903 l 69 903 l 69 139 z m 625 903 l 625 139 l 764 139 l 764 486 l 1181 486 l 1181 625 l 764 625 l 764 903 z m 625 139 l 208 139 l 208 0 l 625 0 z m 764 0 l 1181 0 l 1181 139 l 764 139 z "},"P":{"ha":833,"x_min":0,"x_max":0,"o":"m 625 625 l 208 625 l 208 903 l 625 903 l 625 1042 l 69 1042 l 69 0 l 208 0 l 208 486 l 625 486 z m 764 903 l 625 903 l 625 625 l 764 625 z "},"Ƥ":{"ha":1007,"x_min":0,"x_max":0,"o":"m 243 1042 l 35 1042 l 35 903 l 243 903 z m 382 903 l 799 903 l 799 1042 l 382 1042 z m 799 625 l 382 625 l 382 903 l 243 903 l 243 0 l 382 0 l 382 486 l 799 486 z m 938 903 l 799 903 l 799 625 l 938 625 z "},"Þ":{"ha":833,"x_min":0,"x_max":0,"o":"m 625 417 l 208 417 l 208 694 l 625 694 l 625 833 l 208 833 l 208 1042 l 69 1042 l 69 0 l 208 0 l 208 278 l 625 278 z m 764 694 l 625 694 l 625 417 l 764 417 z "},"Q":{"ha":833,"x_min":0,"x_max":0,"o":"m 208 903 l 625 903 l 625 1042 l 208 1042 z m 208 139 l 208 903 l 69 903 l 69 139 z m 764 903 l 625 903 l 625 139 l 764 139 z m 486 139 l 486 278 l 347 278 l 347 139 l 208 139 l 208 0 l 347 0 l 347 -139 l 486 -139 l 486 0 l 625 0 l 625 139 z "},"R":{"ha":833,"x_min":0,"x_max":0,"o":"m 625 625 l 208 625 l 208 903 l 625 903 l 625 1042 l 69 1042 l 69 0 l 208 0 l 208 486 l 625 486 z m 764 903 l 625 903 l 625 625 l 764 625 z m 625 486 l 625 0 l 764 0 l 764 486 z "},"Ŕ":{"ha":833,"x_min":0,"x_max":0,"o":"m 590 1250 l 590 1389 l 451 1389 l 451 1250 z m 451 1111 l 451 1250 l 313 1250 l 313 1111 z m 625 625 l 208 625 l 208 903 l 625 903 l 625 1042 l 69 1042 l 69 0 l 208 0 l 208 486 l 625 486 z m 764 903 l 625 903 l 625 625 l 764 625 z m 625 486 l 625 0 l 764 0 l 764 486 z "},"Ř":{"ha":833,"x_min":0,"x_max":0,"o":"m 313 1250 l 313 1389 l 174 1389 l 174 1250 z m 590 1250 l 590 1389 l 451 1389 l 451 1250 z m 313 1111 l 451 1111 l 451 1250 l 313 1250 z m 625 625 l 208 625 l 208 903 l 625 903 l 625 1042 l 69 1042 l 69 0 l 208 0 l 208 486 l 625 486 z m 764 903 l 625 903 l 625 625 l 764 625 z m 625 486 l 625 0 l 764 0 l 764 486 z "},"Ŗ":{"ha":833,"x_min":0,"x_max":0,"o":"m 625 625 l 208 625 l 208 903 l 625 903 l 625 1042 l 69 1042 l 69 0 l 208 0 l 208 486 l 625 486 z m 764 903 l 625 903 l 625 625 l 764 625 z m 625 486 l 625 0 l 764 0 l 764 486 z m 347 -69 l 347 -278 l 486 -278 l 486 -69 z m 208 -278 l 208 -417 l 347 -417 l 347 -278 z "},"Ɍ":{"ha":938,"x_min":0,"x_max":0,"o":"m 729 625 l 313 625 l 313 903 l 729 903 l 729 1042 l 174 1042 l 174 625 l 35 625 l 35 486 l 174 486 l 174 0 l 313 0 l 313 486 l 729 486 z m 868 903 l 729 903 l 729 625 l 868 625 z m 729 486 l 729 0 l 868 0 l 868 486 z "},"Ɽ":{"ha":833,"x_min":0,"x_max":0,"o":"m 625 625 l 208 625 l 208 903 l 625 903 l 625 1042 l 69 1042 l 69 -139 l 208 -139 l 208 486 l 625 486 z m 764 903 l 625 903 l 625 625 l 764 625 z m 625 486 l 625 0 l 764 0 l 764 486 z m 208 -278 l 417 -278 l 417 -139 l 208 -139 z "},"S":{"ha":833,"x_min":0,"x_max":0,"o":"m 208 903 l 694 903 l 694 1042 l 208 1042 z m 208 625 l 208 903 l 69 903 l 69 625 z m 625 625 l 208 625 l 208 486 l 625 486 z m 764 486 l 625 486 l 625 139 l 764 139 z m 625 139 l 139 139 l 139 0 l 625 0 z "},"Ś":{"ha":833,"x_min":0,"x_max":0,"o":"m 625 1250 l 625 1389 l 486 1389 l 486 1250 z m 486 1111 l 486 1250 l 347 1250 l 347 1111 z m 208 903 l 694 903 l 694 1042 l 208 1042 z m 208 625 l 208 903 l 69 903 l 69 625 z m 625 625 l 208 625 l 208 486 l 625 486 z m 764 486 l 625 486 l 625 139 l 764 139 z m 625 139 l 139 139 l 139 0 l 625 0 z "},"Ꞌ":{"ha":278,"x_min":0,"x_max":0,"o":"m 208 1042 l 69 1042 l 69 278 l 208 278 z "},"Š":{"ha":833,"x_min":0,"x_max":0,"o":"m 347 1250 l 347 1389 l 208 1389 l 208 1250 z m 625 1250 l 625 1389 l 486 1389 l 486 1250 z m 347 1111 l 486 1111 l 486 1250 l 347 1250 z m 208 903 l 694 903 l 694 1042 l 208 1042 z m 208 625 l 208 903 l 69 903 l 69 625 z m 625 625 l 208 625 l 208 486 l 625 486 z m 764 486 l 625 486 l 625 139 l 764 139 z m 625 139 l 139 139 l 139 0 l 625 0 z "},"Ş":{"ha":833,"x_min":0,"x_max":0,"o":"m 208 903 l 694 903 l 694 1042 l 208 1042 z m 208 625 l 208 903 l 69 903 l 69 625 z m 625 625 l 208 625 l 208 486 l 625 486 z m 764 486 l 625 486 l 625 139 l 764 139 z m 625 139 l 139 139 l 139 0 l 347 0 l 347 -139 l 486 -139 l 486 0 l 625 0 z m 486 -278 l 625 -278 l 625 -139 l 486 -139 z m 347 -278 l 347 -417 l 486 -417 l 486 -278 z "},"Ș":{"ha":833,"x_min":0,"x_max":0,"o":"m 208 903 l 694 903 l 694 1042 l 208 1042 z m 208 625 l 208 903 l 69 903 l 69 625 z m 625 625 l 208 625 l 208 486 l 625 486 z m 764 486 l 625 486 l 625 139 l 764 139 z m 625 139 l 139 139 l 139 0 l 347 0 l 347 -208 l 486 -208 l 486 0 l 625 0 z m 208 -208 l 208 -347 l 347 -347 l 347 -208 z "},"Ṣ":{"ha":833,"x_min":0,"x_max":0,"o":"m 208 903 l 694 903 l 694 1042 l 208 1042 z m 208 625 l 208 903 l 69 903 l 69 625 z m 625 625 l 208 625 l 208 486 l 625 486 z m 764 486 l 625 486 l 625 139 l 764 139 z m 625 139 l 139 139 l 139 0 l 625 0 z m 347 -69 l 347 -208 l 486 -208 l 486 -69 z "},"Ə":{"ha":833,"x_min":0,"x_max":0,"o":"m 625 1042 l 139 1042 l 139 903 l 625 903 z m 764 903 l 625 903 l 625 556 l 69 556 l 69 139 l 208 139 l 208 417 l 625 417 l 625 139 l 764 139 z m 625 139 l 208 139 l 208 0 l 625 0 z "},"T":{"ha":764,"x_min":0,"x_max":0,"o":"m 729 1042 l 35 1042 l 35 903 l 313 903 l 313 0 l 451 0 l 451 903 l 729 903 z "},"Ŧ":{"ha":764,"x_min":0,"x_max":0,"o":"m 729 1042 l 35 1042 l 35 903 l 313 903 l 313 625 l 104 625 l 104 486 l 313 486 l 313 0 l 451 0 l 451 486 l 660 486 l 660 625 l 451 625 l 451 903 l 729 903 z "},"Ť":{"ha":764,"x_min":0,"x_max":0,"o":"m 313 1250 l 313 1389 l 174 1389 l 174 1250 z m 590 1250 l 590 1389 l 451 1389 l 451 1250 z m 313 1111 l 451 1111 l 451 1250 l 313 1250 z m 729 1042 l 35 1042 l 35 903 l 313 903 l 313 0 l 451 0 l 451 903 l 729 903 z "},"Ţ":{"ha":764,"x_min":0,"x_max":0,"o":"m 729 1042 l 35 1042 l 35 903 l 313 903 l 313 -139 l 451 -139 l 451 903 l 729 903 z m 451 -278 l 590 -278 l 590 -139 l 451 -139 z m 313 -278 l 313 -417 l 451 -417 l 451 -278 z "},"Ṱ":{"ha":764,"x_min":0,"x_max":0,"o":"m 729 1042 l 35 1042 l 35 903 l 313 903 l 313 0 l 451 0 l 451 903 l 729 903 z m 451 -69 l 313 -69 l 313 -208 l 451 -208 z m 174 -208 l 174 -347 l 313 -347 l 313 -208 z m 451 -208 l 451 -347 l 590 -347 l 590 -208 z "},"Ț":{"ha":764,"x_min":0,"x_max":0,"o":"m 729 1042 l 35 1042 l 35 903 l 313 903 l 313 0 l 451 0 l 451 903 l 729 903 z m 313 -69 l 313 -278 l 451 -278 l 451 -69 z m 174 -278 l 174 -417 l 313 -417 l 313 -278 z "},"Ṭ":{"ha":764,"x_min":0,"x_max":0,"o":"m 729 1042 l 35 1042 l 35 903 l 313 903 l 313 0 l 451 0 l 451 903 l 729 903 z m 313 -69 l 313 -208 l 451 -208 l 451 -69 z "},"Ƭ":{"ha":903,"x_min":0,"x_max":0,"o":"m 868 1042 l 174 1042 l 174 903 l 451 903 l 451 0 l 590 0 l 590 903 l 868 903 z m 35 903 l 35 694 l 174 694 l 174 903 z "},"Ṯ":{"ha":764,"x_min":0,"x_max":0,"o":"m 729 1042 l 35 1042 l 35 903 l 313 903 l 313 0 l 451 0 l 451 903 l 729 903 z m 729 -69 l 35 -69 l 35 -208 l 729 -208 z "},"Ʈ":{"ha":764,"x_min":0,"x_max":0,"o":"m 729 1042 l 35 1042 l 35 903 l 313 903 l 313 -139 l 451 -139 l 451 903 l 729 903 z m 451 -278 l 660 -278 l 660 -139 l 451 -139 z "},"U":{"ha":833,"x_min":0,"x_max":0,"o":"m 208 139 l 208 1042 l 69 1042 l 69 139 z m 764 1042 l 625 1042 l 625 139 l 764 139 z m 625 139 l 208 139 l 208 0 l 625 0 z "},"Ú":{"ha":833,"x_min":0,"x_max":0,"o":"m 625 1250 l 625 1389 l 486 1389 l 486 1250 z m 486 1111 l 486 1250 l 347 1250 l 347 1111 z m 208 139 l 208 1042 l 69 1042 l 69 139 z m 764 1042 l 625 1042 l 625 139 l 764 139 z m 625 139 l 208 139 l 208 0 l 625 0 z "},"Ʉ":{"ha":1042,"x_min":0,"x_max":0,"o":"m 1007 625 l 868 625 l 868 1042 l 729 1042 l 729 625 l 313 625 l 313 1042 l 174 1042 l 174 625 l 35 625 l 35 486 l 174 486 l 174 139 l 313 139 l 313 486 l 729 486 l 729 139 l 868 139 l 868 486 l 1007 486 z m 729 139 l 313 139 l 313 0 l 729 0 z "},"Ǔ":{"ha":833,"x_min":0,"x_max":0,"o":"m 347 1250 l 347 1389 l 208 1389 l 208 1250 z m 625 1250 l 625 1389 l 486 1389 l 486 1250 z m 347 1111 l 486 1111 l 486 1250 l 347 1250 z m 208 139 l 208 1042 l 69 1042 l 69 139 z m 764 1042 l 625 1042 l 625 139 l 764 139 z m 625 139 l 208 139 l 208 0 l 625 0 z "},"Û":{"ha":833,"x_min":0,"x_max":0,"o":"m 486 1250 l 486 1389 l 347 1389 l 347 1250 z m 347 1111 l 347 1250 l 208 1250 l 208 1111 z m 486 1111 l 625 1111 l 625 1250 l 486 1250 z m 208 139 l 208 1042 l 69 1042 l 69 139 z m 764 1042 l 625 1042 l 625 139 l 764 139 z m 625 139 l 208 139 l 208 0 l 625 0 z "},"Ü":{"ha":833,"x_min":0,"x_max":0,"o":"m 347 1111 l 347 1250 l 208 1250 l 208 1111 z m 625 1111 l 625 1250 l 486 1250 l 486 1111 z m 208 139 l 208 1042 l 69 1042 l 69 139 z m 764 1042 l 625 1042 l 625 139 l 764 139 z m 625 139 l 208 139 l 208 0 l 625 0 z "},"Ǘ":{"ha":833,"x_min":0,"x_max":0,"o":"m 625 1458 l 625 1597 l 486 1597 l 486 1458 z m 486 1319 l 486 1458 l 347 1458 l 347 1319 z m 347 1111 l 347 1250 l 208 1250 l 208 1111 z m 486 1250 l 486 1111 l 625 1111 l 625 1250 z m 208 139 l 208 1042 l 69 1042 l 69 139 z m 764 1042 l 625 1042 l 625 139 l 764 139 z m 625 139 l 208 139 l 208 0 l 625 0 z "},"Ǚ":{"ha":833,"x_min":0,"x_max":0,"o":"m 347 1458 l 347 1597 l 208 1597 l 208 1458 z m 625 1458 l 625 1597 l 486 1597 l 486 1458 z m 347 1319 l 486 1319 l 486 1458 l 347 1458 z m 347 1111 l 347 1250 l 208 1250 l 208 1111 z m 486 1250 l 486 1111 l 625 1111 l 625 1250 z m 208 139 l 208 1042 l 69 1042 l 69 139 z m 764 1042 l 625 1042 l 625 139 l 764 139 z m 625 139 l 208 139 l 208 0 l 625 0 z "},"Ǜ":{"ha":833,"x_min":0,"x_max":0,"o":"m 347 1458 l 347 1597 l 208 1597 l 208 1458 z m 347 1319 l 486 1319 l 486 1458 l 347 1458 z m 347 1111 l 347 1250 l 208 1250 l 208 1111 z m 486 1250 l 486 1111 l 625 1111 l 625 1250 z m 208 139 l 208 1042 l 69 1042 l 69 139 z m 764 1042 l 625 1042 l 625 139 l 764 139 z m 625 139 l 208 139 l 208 0 l 625 0 z "},"Ǖ":{"ha":833,"x_min":0,"x_max":0,"o":"m 208 1319 l 625 1319 l 625 1458 l 208 1458 z m 347 1111 l 347 1250 l 208 1250 l 208 1111 z m 486 1250 l 486 1111 l 625 1111 l 625 1250 z m 208 139 l 208 1042 l 69 1042 l 69 139 z m 764 1042 l 625 1042 l 625 139 l 764 139 z m 625 139 l 208 139 l 208 0 l 625 0 z "},"Ụ":{"ha":833,"x_min":0,"x_max":0,"o":"m 208 139 l 208 1042 l 69 1042 l 69 139 z m 764 1042 l 625 1042 l 625 139 l 764 139 z m 625 139 l 208 139 l 208 0 l 625 0 z m 347 -69 l 347 -208 l 486 -208 l 486 -69 z "},"Ù":{"ha":833,"x_min":0,"x_max":0,"o":"m 347 1250 l 347 1389 l 208 1389 l 208 1250 z m 347 1111 l 486 1111 l 486 1250 l 347 1250 z m 208 139 l 208 1042 l 69 1042 l 69 139 z m 764 1042 l 625 1042 l 625 139 l 764 139 z m 625 139 l 208 139 l 208 0 l 625 0 z "},"Ủ":{"ha":833,"x_min":0,"x_max":0,"o":"m 347 1250 l 347 1111 l 486 1111 l 486 1389 l 208 1389 l 208 1250 z m 208 139 l 208 1042 l 69 1042 l 69 139 z m 764 1042 l 625 1042 l 625 139 l 764 139 z m 625 139 l 208 139 l 208 0 l 625 0 z "},"Ư":{"ha":1007,"x_min":0,"x_max":0,"o":"m 208 139 l 208 1042 l 69 1042 l 69 139 z m 972 1042 l 764 1042 l 764 903 l 972 903 z m 625 903 l 625 139 l 764 139 l 764 903 z m 625 139 l 208 139 l 208 0 l 625 0 z "},"Ứ":{"ha":1007,"x_min":0,"x_max":0,"o":"m 660 1250 l 660 1389 l 521 1389 l 521 1250 z m 521 1111 l 521 1250 l 382 1250 l 382 1111 z m 208 139 l 208 1042 l 69 1042 l 69 139 z m 972 1042 l 764 1042 l 764 903 l 972 903 z m 625 903 l 625 139 l 764 139 l 764 903 z m 625 139 l 208 139 l 208 0 l 625 0 z "},"Ự":{"ha":1007,"x_min":0,"x_max":0,"o":"m 208 139 l 208 1042 l 69 1042 l 69 139 z m 972 1042 l 764 1042 l 764 903 l 972 903 z m 625 903 l 625 139 l 764 139 l 764 903 z m 625 139 l 208 139 l 208 0 l 625 0 z m 347 -69 l 347 -208 l 486 -208 l 486 -69 z "},"Ừ":{"ha":1007,"x_min":0,"x_max":0,"o":"m 382 1250 l 382 1389 l 243 1389 l 243 1250 z m 382 1111 l 521 1111 l 521 1250 l 382 1250 z m 208 139 l 208 1042 l 69 1042 l 69 139 z m 972 1042 l 764 1042 l 764 903 l 972 903 z m 625 903 l 625 139 l 764 139 l 764 903 z m 625 139 l 208 139 l 208 0 l 625 0 z "},"Ử":{"ha":1007,"x_min":0,"x_max":0,"o":"m 382 1250 l 382 1111 l 521 1111 l 521 1389 l 243 1389 l 243 1250 z m 208 139 l 208 1042 l 69 1042 l 69 139 z m 972 1042 l 764 1042 l 764 903 l 972 903 z m 625 903 l 625 139 l 764 139 l 764 903 z m 625 139 l 208 139 l 208 0 l 625 0 z "},"Ữ":{"ha":1007,"x_min":0,"x_max":0,"o":"m 486 1250 l 486 1389 l 347 1389 l 347 1250 z m 764 1250 l 764 1389 l 625 1389 l 625 1250 z m 347 1111 l 347 1250 l 208 1250 l 208 1111 z m 486 1111 l 625 1111 l 625 1250 l 486 1250 z m 208 139 l 208 1042 l 69 1042 l 69 139 z m 972 1042 l 764 1042 l 764 903 l 972 903 z m 625 903 l 625 139 l 764 139 l 764 903 z m 625 139 l 208 139 l 208 0 l 625 0 z "},"Ű":{"ha":833,"x_min":0,"x_max":0,"o":"m 347 1111 l 347 1389 l 208 1389 l 208 1111 z m 625 1111 l 625 1389 l 486 1389 l 486 1111 z m 208 139 l 208 1042 l 69 1042 l 69 139 z m 764 1042 l 625 1042 l 625 139 l 764 139 z m 625 139 l 208 139 l 208 0 l 625 0 z "},"Ū":{"ha":833,"x_min":0,"x_max":0,"o":"m 208 1111 l 625 1111 l 625 1250 l 208 1250 z m 208 139 l 208 1042 l 69 1042 l 69 139 z m 764 1042 l 625 1042 l 625 139 l 764 139 z m 625 139 l 208 139 l 208 0 l 625 0 z "},"Ų":{"ha":833,"x_min":0,"x_max":0,"o":"m 208 139 l 208 1042 l 69 1042 l 69 139 z m 764 1042 l 625 1042 l 625 139 l 764 139 z m 625 139 l 208 139 l 208 0 l 347 0 l 347 -139 l 486 -139 l 486 0 l 625 0 z m 208 -139 l 208 -278 l 347 -278 l 347 -139 z m 347 -417 l 486 -417 l 486 -278 l 347 -278 z "},"Ʊ":{"ha":1042,"x_min":0,"x_max":0,"o":"m 451 764 l 451 1042 l 104 1042 l 104 903 l 313 903 l 313 764 z m 729 903 l 938 903 l 938 1042 l 590 1042 l 590 764 l 729 764 z m 313 556 l 313 764 l 174 764 l 174 556 z m 868 556 l 868 764 l 729 764 l 729 556 z m 174 347 l 174 556 l 35 556 l 35 347 z m 1007 556 l 868 556 l 868 347 l 1007 347 z m 313 139 l 313 347 l 174 347 l 174 139 z m 729 347 l 729 139 l 868 139 l 868 347 z m 729 139 l 313 139 l 313 0 l 729 0 z "},"Ů":{"ha":833,"x_min":0,"x_max":0,"o":"m 486 1389 l 486 1528 l 347 1528 l 347 1389 z m 347 1250 l 347 1389 l 208 1389 l 208 1250 z m 486 1250 l 625 1250 l 625 1389 l 486 1389 z m 347 1250 l 347 1111 l 486 1111 l 486 1250 z m 208 139 l 208 1042 l 69 1042 l 69 139 z m 764 1042 l 625 1042 l 625 139 l 764 139 z m 625 139 l 208 139 l 208 0 l 625 0 z "},"Ũ":{"ha":833,"x_min":0,"x_max":0,"o":"m 417 1250 l 417 1389 l 278 1389 l 278 1250 z m 694 1250 l 694 1389 l 556 1389 l 556 1250 z m 278 1111 l 278 1250 l 139 1250 l 139 1111 z m 417 1111 l 556 1111 l 556 1250 l 417 1250 z m 208 139 l 208 1042 l 69 1042 l 69 139 z m 764 1042 l 625 1042 l 625 139 l 764 139 z m 625 139 l 208 139 l 208 0 l 625 0 z "},"V":{"ha":833,"x_min":0,"x_max":0,"o":"m 208 417 l 208 1042 l 69 1042 l 69 417 z m 764 1042 l 625 1042 l 625 417 l 764 417 z m 347 208 l 347 417 l 208 417 l 208 208 z m 486 417 l 486 208 l 625 208 l 625 417 z m 347 208 l 347 0 l 486 0 l 486 208 z "},"Ʋ":{"ha":938,"x_min":0,"x_max":0,"o":"m 208 486 l 208 1042 l 69 1042 l 69 486 z m 764 1042 l 556 1042 l 556 903 l 764 903 z m 903 903 l 764 903 l 764 694 l 903 694 z m 625 694 l 625 417 l 764 417 l 764 694 z m 347 208 l 347 486 l 208 486 l 208 208 z m 486 417 l 486 208 l 625 208 l 625 417 z m 347 208 l 347 0 l 486 0 l 486 208 z "},"Ʌ":{"ha":833,"x_min":0,"x_max":0,"o":"m 486 833 l 486 1042 l 347 1042 l 347 833 z m 208 833 l 208 625 l 347 625 l 347 833 z m 625 625 l 625 833 l 486 833 l 486 625 z m 69 625 l 69 0 l 208 0 l 208 625 z m 764 625 l 625 625 l 625 0 l 764 0 z "},"W":{"ha":972,"x_min":0,"x_max":0,"o":"m 208 139 l 208 1042 l 69 1042 l 69 139 z m 903 1042 l 764 1042 l 764 139 l 903 139 z m 556 139 l 556 347 l 417 347 l 417 139 z m 417 139 l 208 139 l 208 0 l 417 0 z m 764 139 l 556 139 l 556 0 l 764 0 z "},"Ẃ":{"ha":972,"x_min":0,"x_max":0,"o":"m 694 1250 l 694 1389 l 556 1389 l 556 1250 z m 556 1111 l 556 1250 l 417 1250 l 417 1111 z m 208 139 l 208 1042 l 69 1042 l 69 139 z m 903 1042 l 764 1042 l 764 139 l 903 139 z m 556 139 l 556 347 l 417 347 l 417 139 z m 417 139 l 208 139 l 208 0 l 417 0 z m 764 139 l 556 139 l 556 0 l 764 0 z "},"Ŵ":{"ha":972,"x_min":0,"x_max":0,"o":"m 556 1250 l 556 1389 l 417 1389 l 417 1250 z m 417 1111 l 417 1250 l 278 1250 l 278 1111 z m 556 1111 l 694 1111 l 694 1250 l 556 1250 z m 208 139 l 208 1042 l 69 1042 l 69 139 z m 903 1042 l 764 1042 l 764 139 l 903 139 z m 556 139 l 556 347 l 417 347 l 417 139 z m 417 139 l 208 139 l 208 0 l 417 0 z m 764 139 l 556 139 l 556 0 l 764 0 z "},"Ẅ":{"ha":972,"x_min":0,"x_max":0,"o":"m 417 1111 l 417 1250 l 278 1250 l 278 1111 z m 694 1111 l 694 1250 l 556 1250 l 556 1111 z m 208 139 l 208 1042 l 69 1042 l 69 139 z m 903 1042 l 764 1042 l 764 139 l 903 139 z m 556 139 l 556 347 l 417 347 l 417 139 z m 417 139 l 208 139 l 208 0 l 417 0 z m 764 139 l 556 139 l 556 0 l 764 0 z "},"Ẁ":{"ha":972,"x_min":0,"x_max":0,"o":"m 417 1250 l 417 1389 l 278 1389 l 278 1250 z m 417 1111 l 556 1111 l 556 1250 l 417 1250 z m 208 139 l 208 1042 l 69 1042 l 69 139 z m 903 1042 l 764 1042 l 764 139 l 903 139 z m 556 139 l 556 347 l 417 347 l 417 139 z m 417 139 l 208 139 l 208 0 l 417 0 z m 764 139 l 556 139 l 556 0 l 764 0 z "},"Ⱳ":{"ha":1146,"x_min":0,"x_max":0,"o":"m 208 139 l 208 1042 l 69 1042 l 69 139 z m 1111 1042 l 903 1042 l 903 903 l 1111 903 z m 764 903 l 764 139 l 903 139 l 903 903 z m 556 139 l 556 347 l 417 347 l 417 139 z m 417 139 l 208 139 l 208 0 l 417 0 z m 764 139 l 556 139 l 556 0 l 764 0 z "},"X":{"ha":833,"x_min":0,"x_max":0,"o":"m 208 625 l 208 1042 l 69 1042 l 69 625 z m 764 1042 l 625 1042 l 625 625 l 764 625 z m 625 625 l 208 625 l 208 486 l 625 486 z m 69 486 l 69 0 l 208 0 l 208 486 z m 625 486 l 625 0 l 764 0 l 764 486 z "},"Y":{"ha":833,"x_min":0,"x_max":0,"o":"m 208 625 l 208 1042 l 69 1042 l 69 625 z m 764 1042 l 625 1042 l 625 625 l 764 625 z m 625 625 l 208 625 l 208 486 l 347 486 l 347 0 l 486 0 l 486 486 l 625 486 z "},"Ý":{"ha":833,"x_min":0,"x_max":0,"o":"m 625 1250 l 625 1389 l 486 1389 l 486 1250 z m 486 1111 l 486 1250 l 347 1250 l 347 1111 z m 208 625 l 208 1042 l 69 1042 l 69 625 z m 764 1042 l 625 1042 l 625 625 l 764 625 z m 625 625 l 208 625 l 208 486 l 347 486 l 347 0 l 486 0 l 486 486 l 625 486 z "},"Ŷ":{"ha":833,"x_min":0,"x_max":0,"o":"m 486 1250 l 486 1389 l 347 1389 l 347 1250 z m 347 1111 l 347 1250 l 208 1250 l 208 1111 z m 486 1111 l 625 1111 l 625 1250 l 486 1250 z m 208 625 l 208 1042 l 69 1042 l 69 625 z m 764 1042 l 625 1042 l 625 625 l 764 625 z m 625 625 l 208 625 l 208 486 l 347 486 l 347 0 l 486 0 l 486 486 l 625 486 z "},"Ÿ":{"ha":833,"x_min":0,"x_max":0,"o":"m 347 1111 l 347 1250 l 208 1250 l 208 1111 z m 625 1111 l 625 1250 l 486 1250 l 486 1111 z m 208 625 l 208 1042 l 69 1042 l 69 625 z m 764 1042 l 625 1042 l 625 625 l 764 625 z m 625 625 l 208 625 l 208 486 l 347 486 l 347 0 l 486 0 l 486 486 l 625 486 z "},"Ỵ":{"ha":833,"x_min":0,"x_max":0,"o":"m 208 625 l 208 1042 l 69 1042 l 69 625 z m 764 1042 l 625 1042 l 625 625 l 764 625 z m 625 625 l 208 625 l 208 486 l 347 486 l 347 0 l 486 0 l 486 486 l 625 486 z m 347 -69 l 347 -208 l 486 -208 l 486 -69 z "},"Ỳ":{"ha":833,"x_min":0,"x_max":0,"o":"m 347 1250 l 347 1389 l 208 1389 l 208 1250 z m 347 1111 l 486 1111 l 486 1250 l 347 1250 z m 208 625 l 208 1042 l 69 1042 l 69 625 z m 764 1042 l 625 1042 l 625 625 l 764 625 z m 625 625 l 208 625 l 208 486 l 347 486 l 347 0 l 486 0 l 486 486 l 625 486 z "},"Ƴ":{"ha":1007,"x_min":0,"x_max":0,"o":"m 208 625 l 208 1042 l 69 1042 l 69 625 z m 972 1042 l 764 1042 l 764 903 l 972 903 z m 625 903 l 625 625 l 764 625 l 764 903 z m 625 625 l 208 625 l 208 486 l 347 486 l 347 0 l 486 0 l 486 486 l 625 486 z "},"Ỷ":{"ha":833,"x_min":0,"x_max":0,"o":"m 347 1250 l 347 1111 l 486 1111 l 486 1389 l 208 1389 l 208 1250 z m 208 625 l 208 1042 l 69 1042 l 69 625 z m 764 1042 l 625 1042 l 625 625 l 764 625 z m 625 625 l 208 625 l 208 486 l 347 486 l 347 0 l 486 0 l 486 486 l 625 486 z "},"Ỹ":{"ha":833,"x_min":0,"x_max":0,"o":"m 417 1250 l 417 1389 l 278 1389 l 278 1250 z m 694 1250 l 694 1389 l 556 1389 l 556 1250 z m 278 1111 l 278 1250 l 139 1250 l 139 1111 z m 417 1111 l 556 1111 l 556 1250 l 417 1250 z m 208 625 l 208 1042 l 69 1042 l 69 625 z m 764 1042 l 625 1042 l 625 625 l 764 625 z m 625 625 l 208 625 l 208 486 l 347 486 l 347 0 l 486 0 l 486 486 l 625 486 z "},"Z":{"ha":833,"x_min":0,"x_max":0,"o":"m 764 1042 l 69 1042 l 69 903 l 625 903 l 625 764 l 764 764 z m 486 764 l 486 625 l 625 625 l 625 764 z m 347 625 l 347 417 l 486 417 l 486 625 z m 208 417 l 208 278 l 347 278 l 347 417 z m 69 278 l 69 0 l 764 0 l 764 139 l 208 139 l 208 278 z "},"Ź":{"ha":833,"x_min":0,"x_max":0,"o":"m 625 1250 l 625 1389 l 486 1389 l 486 1250 z m 486 1111 l 486 1250 l 347 1250 l 347 1111 z m 764 1042 l 69 1042 l 69 903 l 625 903 l 625 764 l 764 764 z m 486 764 l 486 625 l 625 625 l 625 764 z m 347 625 l 347 417 l 486 417 l 486 625 z m 208 417 l 208 278 l 347 278 l 347 417 z m 69 278 l 69 0 l 764 0 l 764 139 l 208 139 l 208 278 z "},"Ž":{"ha":833,"x_min":0,"x_max":0,"o":"m 347 1250 l 347 1389 l 208 1389 l 208 1250 z m 625 1250 l 625 1389 l 486 1389 l 486 1250 z m 347 1111 l 486 1111 l 486 1250 l 347 1250 z m 764 1042 l 69 1042 l 69 903 l 625 903 l 625 764 l 764 764 z m 486 764 l 486 625 l 625 625 l 625 764 z m 347 625 l 347 417 l 486 417 l 486 625 z m 208 417 l 208 278 l 347 278 l 347 417 z m 69 278 l 69 0 l 764 0 l 764 139 l 208 139 l 208 278 z "},"Ż":{"ha":833,"x_min":0,"x_max":0,"o":"m 486 1111 l 486 1250 l 347 1250 l 347 1111 z m 764 1042 l 69 1042 l 69 903 l 625 903 l 625 764 l 764 764 z m 486 764 l 486 625 l 625 625 l 625 764 z m 347 625 l 347 417 l 486 417 l 486 625 z m 208 417 l 208 278 l 347 278 l 347 417 z m 69 278 l 69 0 l 764 0 l 764 139 l 208 139 l 208 278 z "},"Ẓ":{"ha":833,"x_min":0,"x_max":0,"o":"m 764 1042 l 69 1042 l 69 903 l 625 903 l 625 764 l 764 764 z m 486 764 l 486 625 l 625 625 l 625 764 z m 347 625 l 347 417 l 486 417 l 486 625 z m 208 417 l 208 278 l 347 278 l 347 417 z m 69 278 l 69 0 l 764 0 l 764 139 l 208 139 l 208 278 z m 347 -69 l 347 -208 l 486 -208 l 486 -69 z "},"ʙ":{"ha":694,"x_min":0,"x_max":0,"o":"m 486 486 l 208 486 l 208 625 l 486 625 l 486 764 l 69 764 l 69 0 l 486 0 l 486 139 l 208 139 l 208 347 l 486 347 z m 625 625 l 486 625 l 486 486 l 625 486 z m 486 347 l 486 139 l 625 139 l 625 347 z "},"ɢ":{"ha":694,"x_min":0,"x_max":0,"o":"m 208 625 l 486 625 l 486 764 l 208 764 z m 208 139 l 208 625 l 69 625 l 69 139 z m 625 486 l 347 486 l 347 347 l 486 347 l 486 139 l 625 139 z m 486 139 l 208 139 l 208 0 l 486 0 z "},"ʛ":{"ha":694,"x_min":0,"x_max":0,"o":"m 625 972 l 486 972 l 486 764 l 625 764 z m 486 764 l 208 764 l 208 625 l 486 625 z m 69 625 l 69 139 l 208 139 l 208 625 z m 625 139 l 625 486 l 347 486 l 347 347 l 486 347 l 486 139 z m 208 0 l 486 0 l 486 139 l 208 139 z "},"ʜ":{"ha":694,"x_min":0,"x_max":0,"o":"m 625 764 l 486 764 l 486 486 l 208 486 l 208 764 l 69 764 l 69 0 l 208 0 l 208 347 l 486 347 l 486 0 l 625 0 z "},"ɪ":{"ha":278,"x_min":0,"x_max":0,"o":"m 208 764 l 69 764 l 69 0 l 208 0 z "},"ʟ":{"ha":521,"x_min":0,"x_max":0,"o":"m 486 139 l 208 139 l 208 764 l 69 764 l 69 0 l 486 0 z "},"ɴ":{"ha":833,"x_min":0,"x_max":0,"o":"m 347 556 l 347 764 l 69 764 l 69 0 l 208 0 l 208 556 z m 764 764 l 625 764 l 625 208 l 486 208 l 486 0 l 764 0 z m 486 208 l 486 556 l 347 556 l 347 208 z "},"ɶ":{"ha":1042,"x_min":0,"x_max":0,"o":"m 208 625 l 486 625 l 486 764 l 208 764 z m 972 764 l 625 764 l 625 625 l 972 625 z m 208 139 l 208 625 l 69 625 l 69 139 z m 486 625 l 486 139 l 625 139 l 625 313 l 972 313 l 972 451 l 625 451 l 625 625 z m 486 139 l 208 139 l 208 0 l 486 0 z m 625 0 l 972 0 l 972 139 l 625 139 z "},"ʀ":{"ha":694,"x_min":0,"x_max":0,"o":"m 486 417 l 208 417 l 208 625 l 486 625 l 486 764 l 69 764 l 69 0 l 208 0 l 208 278 l 486 278 z m 625 625 l 486 625 l 486 417 l 625 417 z m 486 278 l 486 0 l 625 0 l 625 278 z "},"ʁ":{"ha":694,"x_min":0,"x_max":0,"o":"m 486 486 l 208 486 l 208 764 l 69 764 l 69 0 l 486 0 l 486 139 l 208 139 l 208 347 l 486 347 z m 625 764 l 486 764 l 486 486 l 625 486 z m 486 347 l 486 139 l 625 139 l 625 347 z "},"ʏ":{"ha":694,"x_min":0,"x_max":0,"o":"m 208 486 l 208 764 l 69 764 l 69 486 z m 625 764 l 486 764 l 486 486 l 208 486 l 208 347 l 486 347 l 486 0 l 625 0 z "},"a":{"ha":660,"x_min":0,"x_max":0,"o":"m 451 694 l 104 694 l 104 556 l 451 556 z m 590 556 l 451 556 l 451 417 l 174 417 l 174 278 l 451 278 l 451 139 l 174 139 l 174 0 l 590 0 z m 174 278 l 35 278 l 35 139 l 174 139 z "},"á":{"ha":660,"x_min":0,"x_max":0,"o":"m 521 903 l 521 1042 l 382 1042 l 382 903 z m 382 764 l 382 903 l 243 903 l 243 764 z m 451 694 l 104 694 l 104 556 l 451 556 z m 590 556 l 451 556 l 451 417 l 174 417 l 174 278 l 451 278 l 451 139 l 174 139 l 174 0 l 590 0 z m 174 278 l 35 278 l 35 139 l 174 139 z "},"ă":{"ha":660,"x_min":0,"x_max":0,"o":"m 174 1042 l 35 1042 l 35 903 l 174 903 z m 590 1042 l 451 1042 l 451 903 l 590 903 z m 451 903 l 174 903 l 174 764 l 451 764 z m 451 694 l 104 694 l 104 556 l 451 556 z m 451 556 l 451 417 l 174 417 l 174 278 l 451 278 l 451 139 l 174 139 l 174 0 l 590 0 l 590 556 z m 174 278 l 35 278 l 35 139 l 174 139 z "},"ắ":{"ha":660,"x_min":0,"x_max":0,"o":"m 521 1111 l 521 1250 l 382 1250 l 382 1111 z m 382 972 l 382 1111 l 243 1111 l 243 972 z m 174 1042 l 35 1042 l 35 903 l 174 903 z m 590 1042 l 451 1042 l 451 903 l 590 903 z m 451 903 l 174 903 l 174 764 l 451 764 z m 451 694 l 104 694 l 104 556 l 451 556 z m 451 556 l 451 417 l 174 417 l 174 278 l 451 278 l 451 139 l 174 139 l 174 0 l 590 0 l 590 556 z m 174 278 l 35 278 l 35 139 l 174 139 z "},"ặ":{"ha":660,"x_min":0,"x_max":0,"o":"m 174 1042 l 35 1042 l 35 903 l 174 903 z m 590 1042 l 451 1042 l 451 903 l 590 903 z m 451 903 l 174 903 l 174 764 l 451 764 z m 451 694 l 104 694 l 104 556 l 451 556 z m 451 556 l 451 417 l 174 417 l 174 278 l 451 278 l 451 139 l 174 139 l 174 0 l 590 0 l 590 556 z m 174 278 l 35 278 l 35 139 l 174 139 z m 243 -69 l 243 -208 l 382 -208 l 382 -69 z "},"ằ":{"ha":660,"x_min":0,"x_max":0,"o":"m 243 1111 l 243 1250 l 104 1250 l 104 1111 z m 243 972 l 382 972 l 382 1111 l 243 1111 z m 174 1042 l 35 1042 l 35 903 l 174 903 z m 590 1042 l 451 1042 l 451 903 l 590 903 z m 451 903 l 174 903 l 174 764 l 451 764 z m 451 694 l 104 694 l 104 556 l 451 556 z m 451 556 l 451 417 l 174 417 l 174 278 l 451 278 l 451 139 l 174 139 l 174 0 l 590 0 l 590 556 z m 174 278 l 35 278 l 35 139 l 174 139 z "},"ẳ":{"ha":660,"x_min":0,"x_max":0,"o":"m 243 1111 l 243 972 l 382 972 l 382 1250 l 104 1250 l 104 1111 z m 174 1042 l 35 1042 l 35 903 l 174 903 z m 590 1042 l 451 1042 l 451 903 l 590 903 z m 451 903 l 174 903 l 174 764 l 451 764 z m 451 694 l 104 694 l 104 556 l 451 556 z m 451 556 l 451 417 l 174 417 l 174 278 l 451 278 l 451 139 l 174 139 l 174 0 l 590 0 l 590 556 z m 174 278 l 35 278 l 35 139 l 174 139 z "},"ẵ":{"ha":694,"x_min":0,"x_max":0,"o":"m 313 1111 l 313 1250 l 174 1250 l 174 1111 z m 590 1111 l 590 1250 l 451 1250 l 451 1111 z m 174 972 l 174 1111 l 35 1111 l 35 972 z m 313 972 l 451 972 l 451 1111 l 313 1111 z m 660 1042 l 521 1042 l 521 903 l 660 903 z m 521 903 l 104 903 l 104 764 l 521 764 z m 451 694 l 104 694 l 104 556 l 451 556 z m 451 556 l 451 417 l 174 417 l 174 278 l 451 278 l 451 139 l 174 139 l 174 0 l 590 0 l 590 556 z m 174 278 l 35 278 l 35 139 l 174 139 z "},"ǎ":{"ha":660,"x_min":0,"x_max":0,"o":"m 243 903 l 243 1042 l 104 1042 l 104 903 z m 521 903 l 521 1042 l 382 1042 l 382 903 z m 243 764 l 382 764 l 382 903 l 243 903 z m 451 694 l 104 694 l 104 556 l 451 556 z m 590 556 l 451 556 l 451 417 l 174 417 l 174 278 l 451 278 l 451 139 l 174 139 l 174 0 l 590 0 z m 174 278 l 35 278 l 35 139 l 174 139 z "},"â":{"ha":660,"x_min":0,"x_max":0,"o":"m 382 903 l 382 1042 l 243 1042 l 243 903 z m 243 764 l 243 903 l 104 903 l 104 764 z m 382 764 l 521 764 l 521 903 l 382 903 z m 451 694 l 104 694 l 104 556 l 451 556 z m 590 556 l 451 556 l 451 417 l 174 417 l 174 278 l 451 278 l 451 139 l 174 139 l 174 0 l 590 0 z m 174 278 l 35 278 l 35 139 l 174 139 z "},"ấ":{"ha":694,"x_min":0,"x_max":0,"o":"m 660 1250 l 521 1250 l 521 1111 l 660 1111 z m 382 1111 l 382 972 l 521 972 l 521 1111 z m 313 903 l 313 1042 l 174 1042 l 174 903 z m 174 764 l 174 903 l 35 903 l 35 764 z m 313 764 l 451 764 l 451 903 l 313 903 z m 451 694 l 104 694 l 104 556 l 451 556 z m 451 556 l 451 417 l 174 417 l 174 278 l 451 278 l 451 139 l 174 139 l 174 0 l 590 0 l 590 556 z m 174 278 l 35 278 l 35 139 l 174 139 z "},"ậ":{"ha":660,"x_min":0,"x_max":0,"o":"m 382 903 l 382 1042 l 243 1042 l 243 903 z m 243 764 l 243 903 l 104 903 l 104 764 z m 382 764 l 521 764 l 521 903 l 382 903 z m 451 694 l 104 694 l 104 556 l 451 556 z m 590 556 l 451 556 l 451 417 l 174 417 l 174 278 l 451 278 l 451 139 l 174 139 l 174 0 l 590 0 z m 174 278 l 35 278 l 35 139 l 174 139 z m 243 -69 l 243 -208 l 382 -208 l 382 -69 z "},"ầ":{"ha":660,"x_min":0,"x_max":0,"o":"m 451 1250 l 313 1250 l 313 1111 l 451 1111 z m 590 1111 l 451 1111 l 451 972 l 590 972 z m 313 903 l 313 1042 l 174 1042 l 174 903 z m 174 764 l 174 903 l 35 903 l 35 764 z m 313 764 l 451 764 l 451 903 l 313 903 z m 451 694 l 104 694 l 104 556 l 451 556 z m 451 556 l 451 417 l 174 417 l 174 278 l 451 278 l 451 139 l 174 139 l 174 0 l 590 0 l 590 556 z m 174 278 l 35 278 l 35 139 l 174 139 z "},"ẩ":{"ha":660,"x_min":0,"x_max":0,"o":"m 590 1250 l 313 1250 l 313 1111 l 451 1111 l 451 972 l 590 972 z m 313 903 l 313 1042 l 174 1042 l 174 903 z m 174 764 l 174 903 l 35 903 l 35 764 z m 313 764 l 451 764 l 451 903 l 313 903 z m 451 694 l 104 694 l 104 556 l 451 556 z m 451 556 l 451 417 l 174 417 l 174 278 l 451 278 l 451 139 l 174 139 l 174 0 l 590 0 l 590 556 z m 174 278 l 35 278 l 35 139 l 174 139 z "},"ẫ":{"ha":660,"x_min":0,"x_max":0,"o":"m 313 1181 l 174 1181 l 174 1042 l 313 1042 z m 590 1181 l 451 1181 l 451 1042 l 590 1042 z m 35 1042 l 35 764 l 174 764 l 174 1042 z m 313 1042 l 313 764 l 451 764 l 451 1042 z m 451 694 l 104 694 l 104 556 l 451 556 z m 451 556 l 451 417 l 174 417 l 174 278 l 451 278 l 451 139 l 174 139 l 174 0 l 590 0 l 590 556 z m 174 278 l 35 278 l 35 139 l 174 139 z "},"ä":{"ha":660,"x_min":0,"x_max":0,"o":"m 243 764 l 243 903 l 104 903 l 104 764 z m 521 764 l 521 903 l 382 903 l 382 764 z m 451 694 l 104 694 l 104 556 l 451 556 z m 590 556 l 451 556 l 451 417 l 174 417 l 174 278 l 451 278 l 451 139 l 174 139 l 174 0 l 590 0 z m 174 278 l 35 278 l 35 139 l 174 139 z "},"ǟ":{"ha":660,"x_min":0,"x_max":0,"o":"m 104 972 l 521 972 l 521 1111 l 104 1111 z m 243 764 l 243 903 l 104 903 l 104 764 z m 382 903 l 382 764 l 521 764 l 521 903 z m 451 694 l 104 694 l 104 556 l 451 556 z m 590 556 l 451 556 l 451 417 l 174 417 l 174 278 l 451 278 l 451 139 l 174 139 l 174 0 l 590 0 z m 174 278 l 35 278 l 35 139 l 174 139 z "},"ạ":{"ha":660,"x_min":0,"x_max":0,"o":"m 451 694 l 104 694 l 104 556 l 451 556 z m 590 556 l 451 556 l 451 417 l 174 417 l 174 278 l 451 278 l 451 139 l 174 139 l 174 0 l 590 0 z m 174 278 l 35 278 l 35 139 l 174 139 z m 243 -69 l 243 -208 l 382 -208 l 382 -69 z "},"à":{"ha":660,"x_min":0,"x_max":0,"o":"m 243 903 l 243 1042 l 104 1042 l 104 903 z m 243 764 l 382 764 l 382 903 l 243 903 z m 451 694 l 104 694 l 104 556 l 451 556 z m 590 556 l 451 556 l 451 417 l 174 417 l 174 278 l 451 278 l 451 139 l 174 139 l 174 0 l 590 0 z m 174 278 l 35 278 l 35 139 l 174 139 z "},"ả":{"ha":660,"x_min":0,"x_max":0,"o":"m 243 903 l 243 764 l 382 764 l 382 1042 l 104 1042 l 104 903 z m 451 694 l 104 694 l 104 556 l 451 556 z m 590 556 l 451 556 l 451 417 l 174 417 l 174 278 l 451 278 l 451 139 l 174 139 l 174 0 l 590 0 z m 174 278 l 35 278 l 35 139 l 174 139 z "},"ɑ":{"ha":694,"x_min":0,"x_max":0,"o":"m 208 556 l 486 556 l 486 694 l 208 694 z m 208 139 l 208 556 l 69 556 l 69 139 z m 625 556 l 486 556 l 486 139 l 208 139 l 208 0 l 625 0 z "},"ɒ":{"ha":694,"x_min":0,"x_max":0,"o":"m 208 556 l 486 556 l 486 694 l 208 694 z m 486 139 l 208 139 l 208 556 l 69 556 l 69 0 l 486 0 z m 625 556 l 486 556 l 486 139 l 625 139 z "},"ā":{"ha":660,"x_min":0,"x_max":0,"o":"m 104 764 l 521 764 l 521 903 l 104 903 z m 451 694 l 104 694 l 104 556 l 451 556 z m 590 556 l 451 556 l 451 417 l 174 417 l 174 278 l 451 278 l 451 139 l 174 139 l 174 0 l 590 0 z m 174 278 l 35 278 l 35 139 l 174 139 z "},"ą":{"ha":660,"x_min":0,"x_max":0,"o":"m 451 694 l 104 694 l 104 556 l 451 556 z m 590 556 l 451 556 l 451 417 l 174 417 l 174 278 l 451 278 l 451 139 l 174 139 l 174 -139 l 313 -139 l 313 0 l 590 0 z m 174 278 l 35 278 l 35 139 l 174 139 z m 313 -278 l 451 -278 l 451 -139 l 313 -139 z "},"å":{"ha":660,"x_min":0,"x_max":0,"o":"m 382 1042 l 382 1181 l 243 1181 l 243 1042 z m 243 903 l 243 1042 l 104 1042 l 104 903 z m 382 903 l 521 903 l 521 1042 l 382 1042 z m 243 903 l 243 764 l 382 764 l 382 903 z m 451 694 l 104 694 l 104 556 l 451 556 z m 590 556 l 451 556 l 451 417 l 174 417 l 174 278 l 451 278 l 451 139 l 174 139 l 174 0 l 590 0 z m 174 278 l 35 278 l 35 139 l 174 139 z "},"ã":{"ha":660,"x_min":0,"x_max":0,"o":"m 313 1042 l 174 1042 l 174 903 l 313 903 z m 590 1042 l 451 1042 l 451 903 l 590 903 z m 35 903 l 35 764 l 174 764 l 174 903 z m 313 903 l 313 764 l 451 764 l 451 903 z m 451 694 l 104 694 l 104 556 l 451 556 z m 451 556 l 451 417 l 174 417 l 174 278 l 451 278 l 451 139 l 174 139 l 174 0 l 590 0 l 590 556 z m 174 278 l 35 278 l 35 139 l 174 139 z "},"ɐ":{"ha":660,"x_min":0,"x_max":0,"o":"m 486 417 l 208 417 l 208 556 l 486 556 l 486 694 l 69 694 l 69 139 l 208 139 l 208 278 l 486 278 z m 625 556 l 486 556 l 486 417 l 625 417 z m 208 0 l 556 0 l 556 139 l 208 139 z "},"æ":{"ha":1076,"x_min":0,"x_max":0,"o":"m 451 694 l 104 694 l 104 556 l 451 556 z m 590 556 l 868 556 l 868 694 l 590 694 z m 1007 556 l 868 556 l 868 417 l 590 417 l 590 556 l 451 556 l 451 417 l 174 417 l 174 278 l 451 278 l 451 139 l 590 139 l 590 278 l 1007 278 z m 174 278 l 35 278 l 35 139 l 174 139 z m 451 139 l 174 139 l 174 0 l 451 0 z m 590 0 l 938 0 l 938 139 l 590 139 z "},"b":{"ha":694,"x_min":0,"x_max":0,"o":"m 486 139 l 208 139 l 208 556 l 486 556 l 486 694 l 208 694 l 208 1111 l 69 1111 l 69 0 l 486 0 z m 625 556 l 486 556 l 486 139 l 625 139 z "},"ḅ":{"ha":694,"x_min":0,"x_max":0,"o":"m 486 139 l 208 139 l 208 556 l 486 556 l 486 694 l 208 694 l 208 1111 l 69 1111 l 69 0 l 486 0 z m 625 556 l 486 556 l 486 139 l 625 139 z m 278 -69 l 278 -208 l 417 -208 l 417 -69 z "},"ɓ":{"ha":694,"x_min":0,"x_max":0,"o":"m 208 972 l 417 972 l 417 1111 l 208 1111 z m 486 139 l 208 139 l 208 556 l 486 556 l 486 694 l 208 694 l 208 972 l 69 972 l 69 0 l 486 0 z m 625 556 l 486 556 l 486 139 l 625 139 z "},"ʘ":{"ha":833,"x_min":0,"x_max":0,"o":"m 208 903 l 625 903 l 625 1042 l 208 1042 z m 208 139 l 208 903 l 69 903 l 69 139 z m 764 903 l 625 903 l 625 139 l 764 139 z m 347 590 l 347 451 l 486 451 l 486 590 z m 625 139 l 208 139 l 208 0 l 625 0 z "},"c":{"ha":625,"x_min":0,"x_max":0,"o":"m 556 694 l 208 694 l 208 556 l 556 556 z m 69 556 l 69 139 l 208 139 l 208 556 z m 208 0 l 556 0 l 556 139 l 208 139 z "},"ć":{"ha":625,"x_min":0,"x_max":0,"o":"m 590 1042 l 451 1042 l 451 903 l 590 903 z m 313 903 l 313 764 l 451 764 l 451 903 z m 556 694 l 208 694 l 208 556 l 556 556 z m 69 556 l 69 139 l 208 139 l 208 556 z m 208 0 l 556 0 l 556 139 l 208 139 z "},"č":{"ha":625,"x_min":0,"x_max":0,"o":"m 313 1042 l 174 1042 l 174 903 l 313 903 z m 590 1042 l 451 1042 l 451 903 l 590 903 z m 313 903 l 313 764 l 451 764 l 451 903 z m 556 694 l 208 694 l 208 556 l 556 556 z m 69 556 l 69 139 l 208 139 l 208 556 z m 208 0 l 556 0 l 556 139 l 208 139 z "},"ç":{"ha":625,"x_min":0,"x_max":0,"o":"m 556 694 l 208 694 l 208 556 l 556 556 z m 69 556 l 69 139 l 208 139 l 208 556 z m 208 0 l 417 0 l 417 -139 l 556 -139 l 556 139 l 208 139 z m 278 -139 l 278 -278 l 417 -278 l 417 -139 z "},"ɕ":{"ha":938,"x_min":0,"x_max":0,"o":"m 208 556 l 556 556 l 556 694 l 208 694 z m 208 139 l 208 556 l 69 556 l 69 139 z m 764 278 l 764 417 l 625 417 l 625 278 z m 625 139 l 625 278 l 486 278 l 486 139 l 208 139 l 208 0 l 417 0 l 417 -278 l 556 -278 l 556 0 l 764 0 l 764 139 z m 903 278 l 764 278 l 764 139 l 903 139 z "},"ċ":{"ha":625,"x_min":0,"x_max":0,"o":"m 451 764 l 451 903 l 313 903 l 313 764 z m 556 694 l 208 694 l 208 556 l 556 556 z m 69 556 l 69 139 l 208 139 l 208 556 z m 208 0 l 556 0 l 556 139 l 208 139 z "},"ƈ":{"ha":729,"x_min":0,"x_max":0,"o":"m 694 903 l 556 903 l 556 694 l 694 694 z m 556 694 l 208 694 l 208 556 l 556 556 z m 69 556 l 69 139 l 208 139 l 208 556 z m 208 0 l 556 0 l 556 139 l 208 139 z "},"d":{"ha":694,"x_min":0,"x_max":0,"o":"m 625 1111 l 486 1111 l 486 694 l 208 694 l 208 556 l 486 556 l 486 139 l 208 139 l 208 0 l 625 0 z m 208 139 l 208 556 l 69 556 l 69 139 z "},"ð":{"ha":799,"x_min":0,"x_max":0,"o":"m 764 972 l 625 972 l 625 1111 l 486 1111 l 486 972 l 347 972 l 347 833 l 486 833 l 486 694 l 208 694 l 208 556 l 486 556 l 486 139 l 208 139 l 208 0 l 625 0 l 625 833 l 764 833 z m 208 139 l 208 556 l 69 556 l 69 139 z "},"ď":{"ha":868,"x_min":0,"x_max":0,"o":"m 486 1111 l 486 694 l 208 694 l 208 556 l 486 556 l 486 139 l 208 139 l 208 0 l 625 0 l 625 1111 z m 833 1111 l 694 1111 l 694 833 l 833 833 z m 208 139 l 208 556 l 69 556 l 69 139 z "},"ḓ":{"ha":694,"x_min":0,"x_max":0,"o":"m 625 1111 l 486 1111 l 486 694 l 208 694 l 208 556 l 486 556 l 486 139 l 208 139 l 208 0 l 625 0 z m 208 139 l 208 556 l 69 556 l 69 139 z m 417 -69 l 278 -69 l 278 -208 l 417 -208 z m 139 -208 l 139 -347 l 278 -347 l 278 -208 z m 417 -208 l 417 -347 l 556 -347 l 556 -208 z "},"đ":{"ha":799,"x_min":0,"x_max":0,"o":"m 764 972 l 625 972 l 625 1111 l 486 1111 l 486 972 l 347 972 l 347 833 l 486 833 l 486 694 l 208 694 l 208 556 l 486 556 l 486 139 l 208 139 l 208 0 l 625 0 l 625 833 l 764 833 z m 208 139 l 208 556 l 69 556 l 69 139 z "},"ḍ":{"ha":694,"x_min":0,"x_max":0,"o":"m 625 1111 l 486 1111 l 486 694 l 208 694 l 208 556 l 486 556 l 486 139 l 208 139 l 208 0 l 625 0 z m 208 139 l 208 556 l 69 556 l 69 139 z m 278 -69 l 278 -208 l 417 -208 l 417 -69 z "},"ʤ":{"ha":1250,"x_min":0,"x_max":0,"o":"m 1181 694 l 625 694 l 625 1111 l 486 1111 l 486 694 l 208 694 l 208 556 l 486 556 l 486 139 l 208 139 l 208 0 l 625 0 l 625 556 l 1042 556 l 1042 417 l 1181 417 z m 208 139 l 208 556 l 69 556 l 69 139 z m 903 417 l 903 278 l 764 278 l 764 139 l 1042 139 l 1042 417 z m 1042 139 l 1042 -139 l 1181 -139 l 1181 139 z m 1042 -139 l 625 -139 l 625 -278 l 1042 -278 z "},"ɗ":{"ha":868,"x_min":0,"x_max":0,"o":"m 833 1111 l 625 1111 l 625 972 l 833 972 z m 486 972 l 486 694 l 208 694 l 208 556 l 486 556 l 486 139 l 208 139 l 208 0 l 625 0 l 625 972 z m 208 139 l 208 556 l 69 556 l 69 139 z "},"ḏ":{"ha":694,"x_min":0,"x_max":0,"o":"m 625 1111 l 486 1111 l 486 694 l 208 694 l 208 556 l 486 556 l 486 139 l 208 139 l 208 0 l 625 0 z m 208 139 l 208 556 l 69 556 l 69 139 z m 625 -69 l 69 -69 l 69 -208 l 625 -208 z "},"ɖ":{"ha":868,"x_min":0,"x_max":0,"o":"m 625 139 l 625 1111 l 486 1111 l 486 694 l 208 694 l 208 556 l 486 556 l 486 139 z m 208 139 l 208 556 l 69 556 l 69 139 z m 486 139 l 208 139 l 208 0 l 486 0 z m 833 139 l 625 139 l 625 0 l 833 0 z "},"e":{"ha":694,"x_min":0,"x_max":0,"o":"m 208 556 l 486 556 l 486 694 l 208 694 z m 625 556 l 486 556 l 486 417 l 208 417 l 208 556 l 69 556 l 69 139 l 208 139 l 208 278 l 625 278 z m 208 0 l 556 0 l 556 139 l 208 139 z "},"é":{"ha":694,"x_min":0,"x_max":0,"o":"m 556 903 l 556 1042 l 417 1042 l 417 903 z m 417 764 l 417 903 l 278 903 l 278 764 z m 208 556 l 486 556 l 486 694 l 208 694 z m 625 556 l 486 556 l 486 417 l 208 417 l 208 556 l 69 556 l 69 139 l 208 139 l 208 278 l 625 278 z m 208 0 l 556 0 l 556 139 l 208 139 z "},"ě":{"ha":694,"x_min":0,"x_max":0,"o":"m 278 903 l 278 1042 l 139 1042 l 139 903 z m 556 903 l 556 1042 l 417 1042 l 417 903 z m 278 764 l 417 764 l 417 903 l 278 903 z m 208 556 l 486 556 l 486 694 l 208 694 z m 625 556 l 486 556 l 486 417 l 208 417 l 208 556 l 69 556 l 69 139 l 208 139 l 208 278 l 625 278 z m 208 0 l 556 0 l 556 139 l 208 139 z "},"ȩ":{"ha":694,"x_min":0,"x_max":0,"o":"m 208 556 l 486 556 l 486 694 l 208 694 z m 625 556 l 486 556 l 486 417 l 208 417 l 208 556 l 69 556 l 69 139 l 208 139 l 208 278 l 625 278 z m 208 0 l 417 0 l 417 -139 l 556 -139 l 556 139 l 208 139 z m 278 -139 l 278 -278 l 417 -278 l 417 -139 z "},"ê":{"ha":694,"x_min":0,"x_max":0,"o":"m 417 903 l 417 1042 l 278 1042 l 278 903 z m 278 764 l 278 903 l 139 903 l 139 764 z m 417 764 l 556 764 l 556 903 l 417 903 z m 208 556 l 486 556 l 486 694 l 208 694 z m 625 556 l 486 556 l 486 417 l 208 417 l 208 556 l 69 556 l 69 139 l 208 139 l 208 278 l 625 278 z m 208 0 l 556 0 l 556 139 l 208 139 z "},"ế":{"ha":799,"x_min":0,"x_max":0,"o":"m 764 1250 l 625 1250 l 625 1111 l 764 1111 z m 486 1111 l 486 972 l 625 972 l 625 1111 z m 417 903 l 417 1042 l 278 1042 l 278 903 z m 278 764 l 278 903 l 139 903 l 139 764 z m 417 764 l 556 764 l 556 903 l 417 903 z m 208 556 l 486 556 l 486 694 l 208 694 z m 486 556 l 486 417 l 208 417 l 208 556 l 69 556 l 69 139 l 208 139 l 208 278 l 625 278 l 625 556 z m 208 0 l 556 0 l 556 139 l 208 139 z "},"ệ":{"ha":694,"x_min":0,"x_max":0,"o":"m 417 903 l 417 1042 l 278 1042 l 278 903 z m 278 764 l 278 903 l 139 903 l 139 764 z m 417 764 l 556 764 l 556 903 l 417 903 z m 208 556 l 486 556 l 486 694 l 208 694 z m 625 556 l 486 556 l 486 417 l 208 417 l 208 556 l 69 556 l 69 139 l 208 139 l 208 278 l 625 278 z m 208 0 l 556 0 l 556 139 l 208 139 z m 278 -69 l 278 -208 l 417 -208 l 417 -69 z "},"ề":{"ha":729,"x_min":0,"x_max":0,"o":"m 556 1250 l 417 1250 l 417 1111 l 556 1111 z m 694 1111 l 556 1111 l 556 972 l 694 972 z m 417 903 l 417 1042 l 278 1042 l 278 903 z m 278 764 l 278 903 l 139 903 l 139 764 z m 417 764 l 556 764 l 556 903 l 417 903 z m 208 556 l 486 556 l 486 694 l 208 694 z m 486 556 l 486 417 l 208 417 l 208 556 l 69 556 l 69 139 l 208 139 l 208 278 l 625 278 l 625 556 z m 208 0 l 556 0 l 556 139 l 208 139 z "},"ể":{"ha":729,"x_min":0,"x_max":0,"o":"m 694 1250 l 417 1250 l 417 1111 l 556 1111 l 556 972 l 694 972 z m 417 903 l 417 1042 l 278 1042 l 278 903 z m 278 764 l 278 903 l 139 903 l 139 764 z m 417 764 l 556 764 l 556 903 l 417 903 z m 208 556 l 486 556 l 486 694 l 208 694 z m 486 556 l 486 417 l 208 417 l 208 556 l 69 556 l 69 139 l 208 139 l 208 278 l 625 278 l 625 556 z m 208 0 l 556 0 l 556 139 l 208 139 z "},"ễ":{"ha":729,"x_min":0,"x_max":0,"o":"m 417 1181 l 278 1181 l 278 1042 l 417 1042 z m 694 1181 l 556 1181 l 556 1042 l 694 1042 z m 139 1042 l 139 764 l 278 764 l 278 1042 z m 417 1042 l 417 764 l 556 764 l 556 1042 z m 208 556 l 486 556 l 486 694 l 208 694 z m 486 556 l 486 417 l 208 417 l 208 556 l 69 556 l 69 139 l 208 139 l 208 278 l 625 278 l 625 556 z m 208 0 l 556 0 l 556 139 l 208 139 z "},"ë":{"ha":694,"x_min":0,"x_max":0,"o":"m 278 764 l 278 903 l 139 903 l 139 764 z m 556 764 l 556 903 l 417 903 l 417 764 z m 208 556 l 486 556 l 486 694 l 208 694 z m 625 556 l 486 556 l 486 417 l 208 417 l 208 556 l 69 556 l 69 139 l 208 139 l 208 278 l 625 278 z m 208 0 l 556 0 l 556 139 l 208 139 z "},"ė":{"ha":694,"x_min":0,"x_max":0,"o":"m 417 764 l 417 903 l 278 903 l 278 764 z m 208 556 l 486 556 l 486 694 l 208 694 z m 625 556 l 486 556 l 486 417 l 208 417 l 208 556 l 69 556 l 69 139 l 208 139 l 208 278 l 625 278 z m 208 0 l 556 0 l 556 139 l 208 139 z "},"ẹ":{"ha":694,"x_min":0,"x_max":0,"o":"m 208 556 l 486 556 l 486 694 l 208 694 z m 625 556 l 486 556 l 486 417 l 208 417 l 208 556 l 69 556 l 69 139 l 208 139 l 208 278 l 625 278 z m 208 0 l 556 0 l 556 139 l 208 139 z m 278 -69 l 278 -208 l 417 -208 l 417 -69 z "},"è":{"ha":694,"x_min":0,"x_max":0,"o":"m 278 903 l 278 1042 l 139 1042 l 139 903 z m 278 764 l 417 764 l 417 903 l 278 903 z m 208 556 l 486 556 l 486 694 l 208 694 z m 625 556 l 486 556 l 486 417 l 208 417 l 208 556 l 69 556 l 69 139 l 208 139 l 208 278 l 625 278 z m 208 0 l 556 0 l 556 139 l 208 139 z "},"ẻ":{"ha":694,"x_min":0,"x_max":0,"o":"m 278 903 l 278 764 l 417 764 l 417 1042 l 139 1042 l 139 903 z m 208 556 l 486 556 l 486 694 l 208 694 z m 625 556 l 486 556 l 486 417 l 208 417 l 208 556 l 69 556 l 69 139 l 208 139 l 208 278 l 625 278 z m 208 0 l 556 0 l 556 139 l 208 139 z "},"ē":{"ha":694,"x_min":0,"x_max":0,"o":"m 139 764 l 556 764 l 556 903 l 139 903 z m 208 556 l 486 556 l 486 694 l 208 694 z m 625 556 l 486 556 l 486 417 l 208 417 l 208 556 l 69 556 l 69 139 l 208 139 l 208 278 l 625 278 z m 208 0 l 556 0 l 556 139 l 208 139 z "},"ę":{"ha":694,"x_min":0,"x_max":0,"o":"m 208 556 l 486 556 l 486 694 l 208 694 z m 625 556 l 486 556 l 486 417 l 208 417 l 208 556 l 69 556 l 69 139 l 208 139 l 208 278 l 625 278 z m 208 139 l 208 -139 l 347 -139 l 347 0 l 556 0 l 556 139 z m 347 -278 l 486 -278 l 486 -139 l 347 -139 z "},"ɛ":{"ha":625,"x_min":0,"x_max":0,"o":"m 556 694 l 208 694 l 208 556 l 556 556 z m 69 556 l 69 417 l 208 417 l 208 556 z m 208 278 l 486 278 l 486 417 l 208 417 z m 69 278 l 69 139 l 208 139 l 208 278 z m 208 0 l 556 0 l 556 139 l 208 139 z "},"ɜ":{"ha":625,"x_min":0,"x_max":0,"o":"m 417 694 l 69 694 l 69 556 l 417 556 z m 556 556 l 417 556 l 417 417 l 556 417 z m 417 417 l 139 417 l 139 278 l 417 278 z m 417 139 l 556 139 l 556 278 l 417 278 z m 417 139 l 69 139 l 69 0 l 417 0 z "},"ɞ":{"ha":764,"x_min":0,"x_max":0,"o":"m 208 556 l 556 556 l 556 694 l 208 694 z m 208 139 l 208 556 l 69 556 l 69 139 z m 694 556 l 556 556 l 556 417 l 694 417 z m 556 417 l 347 417 l 347 278 l 556 278 z m 556 139 l 694 139 l 694 278 l 556 278 z m 556 139 l 208 139 l 208 0 l 556 0 z "},"ɝ":{"ha":694,"x_min":0,"x_max":0,"o":"m 625 833 l 417 833 l 417 694 l 625 694 z m 417 694 l 69 694 l 69 556 l 417 556 z m 417 417 l 556 417 l 556 556 l 417 556 z m 417 417 l 139 417 l 139 278 l 417 278 z m 417 139 l 556 139 l 556 278 l 417 278 z m 417 139 l 69 139 l 69 0 l 417 0 z "},"ɘ":{"ha":694,"x_min":0,"x_max":0,"o":"m 208 556 l 486 556 l 486 694 l 208 694 z m 625 556 l 486 556 l 486 417 l 208 417 l 208 556 l 69 556 l 69 278 l 486 278 l 486 139 l 625 139 z m 486 139 l 139 139 l 139 0 l 486 0 z "},"ʃ":{"ha":625,"x_min":0,"x_max":0,"o":"m 590 1111 l 382 1111 l 382 972 l 590 972 z m 243 972 l 243 -139 l 382 -139 l 382 972 z m 243 -139 l 35 -139 l 35 -278 l 243 -278 z "},"ẽ":{"ha":694,"x_min":0,"x_max":0,"o":"m 347 1042 l 208 1042 l 208 903 l 347 903 z m 625 1042 l 486 1042 l 486 903 l 625 903 z m 69 903 l 69 764 l 208 764 l 208 903 z m 347 903 l 347 764 l 486 764 l 486 903 z m 208 556 l 486 556 l 486 694 l 208 694 z m 486 556 l 486 417 l 208 417 l 208 556 l 69 556 l 69 139 l 208 139 l 208 278 l 625 278 l 625 556 z m 208 0 l 556 0 l 556 139 l 208 139 z "},"ǝ":{"ha":694,"x_min":0,"x_max":0,"o":"m 486 694 l 139 694 l 139 556 l 486 556 z m 625 556 l 486 556 l 486 417 l 69 417 l 69 139 l 208 139 l 208 278 l 486 278 l 486 139 l 625 139 z m 486 139 l 208 139 l 208 0 l 486 0 z "},"ə":{"ha":694,"x_min":0,"x_max":0,"o":"m 486 694 l 139 694 l 139 556 l 486 556 z m 625 556 l 486 556 l 486 417 l 69 417 l 69 139 l 208 139 l 208 278 l 486 278 l 486 139 l 625 139 z m 486 139 l 208 139 l 208 0 l 486 0 z "},"ɚ":{"ha":799,"x_min":0,"x_max":0,"o":"m 486 694 l 139 694 l 139 556 l 486 556 z m 764 417 l 625 417 l 625 556 l 486 556 l 486 417 l 69 417 l 69 139 l 208 139 l 208 278 l 486 278 l 486 139 l 625 139 l 625 278 l 764 278 z m 486 139 l 208 139 l 208 0 l 486 0 z "},"ʒ":{"ha":694,"x_min":0,"x_max":0,"o":"m 625 694 l 69 694 l 69 556 l 486 556 l 486 417 l 625 417 z m 347 417 l 347 278 l 208 278 l 208 139 l 486 139 l 486 417 z m 486 139 l 486 -139 l 625 -139 l 625 139 z m 486 -139 l 69 -139 l 69 -278 l 486 -278 z "},"f":{"ha":556,"x_min":0,"x_max":0,"o":"m 521 1111 l 313 1111 l 313 972 l 521 972 z m 174 972 l 174 694 l 35 694 l 35 556 l 174 556 l 174 0 l 313 0 l 313 556 l 451 556 l 451 694 l 313 694 l 313 972 z "},"g":{"ha":694,"x_min":0,"x_max":0,"o":"m 625 694 l 208 694 l 208 556 l 486 556 l 486 278 l 208 278 l 208 139 l 486 139 l 486 -139 l 625 -139 z m 208 278 l 208 556 l 69 556 l 69 278 z m 486 -139 l 139 -139 l 139 -278 l 486 -278 z "},"ɣ":{"ha":833,"x_min":0,"x_max":0,"o":"m 208 417 l 208 694 l 69 694 l 69 417 z m 764 694 l 625 694 l 625 417 l 764 417 z m 347 208 l 347 417 l 208 417 l 208 208 z m 486 417 l 486 208 l 625 208 l 625 417 z m 347 208 l 347 69 l 486 69 l 486 208 z m 347 -139 l 347 69 l 208 69 l 208 -139 z m 486 69 l 486 -139 l 625 -139 l 625 69 z m 347 -139 l 347 -278 l 486 -278 l 486 -139 z "},"ğ":{"ha":694,"x_min":0,"x_max":0,"o":"m 208 1042 l 69 1042 l 69 903 l 208 903 z m 625 1042 l 486 1042 l 486 903 l 625 903 z m 486 903 l 208 903 l 208 764 l 486 764 z m 625 694 l 208 694 l 208 556 l 486 556 l 486 278 l 208 278 l 208 139 l 486 139 l 486 -139 l 625 -139 z m 208 278 l 208 556 l 69 556 l 69 278 z m 486 -139 l 139 -139 l 139 -278 l 486 -278 z "},"ǧ":{"ha":694,"x_min":0,"x_max":0,"o":"m 278 903 l 278 1042 l 139 1042 l 139 903 z m 556 903 l 556 1042 l 417 1042 l 417 903 z m 278 764 l 417 764 l 417 903 l 278 903 z m 625 694 l 208 694 l 208 556 l 486 556 l 486 278 l 208 278 l 208 139 l 486 139 l 486 -139 l 625 -139 z m 208 278 l 208 556 l 69 556 l 69 278 z m 486 -139 l 139 -139 l 139 -278 l 486 -278 z "},"ģ":{"ha":694,"x_min":0,"x_max":0,"o":"m 556 903 l 556 1042 l 417 1042 l 417 903 z m 417 764 l 417 903 l 278 903 l 278 764 z m 625 694 l 208 694 l 208 556 l 486 556 l 486 278 l 208 278 l 208 139 l 486 139 l 486 -139 l 625 -139 z m 208 278 l 208 556 l 69 556 l 69 278 z m 486 -139 l 139 -139 l 139 -278 l 486 -278 z "},"ġ":{"ha":694,"x_min":0,"x_max":0,"o":"m 417 764 l 417 903 l 278 903 l 278 764 z m 625 694 l 208 694 l 208 556 l 486 556 l 486 278 l 208 278 l 208 139 l 486 139 l 486 -139 l 625 -139 z m 208 278 l 208 556 l 69 556 l 69 278 z m 486 -139 l 139 -139 l 139 -278 l 486 -278 z "},"ɠ":{"ha":868,"x_min":0,"x_max":0,"o":"m 833 833 l 625 833 l 625 694 l 833 694 z m 625 694 l 208 694 l 208 556 l 486 556 l 486 278 l 208 278 l 208 139 l 486 139 l 486 -139 l 625 -139 z m 208 278 l 208 556 l 69 556 l 69 278 z m 486 -139 l 139 -139 l 139 -278 l 486 -278 z "},"ʔ":{"ha":694,"x_min":0,"x_max":0,"o":"m 486 1042 l 208 1042 l 208 903 l 486 903 z m 69 903 l 69 764 l 208 764 l 208 903 z m 625 903 l 486 903 l 486 625 l 625 625 z m 347 625 l 347 417 l 486 417 l 486 625 z m 208 417 l 208 0 l 347 0 l 347 417 z "},"ʕ":{"ha":694,"x_min":0,"x_max":0,"o":"m 486 1042 l 208 1042 l 208 903 l 486 903 z m 69 903 l 69 625 l 208 625 l 208 903 z m 625 903 l 486 903 l 486 764 l 625 764 z m 208 625 l 208 417 l 347 417 l 347 625 z m 347 417 l 347 0 l 486 0 l 486 417 z "},"ɂ":{"ha":694,"x_min":0,"x_max":0,"o":"m 486 764 l 208 764 l 208 625 l 486 625 z m 69 625 l 69 486 l 208 486 l 208 625 z m 625 625 l 486 625 l 486 347 l 625 347 z m 347 347 l 347 208 l 486 208 l 486 347 z m 208 208 l 208 0 l 347 0 l 347 208 z "},"ʡ":{"ha":694,"x_min":0,"x_max":0,"o":"m 486 1042 l 208 1042 l 208 903 l 486 903 z m 69 903 l 69 764 l 208 764 l 208 903 z m 625 903 l 486 903 l 486 625 l 625 625 z m 347 625 l 347 417 l 486 417 l 486 625 z m 208 417 l 208 278 l 69 278 l 69 139 l 208 139 l 208 0 l 347 0 l 347 139 l 556 139 l 556 278 l 347 278 l 347 417 z "},"ʢ":{"ha":694,"x_min":0,"x_max":0,"o":"m 486 1042 l 208 1042 l 208 903 l 486 903 z m 69 903 l 69 625 l 208 625 l 208 903 z m 625 903 l 486 903 l 486 764 l 625 764 z m 208 625 l 208 417 l 347 417 l 347 625 z m 347 278 l 139 278 l 139 139 l 347 139 l 347 0 l 486 0 l 486 139 l 625 139 l 625 278 l 486 278 l 486 417 l 347 417 z "},"ɡ":{"ha":694,"x_min":0,"x_max":0,"o":"m 625 694 l 208 694 l 208 556 l 486 556 l 486 278 l 208 278 l 208 139 l 486 139 l 486 -139 l 625 -139 z m 208 278 l 208 556 l 69 556 l 69 278 z m 486 -139 l 139 -139 l 139 -278 l 486 -278 z "},"h":{"ha":694,"x_min":0,"x_max":0,"o":"m 486 694 l 208 694 l 208 1111 l 69 1111 l 69 0 l 208 0 l 208 556 l 486 556 z m 625 556 l 486 556 l 486 0 l 625 0 z "},"ħ":{"ha":799,"x_min":0,"x_max":0,"o":"m 590 694 l 313 694 l 313 833 l 451 833 l 451 972 l 313 972 l 313 1111 l 174 1111 l 174 972 l 35 972 l 35 833 l 174 833 l 174 0 l 313 0 l 313 556 l 590 556 z m 729 556 l 590 556 l 590 0 l 729 0 z "},"ḥ":{"ha":694,"x_min":0,"x_max":0,"o":"m 486 694 l 208 694 l 208 1111 l 69 1111 l 69 0 l 208 0 l 208 556 l 486 556 z m 625 556 l 486 556 l 486 0 l 625 0 z m 278 -69 l 278 -208 l 417 -208 l 417 -69 z "},"ɧ":{"ha":694,"x_min":0,"x_max":0,"o":"m 208 972 l 556 972 l 556 1111 l 208 1111 z m 486 694 l 208 694 l 208 972 l 69 972 l 69 0 l 208 0 l 208 556 l 486 556 z m 625 556 l 486 556 l 486 -139 l 625 -139 z m 486 -139 l 278 -139 l 278 -278 l 486 -278 z "},"ɦ":{"ha":694,"x_min":0,"x_max":0,"o":"m 208 972 l 417 972 l 417 1111 l 208 1111 z m 486 694 l 208 694 l 208 972 l 69 972 l 69 0 l 208 0 l 208 556 l 486 556 z m 625 556 l 486 556 l 486 0 l 625 0 z "},"ɥ":{"ha":694,"x_min":0,"x_max":0,"o":"m 208 139 l 208 694 l 69 694 l 69 139 z m 625 694 l 486 694 l 486 139 l 208 139 l 208 0 l 486 0 l 486 -417 l 625 -417 z "},"i":{"ha":278,"x_min":0,"x_max":0,"o":"m 208 903 l 69 903 l 69 764 l 208 764 z m 69 694 l 69 0 l 208 0 l 208 694 z "},"ı":{"ha":278,"x_min":0,"x_max":0,"o":"m 208 694 l 69 694 l 69 0 l 208 0 z "},"í":{"ha":382,"x_min":0,"x_max":0,"o":"m 347 1042 l 208 1042 l 208 903 l 347 903 z m 69 903 l 69 764 l 208 764 l 208 903 z m 69 694 l 69 0 l 208 0 l 208 694 z "},"ǐ":{"ha":486,"x_min":0,"x_max":0,"o":"m 174 1042 l 35 1042 l 35 903 l 174 903 z m 451 1042 l 313 1042 l 313 903 l 451 903 z m 174 903 l 174 764 l 313 764 l 313 903 z m 174 694 l 174 0 l 313 0 l 313 694 z "},"î":{"ha":486,"x_min":0,"x_max":0,"o":"m 313 1042 l 174 1042 l 174 903 l 313 903 z m 35 903 l 35 764 l 174 764 l 174 903 z m 451 903 l 313 903 l 313 764 l 451 764 z m 174 694 l 174 0 l 313 0 l 313 694 z "},"ï":{"ha":486,"x_min":0,"x_max":0,"o":"m 174 764 l 174 903 l 35 903 l 35 764 z m 451 903 l 313 903 l 313 764 l 451 764 z m 174 694 l 174 0 l 313 0 l 313 694 z "},"ḯ":{"ha":486,"x_min":0,"x_max":0,"o":"m 451 1250 l 313 1250 l 313 1111 l 451 1111 z m 174 1111 l 174 972 l 313 972 l 313 1111 z m 174 764 l 174 903 l 35 903 l 35 764 z m 313 903 l 313 764 l 451 764 l 451 903 z m 174 694 l 174 0 l 313 0 l 313 694 z "},"ị":{"ha":278,"x_min":0,"x_max":0,"o":"m 208 903 l 69 903 l 69 764 l 208 764 z m 69 694 l 69 0 l 208 0 l 208 694 z m 69 -69 l 69 -208 l 208 -208 l 208 -69 z "},"ì":{"ha":382,"x_min":0,"x_max":0,"o":"m 174 1042 l 35 1042 l 35 903 l 174 903 z m 313 903 l 174 903 l 174 764 l 313 764 z m 174 694 l 174 0 l 313 0 l 313 694 z "},"ỉ":{"ha":382,"x_min":0,"x_max":0,"o":"m 313 1042 l 35 1042 l 35 903 l 174 903 l 174 764 l 313 764 z m 174 694 l 174 0 l 313 0 l 313 694 z "},"ī":{"ha":486,"x_min":0,"x_max":0,"o":"m 451 903 l 35 903 l 35 764 l 451 764 z m 174 694 l 174 0 l 313 0 l 313 694 z "},"į":{"ha":382,"x_min":0,"x_max":0,"o":"m 313 903 l 174 903 l 174 764 l 313 764 z m 174 694 l 174 0 l 313 0 l 313 694 z m 35 0 l 35 -139 l 174 -139 l 174 0 z m 174 -278 l 313 -278 l 313 -139 l 174 -139 z "},"ɩ":{"ha":382,"x_min":0,"x_max":0,"o":"m 208 139 l 208 694 l 69 694 l 69 139 z m 347 139 l 208 139 l 208 0 l 347 0 z "},"ɨ":{"ha":556,"x_min":0,"x_max":0,"o":"m 347 764 l 347 903 l 208 903 l 208 764 z m 486 486 l 347 486 l 347 694 l 208 694 l 208 486 l 69 486 l 69 347 l 208 347 l 208 0 l 347 0 l 347 347 l 486 347 z "},"ĩ":{"ha":556,"x_min":0,"x_max":0,"o":"m 278 1042 l 139 1042 l 139 903 l 278 903 z m 556 1042 l 417 1042 l 417 903 l 556 903 z m 0 903 l 0 764 l 139 764 l 139 903 z m 278 903 l 278 764 l 417 764 l 417 903 z m 208 694 l 208 0 l 347 0 l 347 694 z "},"j":{"ha":451,"x_min":0,"x_max":0,"o":"m 382 903 l 243 903 l 243 764 l 382 764 z m 243 694 l 243 -139 l 382 -139 l 382 694 z m 243 -139 l 35 -139 l 35 -278 l 243 -278 z "},"ʝ":{"ha":694,"x_min":0,"x_max":0,"o":"m 521 764 l 521 903 l 382 903 l 382 764 z m 660 139 l 521 139 l 521 694 l 382 694 l 382 139 l 174 139 l 174 0 l 382 0 l 382 -139 l 521 -139 l 521 0 l 660 0 z m 174 0 l 35 0 l 35 -139 l 174 -139 z m 382 -139 l 174 -139 l 174 -278 l 382 -278 z "},"ɟ":{"ha":590,"x_min":0,"x_max":0,"o":"m 556 278 l 417 278 l 417 694 l 278 694 l 278 278 l 139 278 l 139 139 l 278 139 l 278 -139 l 417 -139 l 417 139 l 556 139 z m 278 -139 l 69 -139 l 69 -278 l 278 -278 z "},"ʄ":{"ha":660,"x_min":0,"x_max":0,"o":"m 625 1111 l 417 1111 l 417 972 l 625 972 z m 278 972 l 278 278 l 139 278 l 139 139 l 278 139 l 278 -139 l 417 -139 l 417 139 l 556 139 l 556 278 l 417 278 l 417 972 z m 278 -139 l 69 -139 l 69 -278 l 278 -278 z "},"k":{"ha":625,"x_min":0,"x_max":0,"o":"m 417 417 l 208 417 l 208 1111 l 69 1111 l 69 0 l 208 0 l 208 278 l 417 278 z m 556 694 l 417 694 l 417 417 l 556 417 z m 417 278 l 417 0 l 556 0 l 556 278 z "},"ķ":{"ha":625,"x_min":0,"x_max":0,"o":"m 417 417 l 208 417 l 208 1111 l 69 1111 l 69 0 l 208 0 l 208 278 l 417 278 z m 556 694 l 417 694 l 417 417 l 556 417 z m 417 278 l 417 0 l 556 0 l 556 278 z m 278 -69 l 278 -278 l 417 -278 l 417 -69 z m 139 -278 l 139 -417 l 278 -417 l 278 -278 z "},"ƙ":{"ha":694,"x_min":0,"x_max":0,"o":"m 208 972 l 417 972 l 417 1111 l 208 1111 z m 208 417 l 208 972 l 69 972 l 69 0 l 208 0 l 208 278 l 347 278 l 347 417 z m 625 694 l 486 694 l 486 556 l 625 556 z m 347 556 l 347 417 l 486 417 l 486 556 z m 347 139 l 486 139 l 486 278 l 347 278 z m 486 0 l 625 0 l 625 139 l 486 139 z "},"l":{"ha":278,"x_min":0,"x_max":0,"o":"m 208 1111 l 69 1111 l 69 0 l 208 0 z "},"ĺ":{"ha":382,"x_min":0,"x_max":0,"o":"m 347 1458 l 208 1458 l 208 1319 l 347 1319 z m 69 1319 l 69 1181 l 208 1181 l 208 1319 z m 69 1111 l 69 0 l 208 0 l 208 1111 z "},"ɬ":{"ha":625,"x_min":0,"x_max":0,"o":"m 590 556 l 451 556 l 451 1111 l 313 1111 l 313 833 l 174 833 l 174 694 l 313 694 l 313 556 l 174 556 l 174 417 l 313 417 l 313 0 l 451 0 l 451 417 l 590 417 z m 174 694 l 35 694 l 35 556 l 174 556 z "},"ľ":{"ha":451,"x_min":0,"x_max":0,"o":"m 69 1111 l 69 0 l 208 0 l 208 1111 z m 417 1111 l 278 1111 l 278 833 l 417 833 z "},"ḽ":{"ha":486,"x_min":0,"x_max":0,"o":"m 313 0 l 313 1111 l 174 1111 l 174 0 z m 313 -69 l 174 -69 l 174 -208 l 313 -208 z m 35 -208 l 35 -347 l 174 -347 l 174 -208 z m 451 -208 l 313 -208 l 313 -347 l 451 -347 z "},"ļ":{"ha":382,"x_min":0,"x_max":0,"o":"m 313 1111 l 174 1111 l 174 0 l 313 0 z m 174 -69 l 174 -278 l 313 -278 l 313 -69 z m 35 -278 l 35 -417 l 174 -417 l 174 -278 z "},"ḷ":{"ha":278,"x_min":0,"x_max":0,"o":"m 208 1111 l 69 1111 l 69 0 l 208 0 z m 69 -69 l 69 -208 l 208 -208 l 208 -69 z "},"ɮ":{"ha":833,"x_min":0,"x_max":0,"o":"m 764 694 l 208 694 l 208 1111 l 69 1111 l 69 0 l 208 0 l 208 556 l 625 556 l 625 417 l 764 417 z m 486 417 l 486 278 l 347 278 l 347 139 l 625 139 l 625 417 z m 625 139 l 625 -139 l 764 -139 l 764 139 z m 625 -139 l 208 -139 l 208 -278 l 625 -278 z "},"ɭ":{"ha":451,"x_min":0,"x_max":0,"o":"m 208 -139 l 208 1111 l 69 1111 l 69 -139 z m 417 -139 l 208 -139 l 208 -278 l 417 -278 z "},"ɫ":{"ha":764,"x_min":0,"x_max":0,"o":"m 451 556 l 451 1111 l 313 1111 l 313 694 l 174 694 l 174 556 l 313 556 l 313 0 l 451 0 l 451 417 l 590 417 l 590 556 z m 729 694 l 590 694 l 590 556 l 729 556 z m 35 556 l 35 417 l 174 417 l 174 556 z "},"ł":{"ha":486,"x_min":0,"x_max":0,"o":"m 451 694 l 313 694 l 313 1111 l 174 1111 l 174 556 l 35 556 l 35 417 l 174 417 l 174 0 l 313 0 l 313 556 l 451 556 z "},"m":{"ha":1111,"x_min":0,"x_max":0,"o":"m 486 694 l 69 694 l 69 0 l 208 0 l 208 556 l 486 556 z m 903 694 l 625 694 l 625 556 l 903 556 z m 486 556 l 486 0 l 625 0 l 625 556 z m 1042 556 l 903 556 l 903 0 l 1042 0 z "},"ḿ":{"ha":1111,"x_min":0,"x_max":0,"o":"m 764 903 l 764 1042 l 625 1042 l 625 903 z m 625 764 l 625 903 l 486 903 l 486 764 z m 486 694 l 69 694 l 69 0 l 208 0 l 208 556 l 486 556 z m 903 694 l 625 694 l 625 556 l 903 556 z m 486 556 l 486 0 l 625 0 l 625 556 z m 1042 556 l 903 556 l 903 0 l 1042 0 z "},"ɱ":{"ha":1111,"x_min":0,"x_max":0,"o":"m 486 694 l 69 694 l 69 0 l 208 0 l 208 556 l 486 556 z m 903 694 l 625 694 l 625 556 l 903 556 z m 486 556 l 486 0 l 625 0 l 625 556 z m 1042 556 l 903 556 l 903 -139 l 1042 -139 z m 903 -139 l 694 -139 l 694 -278 l 903 -278 z "},"ɰ":{"ha":1111,"x_min":0,"x_max":0,"o":"m 208 139 l 208 694 l 69 694 l 69 139 z m 625 139 l 625 694 l 486 694 l 486 139 z m 1042 694 l 903 694 l 903 139 l 625 139 l 625 0 l 903 0 l 903 -278 l 1042 -278 z m 486 139 l 208 139 l 208 0 l 486 0 z "},"ɯ":{"ha":1111,"x_min":0,"x_max":0,"o":"m 208 139 l 208 694 l 69 694 l 69 139 z m 625 139 l 625 694 l 486 694 l 486 139 z m 1042 694 l 903 694 l 903 139 l 625 139 l 625 0 l 1042 0 z m 486 139 l 208 139 l 208 0 l 486 0 z "},"n":{"ha":694,"x_min":0,"x_max":0,"o":"m 486 694 l 69 694 l 69 0 l 208 0 l 208 556 l 486 556 z m 625 556 l 486 556 l 486 0 l 625 0 z "},"ń":{"ha":694,"x_min":0,"x_max":0,"o":"m 556 903 l 556 1042 l 417 1042 l 417 903 z m 417 764 l 417 903 l 278 903 l 278 764 z m 486 694 l 69 694 l 69 0 l 208 0 l 208 556 l 486 556 z m 625 556 l 486 556 l 486 0 l 625 0 z "},"ň":{"ha":694,"x_min":0,"x_max":0,"o":"m 278 903 l 278 1042 l 139 1042 l 139 903 z m 556 903 l 556 1042 l 417 1042 l 417 903 z m 278 764 l 417 764 l 417 903 l 278 903 z m 486 694 l 69 694 l 69 0 l 208 0 l 208 556 l 486 556 z m 625 556 l 486 556 l 486 0 l 625 0 z "},"ṋ":{"ha":694,"x_min":0,"x_max":0,"o":"m 486 694 l 69 694 l 69 0 l 208 0 l 208 556 l 486 556 z m 625 556 l 486 556 l 486 0 l 625 0 z m 417 -69 l 278 -69 l 278 -208 l 417 -208 z m 139 -208 l 139 -347 l 278 -347 l 278 -208 z m 417 -208 l 417 -347 l 556 -347 l 556 -208 z "},"ņ":{"ha":694,"x_min":0,"x_max":0,"o":"m 486 694 l 69 694 l 69 0 l 208 0 l 208 556 l 486 556 z m 625 556 l 486 556 l 486 0 l 625 0 z m 278 -69 l 278 -278 l 417 -278 l 417 -69 z m 139 -278 l 139 -417 l 278 -417 l 278 -278 z "},"ṅ":{"ha":694,"x_min":0,"x_max":0,"o":"m 417 764 l 417 903 l 278 903 l 278 764 z m 486 694 l 69 694 l 69 0 l 208 0 l 208 556 l 486 556 z m 625 556 l 486 556 l 486 0 l 625 0 z "},"ṇ":{"ha":694,"x_min":0,"x_max":0,"o":"m 486 694 l 69 694 l 69 0 l 208 0 l 208 556 l 486 556 z m 625 556 l 486 556 l 486 0 l 625 0 z m 278 -69 l 278 -208 l 417 -208 l 417 -69 z "},"ŋ":{"ha":694,"x_min":0,"x_max":0,"o":"m 486 694 l 69 694 l 69 0 l 208 0 l 208 556 l 486 556 z m 625 556 l 486 556 l 486 -139 l 625 -139 z m 486 -139 l 278 -139 l 278 -278 l 486 -278 z "},"ɲ":{"ha":868,"x_min":0,"x_max":0,"o":"m 660 694 l 243 694 l 243 -139 l 382 -139 l 382 556 l 660 556 z m 799 556 l 660 556 l 660 0 l 799 0 z m 243 -139 l 35 -139 l 35 -278 l 243 -278 z "},"ɳ":{"ha":868,"x_min":0,"x_max":0,"o":"m 486 694 l 69 694 l 69 0 l 208 0 l 208 556 l 486 556 z m 625 -139 l 625 556 l 486 556 l 486 -139 z m 833 -139 l 625 -139 l 625 -278 l 833 -278 z "},"ñ":{"ha":694,"x_min":0,"x_max":0,"o":"m 347 1042 l 208 1042 l 208 903 l 347 903 z m 625 1042 l 486 1042 l 486 903 l 625 903 z m 69 903 l 69 764 l 208 764 l 208 903 z m 347 903 l 347 764 l 486 764 l 486 903 z m 486 694 l 69 694 l 69 0 l 208 0 l 208 556 l 486 556 z m 486 556 l 486 0 l 625 0 l 625 556 z "},"o":{"ha":694,"x_min":0,"x_max":0,"o":"m 208 556 l 486 556 l 486 694 l 208 694 z m 208 139 l 208 556 l 69 556 l 69 139 z m 625 556 l 486 556 l 486 139 l 625 139 z m 486 139 l 208 139 l 208 0 l 486 0 z "},"ó":{"ha":694,"x_min":0,"x_max":0,"o":"m 556 903 l 556 1042 l 417 1042 l 417 903 z m 417 764 l 417 903 l 278 903 l 278 764 z m 208 556 l 486 556 l 486 694 l 208 694 z m 208 139 l 208 556 l 69 556 l 69 139 z m 625 556 l 486 556 l 486 139 l 625 139 z m 486 139 l 208 139 l 208 0 l 486 0 z "},"ɵ":{"ha":694,"x_min":0,"x_max":0,"o":"m 208 556 l 486 556 l 486 694 l 208 694 z m 625 556 l 486 556 l 486 417 l 208 417 l 208 556 l 69 556 l 69 139 l 208 139 l 208 278 l 486 278 l 486 139 l 625 139 z m 486 139 l 208 139 l 208 0 l 486 0 z "},"ǒ":{"ha":694,"x_min":0,"x_max":0,"o":"m 278 903 l 278 1042 l 139 1042 l 139 903 z m 556 903 l 556 1042 l 417 1042 l 417 903 z m 278 764 l 417 764 l 417 903 l 278 903 z m 208 556 l 486 556 l 486 694 l 208 694 z m 208 139 l 208 556 l 69 556 l 69 139 z m 625 556 l 486 556 l 486 139 l 625 139 z m 486 139 l 208 139 l 208 0 l 486 0 z "},"ô":{"ha":694,"x_min":0,"x_max":0,"o":"m 417 903 l 417 1042 l 278 1042 l 278 903 z m 278 764 l 278 903 l 139 903 l 139 764 z m 417 764 l 556 764 l 556 903 l 417 903 z m 208 556 l 486 556 l 486 694 l 208 694 z m 208 139 l 208 556 l 69 556 l 69 139 z m 625 556 l 486 556 l 486 139 l 625 139 z m 486 139 l 208 139 l 208 0 l 486 0 z "},"ố":{"ha":799,"x_min":0,"x_max":0,"o":"m 764 1250 l 625 1250 l 625 1111 l 764 1111 z m 486 1111 l 486 972 l 625 972 l 625 1111 z m 417 903 l 417 1042 l 278 1042 l 278 903 z m 278 764 l 278 903 l 139 903 l 139 764 z m 417 764 l 556 764 l 556 903 l 417 903 z m 208 556 l 486 556 l 486 694 l 208 694 z m 208 139 l 208 556 l 69 556 l 69 139 z m 486 556 l 486 139 l 625 139 l 625 556 z m 486 139 l 208 139 l 208 0 l 486 0 z "},"ộ":{"ha":694,"x_min":0,"x_max":0,"o":"m 417 903 l 417 1042 l 278 1042 l 278 903 z m 278 764 l 278 903 l 139 903 l 139 764 z m 417 764 l 556 764 l 556 903 l 417 903 z m 208 556 l 486 556 l 486 694 l 208 694 z m 208 139 l 208 556 l 69 556 l 69 139 z m 625 556 l 486 556 l 486 139 l 625 139 z m 486 139 l 208 139 l 208 0 l 486 0 z m 278 -69 l 278 -208 l 417 -208 l 417 -69 z "},"ồ":{"ha":729,"x_min":0,"x_max":0,"o":"m 556 1250 l 417 1250 l 417 1111 l 556 1111 z m 694 1111 l 556 1111 l 556 972 l 694 972 z m 417 903 l 417 1042 l 278 1042 l 278 903 z m 278 764 l 278 903 l 139 903 l 139 764 z m 417 764 l 556 764 l 556 903 l 417 903 z m 208 556 l 486 556 l 486 694 l 208 694 z m 208 139 l 208 556 l 69 556 l 69 139 z m 486 556 l 486 139 l 625 139 l 625 556 z m 486 139 l 208 139 l 208 0 l 486 0 z "},"ổ":{"ha":729,"x_min":0,"x_max":0,"o":"m 694 1250 l 417 1250 l 417 1111 l 556 1111 l 556 972 l 694 972 z m 417 903 l 417 1042 l 278 1042 l 278 903 z m 278 764 l 278 903 l 139 903 l 139 764 z m 417 764 l 556 764 l 556 903 l 417 903 z m 208 556 l 486 556 l 486 694 l 208 694 z m 208 139 l 208 556 l 69 556 l 69 139 z m 486 556 l 486 139 l 625 139 l 625 556 z m 486 139 l 208 139 l 208 0 l 486 0 z "},"ỗ":{"ha":729,"x_min":0,"x_max":0,"o":"m 417 1181 l 278 1181 l 278 1042 l 417 1042 z m 694 1181 l 556 1181 l 556 1042 l 694 1042 z m 139 1042 l 139 764 l 278 764 l 278 1042 z m 417 1042 l 417 764 l 556 764 l 556 1042 z m 208 556 l 486 556 l 486 694 l 208 694 z m 208 139 l 208 556 l 69 556 l 69 139 z m 486 556 l 486 139 l 625 139 l 625 556 z m 486 139 l 208 139 l 208 0 l 486 0 z "},"ö":{"ha":694,"x_min":0,"x_max":0,"o":"m 278 764 l 278 903 l 139 903 l 139 764 z m 556 764 l 556 903 l 417 903 l 417 764 z m 208 556 l 486 556 l 486 694 l 208 694 z m 208 139 l 208 556 l 69 556 l 69 139 z m 625 556 l 486 556 l 486 139 l 625 139 z m 486 139 l 208 139 l 208 0 l 486 0 z "},"ȫ":{"ha":694,"x_min":0,"x_max":0,"o":"m 139 972 l 556 972 l 556 1111 l 139 1111 z m 278 764 l 278 903 l 139 903 l 139 764 z m 417 903 l 417 764 l 556 764 l 556 903 z m 208 556 l 486 556 l 486 694 l 208 694 z m 208 139 l 208 556 l 69 556 l 69 139 z m 625 556 l 486 556 l 486 139 l 625 139 z m 486 139 l 208 139 l 208 0 l 486 0 z "},"ọ":{"ha":694,"x_min":0,"x_max":0,"o":"m 208 556 l 486 556 l 486 694 l 208 694 z m 208 139 l 208 556 l 69 556 l 69 139 z m 625 556 l 486 556 l 486 139 l 625 139 z m 486 139 l 208 139 l 208 0 l 486 0 z m 278 -69 l 278 -208 l 417 -208 l 417 -69 z "},"ò":{"ha":694,"x_min":0,"x_max":0,"o":"m 278 903 l 278 1042 l 139 1042 l 139 903 z m 278 764 l 417 764 l 417 903 l 278 903 z m 208 556 l 486 556 l 486 694 l 208 694 z m 208 139 l 208 556 l 69 556 l 69 139 z m 625 556 l 486 556 l 486 139 l 625 139 z m 486 139 l 208 139 l 208 0 l 486 0 z "},"ỏ":{"ha":694,"x_min":0,"x_max":0,"o":"m 278 903 l 278 764 l 417 764 l 417 1042 l 139 1042 l 139 903 z m 208 556 l 486 556 l 486 694 l 208 694 z m 208 139 l 208 556 l 69 556 l 69 139 z m 625 556 l 486 556 l 486 139 l 625 139 z m 486 139 l 208 139 l 208 0 l 486 0 z "},"ơ":{"ha":694,"x_min":0,"x_max":0,"o":"m 625 903 l 486 903 l 486 694 l 625 694 z m 486 694 l 208 694 l 208 556 l 486 556 z m 208 139 l 208 556 l 69 556 l 69 139 z m 486 556 l 486 139 l 625 139 l 625 556 z m 486 139 l 208 139 l 208 0 l 486 0 z "},"ớ":{"ha":694,"x_min":0,"x_max":0,"o":"m 556 903 l 556 1042 l 417 1042 l 417 903 z m 417 764 l 417 903 l 278 903 l 278 764 z m 625 833 l 486 833 l 486 694 l 625 694 z m 486 694 l 208 694 l 208 556 l 486 556 z m 208 139 l 208 556 l 69 556 l 69 139 z m 486 556 l 486 139 l 625 139 l 625 556 z m 486 139 l 208 139 l 208 0 l 486 0 z "},"ợ":{"ha":694,"x_min":0,"x_max":0,"o":"m 625 903 l 486 903 l 486 694 l 625 694 z m 486 694 l 208 694 l 208 556 l 486 556 z m 208 139 l 208 556 l 69 556 l 69 139 z m 486 556 l 486 139 l 625 139 l 625 556 z m 486 139 l 208 139 l 208 0 l 486 0 z m 278 -69 l 278 -208 l 417 -208 l 417 -69 z "},"ờ":{"ha":694,"x_min":0,"x_max":0,"o":"m 278 903 l 278 1042 l 139 1042 l 139 903 z m 278 764 l 417 764 l 417 903 l 278 903 z m 625 833 l 486 833 l 486 694 l 625 694 z m 486 694 l 208 694 l 208 556 l 486 556 z m 208 139 l 208 556 l 69 556 l 69 139 z m 486 556 l 486 139 l 625 139 l 625 556 z m 486 139 l 208 139 l 208 0 l 486 0 z "},"ở":{"ha":694,"x_min":0,"x_max":0,"o":"m 278 903 l 278 764 l 417 764 l 417 1042 l 139 1042 l 139 903 z m 625 833 l 486 833 l 486 694 l 625 694 z m 486 694 l 208 694 l 208 556 l 486 556 z m 208 139 l 208 556 l 69 556 l 69 139 z m 486 556 l 486 139 l 625 139 l 625 556 z m 486 139 l 208 139 l 208 0 l 486 0 z "},"ỡ":{"ha":729,"x_min":0,"x_max":0,"o":"m 313 903 l 313 1042 l 174 1042 l 174 903 z m 590 903 l 590 1042 l 451 1042 l 451 903 z m 174 764 l 174 903 l 35 903 l 35 764 z m 313 764 l 451 764 l 451 903 l 313 903 z m 660 833 l 521 833 l 521 694 l 660 694 z m 521 694 l 243 694 l 243 556 l 521 556 z m 243 139 l 243 556 l 104 556 l 104 139 z m 521 556 l 521 139 l 660 139 l 660 556 z m 521 139 l 243 139 l 243 0 l 521 0 z "},"ő":{"ha":694,"x_min":0,"x_max":0,"o":"m 278 764 l 278 1042 l 139 1042 l 139 764 z m 556 764 l 556 1042 l 417 1042 l 417 764 z m 208 556 l 486 556 l 486 694 l 208 694 z m 208 139 l 208 556 l 69 556 l 69 139 z m 625 556 l 486 556 l 486 139 l 625 139 z m 486 139 l 208 139 l 208 0 l 486 0 z "},"ō":{"ha":694,"x_min":0,"x_max":0,"o":"m 139 764 l 556 764 l 556 903 l 139 903 z m 208 556 l 486 556 l 486 694 l 208 694 z m 208 139 l 208 556 l 69 556 l 69 139 z m 625 556 l 486 556 l 486 139 l 625 139 z m 486 139 l 208 139 l 208 0 l 486 0 z "},"ṓ":{"ha":694,"x_min":0,"x_max":0,"o":"m 556 1111 l 556 1250 l 417 1250 l 417 1111 z m 417 972 l 417 1111 l 278 1111 l 278 972 z m 139 764 l 556 764 l 556 903 l 139 903 z m 208 556 l 486 556 l 486 694 l 208 694 z m 208 139 l 208 556 l 69 556 l 69 139 z m 625 556 l 486 556 l 486 139 l 625 139 z m 486 139 l 208 139 l 208 0 l 486 0 z "},"ṑ":{"ha":694,"x_min":0,"x_max":0,"o":"m 278 1111 l 278 1250 l 139 1250 l 139 1111 z m 278 972 l 417 972 l 417 1111 l 278 1111 z m 139 764 l 556 764 l 556 903 l 139 903 z m 208 556 l 486 556 l 486 694 l 208 694 z m 208 139 l 208 556 l 69 556 l 69 139 z m 625 556 l 486 556 l 486 139 l 625 139 z m 486 139 l 208 139 l 208 0 l 486 0 z "},"ɔ":{"ha":625,"x_min":0,"x_max":0,"o":"m 417 694 l 69 694 l 69 556 l 417 556 z m 556 556 l 417 556 l 417 139 l 556 139 z m 417 139 l 69 139 l 69 0 l 417 0 z "},"ø":{"ha":694,"x_min":0,"x_max":0,"o":"m 625 556 l 486 556 l 486 694 l 208 694 l 208 556 l 347 556 l 347 347 l 486 347 l 486 139 l 625 139 z m 347 139 l 347 347 l 208 347 l 208 556 l 69 556 l 69 139 l 208 139 l 208 0 l 486 0 l 486 139 z "},"ǿ":{"ha":694,"x_min":0,"x_max":0,"o":"m 556 903 l 556 1042 l 417 1042 l 417 903 z m 417 764 l 417 903 l 278 903 l 278 764 z m 625 556 l 486 556 l 486 694 l 208 694 l 208 556 l 347 556 l 347 347 l 486 347 l 486 139 l 625 139 z m 347 139 l 347 347 l 208 347 l 208 556 l 69 556 l 69 139 l 208 139 l 208 0 l 486 0 l 486 139 z "},"õ":{"ha":694,"x_min":0,"x_max":0,"o":"m 347 1042 l 208 1042 l 208 903 l 347 903 z m 625 1042 l 486 1042 l 486 903 l 625 903 z m 69 903 l 69 764 l 208 764 l 208 903 z m 347 903 l 347 764 l 486 764 l 486 903 z m 208 556 l 486 556 l 486 694 l 208 694 z m 208 139 l 208 556 l 69 556 l 69 139 z m 486 556 l 486 139 l 625 139 l 625 556 z m 486 139 l 208 139 l 208 0 l 486 0 z "},"ṍ":{"ha":729,"x_min":0,"x_max":0,"o":"m 347 1111 l 347 1250 l 208 1250 l 208 1111 z m 208 972 l 208 1111 l 69 1111 l 69 972 z m 417 1042 l 278 1042 l 278 903 l 417 903 z m 694 1042 l 556 1042 l 556 903 l 694 903 z m 139 903 l 139 764 l 278 764 l 278 903 z m 417 903 l 417 764 l 556 764 l 556 903 z m 208 556 l 486 556 l 486 694 l 208 694 z m 208 139 l 208 556 l 69 556 l 69 139 z m 486 556 l 486 139 l 625 139 l 625 556 z m 486 139 l 208 139 l 208 0 l 486 0 z "},"œ":{"ha":1111,"x_min":0,"x_max":0,"o":"m 208 556 l 486 556 l 486 694 l 208 694 z m 625 556 l 903 556 l 903 694 l 625 694 z m 208 139 l 208 556 l 69 556 l 69 139 z m 1042 556 l 903 556 l 903 417 l 625 417 l 625 556 l 486 556 l 486 139 l 625 139 l 625 278 l 1042 278 z m 486 139 l 208 139 l 208 0 l 486 0 z m 625 0 l 972 0 l 972 139 l 625 139 z "},"p":{"ha":694,"x_min":0,"x_max":0,"o":"m 486 278 l 208 278 l 208 556 l 486 556 l 486 694 l 69 694 l 69 -278 l 208 -278 l 208 139 l 486 139 z m 625 556 l 486 556 l 486 278 l 625 278 z "},"ɸ":{"ha":972,"x_min":0,"x_max":0,"o":"m 764 139 l 556 139 l 556 625 l 764 625 l 764 764 l 556 764 l 556 1042 l 417 1042 l 417 764 l 208 764 l 208 625 l 417 625 l 417 139 l 208 139 l 208 0 l 417 0 l 417 -278 l 556 -278 l 556 0 l 764 0 z m 208 139 l 208 625 l 69 625 l 69 139 z m 903 625 l 764 625 l 764 139 l 903 139 z "},"ƥ":{"ha":694,"x_min":0,"x_max":0,"o":"m 208 833 l 417 833 l 417 972 l 208 972 z m 486 278 l 208 278 l 208 556 l 486 556 l 486 694 l 208 694 l 208 833 l 69 833 l 69 -278 l 208 -278 l 208 139 l 486 139 z m 625 556 l 486 556 l 486 278 l 625 278 z "},"þ":{"ha":694,"x_min":0,"x_max":0,"o":"m 486 208 l 208 208 l 208 625 l 486 625 l 486 764 l 208 764 l 208 1111 l 69 1111 l 69 -278 l 208 -278 l 208 69 l 486 69 z m 625 625 l 486 625 l 486 208 l 625 208 z "},"q":{"ha":660,"x_min":0,"x_max":0,"o":"m 590 694 l 174 694 l 174 556 l 451 556 l 451 278 l 174 278 l 174 139 l 451 139 l 451 -278 l 590 -278 z m 174 278 l 174 556 l 35 556 l 35 278 z "},"ɋ":{"ha":833,"x_min":0,"x_max":0,"o":"m 590 -139 l 590 694 l 174 694 l 174 556 l 451 556 l 451 278 l 174 278 l 174 139 l 451 139 l 451 -139 z m 174 278 l 174 556 l 35 556 l 35 278 z m 799 -139 l 590 -139 l 590 -278 l 799 -278 z "},"r":{"ha":521,"x_min":0,"x_max":0,"o":"m 486 694 l 69 694 l 69 0 l 208 0 l 208 556 l 486 556 z "},"ŕ":{"ha":521,"x_min":0,"x_max":0,"o":"m 486 1042 l 347 1042 l 347 903 l 486 903 z m 208 903 l 208 764 l 347 764 l 347 903 z m 486 694 l 69 694 l 69 0 l 208 0 l 208 556 l 486 556 z "},"ɤ":{"ha":833,"x_min":0,"x_max":0,"o":"m 208 556 l 208 764 l 69 764 l 69 556 z m 764 764 l 625 764 l 625 556 l 764 556 z m 347 556 l 208 556 l 208 417 l 347 417 z m 486 556 l 486 417 l 625 417 l 625 556 z m 347 417 l 347 278 l 486 278 l 486 417 z m 347 278 l 208 278 l 208 139 l 347 139 z m 486 139 l 625 139 l 625 278 l 486 278 z m 347 139 l 347 0 l 486 0 l 486 139 z "},"ř":{"ha":556,"x_min":0,"x_max":0,"o":"m 208 1042 l 69 1042 l 69 903 l 208 903 z m 486 1042 l 347 1042 l 347 903 l 486 903 z m 208 903 l 208 764 l 347 764 l 347 903 z m 486 694 l 69 694 l 69 0 l 208 0 l 208 556 l 486 556 z "},"ŗ":{"ha":625,"x_min":0,"x_max":0,"o":"m 590 694 l 174 694 l 174 0 l 313 0 l 313 556 l 590 556 z m 174 -69 l 174 -278 l 313 -278 l 313 -69 z m 35 -278 l 35 -417 l 174 -417 l 174 -278 z "},"ɾ":{"ha":521,"x_min":0,"x_max":0,"o":"m 486 694 l 208 694 l 208 556 l 486 556 z m 69 556 l 69 0 l 208 0 l 208 556 z "},"ɽ":{"ha":521,"x_min":0,"x_max":0,"o":"m 486 694 l 69 694 l 69 -139 l 208 -139 l 208 556 l 486 556 z m 208 -278 l 417 -278 l 417 -139 l 208 -139 z "},"ɻ":{"ha":694,"x_min":0,"x_max":0,"o":"m 451 -139 l 451 694 l 313 694 l 313 139 l 35 139 l 35 0 l 313 0 l 313 -139 z m 660 -139 l 451 -139 l 451 -278 l 660 -278 z "},"ɺ":{"ha":521,"x_min":0,"x_max":0,"o":"m 451 1111 l 313 1111 l 313 139 l 35 139 l 35 0 l 451 0 z "},"ɹ":{"ha":521,"x_min":0,"x_max":0,"o":"m 451 694 l 313 694 l 313 139 l 35 139 l 35 0 l 451 0 z "},"s":{"ha":625,"x_min":0,"x_max":0,"o":"m 174 556 l 521 556 l 521 694 l 174 694 z m 174 556 l 35 556 l 35 417 l 174 417 z m 451 417 l 174 417 l 174 278 l 451 278 z m 590 278 l 451 278 l 451 139 l 590 139 z m 451 139 l 104 139 l 104 0 l 451 0 z "},"ś":{"ha":625,"x_min":0,"x_max":0,"o":"m 521 903 l 521 1042 l 382 1042 l 382 903 z m 382 764 l 382 903 l 243 903 l 243 764 z m 174 556 l 521 556 l 521 694 l 174 694 z m 174 556 l 35 556 l 35 417 l 174 417 z m 451 417 l 174 417 l 174 278 l 451 278 z m 590 278 l 451 278 l 451 139 l 590 139 z m 451 139 l 104 139 l 104 0 l 451 0 z "},"ꞌ":{"ha":278,"x_min":0,"x_max":0,"o":"m 208 1042 l 69 1042 l 69 486 l 208 486 z "},"š":{"ha":625,"x_min":0,"x_max":0,"o":"m 243 903 l 243 1042 l 104 1042 l 104 903 z m 521 903 l 521 1042 l 382 1042 l 382 903 z m 243 764 l 382 764 l 382 903 l 243 903 z m 174 556 l 521 556 l 521 694 l 174 694 z m 174 556 l 35 556 l 35 417 l 174 417 z m 451 417 l 174 417 l 174 278 l 451 278 z m 590 278 l 451 278 l 451 139 l 590 139 z m 451 139 l 104 139 l 104 0 l 451 0 z "},"ş":{"ha":625,"x_min":0,"x_max":0,"o":"m 174 556 l 521 556 l 521 694 l 174 694 z m 174 556 l 35 556 l 35 417 l 174 417 z m 451 417 l 174 417 l 174 278 l 451 278 z m 590 278 l 451 278 l 451 139 l 590 139 z m 451 139 l 104 139 l 104 0 l 313 0 l 313 -139 l 451 -139 z m 174 -139 l 174 -278 l 313 -278 l 313 -139 z "},"ș":{"ha":625,"x_min":0,"x_max":0,"o":"m 174 556 l 521 556 l 521 694 l 174 694 z m 174 556 l 35 556 l 35 417 l 174 417 z m 451 417 l 174 417 l 174 278 l 451 278 z m 590 278 l 451 278 l 451 139 l 590 139 z m 451 139 l 104 139 l 104 0 l 451 0 z m 243 -69 l 243 -278 l 382 -278 l 382 -69 z m 104 -278 l 104 -417 l 243 -417 l 243 -278 z "},"ṣ":{"ha":625,"x_min":0,"x_max":0,"o":"m 174 556 l 521 556 l 521 694 l 174 694 z m 174 556 l 35 556 l 35 417 l 174 417 z m 451 417 l 174 417 l 174 278 l 451 278 z m 590 278 l 451 278 l 451 139 l 590 139 z m 451 139 l 104 139 l 104 0 l 451 0 z m 243 -69 l 243 -208 l 382 -208 l 382 -69 z "},"ß":{"ha":764,"x_min":0,"x_max":0,"o":"m 556 1111 l 208 1111 l 208 972 l 556 972 z m 69 972 l 69 0 l 208 0 l 208 972 z m 694 972 l 556 972 l 556 694 l 694 694 z m 556 694 l 347 694 l 347 556 l 556 556 z m 556 556 l 556 139 l 694 139 l 694 556 z m 556 139 l 347 139 l 347 0 l 556 0 z "},"ʂ":{"ha":625,"x_min":0,"x_max":0,"o":"m 174 556 l 521 556 l 521 694 l 174 694 z m 174 556 l 35 556 l 35 417 l 174 417 z m 451 417 l 174 417 l 174 278 l 451 278 z m 590 278 l 451 278 l 451 139 l 590 139 z m 451 139 l 104 139 l 104 -139 l 243 -139 l 243 0 l 451 0 z m 243 -278 l 451 -278 l 451 -139 l 243 -139 z "},"t":{"ha":486,"x_min":0,"x_max":0,"o":"m 451 694 l 313 694 l 313 833 l 174 833 l 174 694 l 35 694 l 35 556 l 174 556 l 174 0 l 313 0 l 313 556 l 451 556 z "},"ŧ":{"ha":556,"x_min":0,"x_max":0,"o":"m 486 694 l 347 694 l 347 833 l 208 833 l 208 694 l 69 694 l 69 556 l 208 556 l 208 417 l 69 417 l 69 278 l 208 278 l 208 0 l 347 0 l 347 278 l 486 278 l 486 417 l 347 417 l 347 556 l 486 556 z "},"ť":{"ha":556,"x_min":0,"x_max":0,"o":"m 521 1111 l 382 1111 l 382 833 l 521 833 z m 313 694 l 313 833 l 174 833 l 174 694 l 35 694 l 35 556 l 174 556 l 174 0 l 313 0 l 313 556 l 451 556 l 451 694 z "},"ţ":{"ha":521,"x_min":0,"x_max":0,"o":"m 451 694 l 313 694 l 313 833 l 174 833 l 174 694 l 35 694 l 35 556 l 174 556 l 174 0 l 313 0 l 313 -139 l 451 -139 l 451 139 l 313 139 l 313 556 l 451 556 z m 174 -139 l 174 -278 l 313 -278 l 313 -139 z "},"ṱ":{"ha":486,"x_min":0,"x_max":0,"o":"m 451 694 l 313 694 l 313 833 l 174 833 l 174 694 l 35 694 l 35 556 l 174 556 l 174 0 l 313 0 l 313 556 l 451 556 z m 313 -69 l 174 -69 l 174 -208 l 313 -208 z m 35 -208 l 35 -347 l 174 -347 l 174 -208 z m 313 -208 l 313 -347 l 451 -347 l 451 -208 z "},"ț":{"ha":486,"x_min":0,"x_max":0,"o":"m 451 694 l 313 694 l 313 833 l 174 833 l 174 694 l 35 694 l 35 556 l 174 556 l 174 0 l 313 0 l 313 556 l 451 556 z m 174 -69 l 174 -278 l 313 -278 l 313 -69 z m 35 -278 l 35 -417 l 174 -417 l 174 -278 z "},"ṭ":{"ha":486,"x_min":0,"x_max":0,"o":"m 451 694 l 313 694 l 313 833 l 174 833 l 174 694 l 35 694 l 35 556 l 174 556 l 174 0 l 313 0 l 313 556 l 451 556 z m 174 -69 l 174 -208 l 313 -208 l 313 -69 z "},"ʧ":{"ha":972,"x_min":0,"x_max":0,"o":"m 938 1111 l 729 1111 l 729 972 l 938 972 z m 590 972 l 590 694 l 313 694 l 313 833 l 174 833 l 174 694 l 35 694 l 35 556 l 174 556 l 174 0 l 313 0 l 313 556 l 590 556 l 590 -139 l 729 -139 l 729 972 z m 590 -139 l 382 -139 l 382 -278 l 590 -278 z "},"ƭ":{"ha":556,"x_min":0,"x_max":0,"o":"m 451 1042 l 313 1042 l 313 833 l 451 833 z m 174 833 l 174 694 l 35 694 l 35 556 l 174 556 l 174 0 l 313 0 l 313 556 l 451 556 l 451 694 l 313 694 l 313 833 z "},"ṯ":{"ha":556,"x_min":0,"x_max":0,"o":"m 486 694 l 347 694 l 347 833 l 208 833 l 208 694 l 69 694 l 69 556 l 208 556 l 208 0 l 347 0 l 347 556 l 486 556 z m 486 -69 l 69 -69 l 69 -208 l 486 -208 z "},"ʈ":{"ha":556,"x_min":0,"x_max":0,"o":"m 313 -139 l 313 556 l 451 556 l 451 694 l 313 694 l 313 833 l 174 833 l 174 694 l 35 694 l 35 556 l 174 556 l 174 -139 z m 521 -139 l 313 -139 l 313 -278 l 521 -278 z "},"u":{"ha":694,"x_min":0,"x_max":0,"o":"m 208 139 l 208 694 l 69 694 l 69 139 z m 625 694 l 486 694 l 486 139 l 208 139 l 208 0 l 625 0 z "},"ú":{"ha":694,"x_min":0,"x_max":0,"o":"m 556 903 l 556 1042 l 417 1042 l 417 903 z m 417 764 l 417 903 l 278 903 l 278 764 z m 208 139 l 208 694 l 69 694 l 69 139 z m 625 694 l 486 694 l 486 139 l 208 139 l 208 0 l 625 0 z "},"ʉ":{"ha":903,"x_min":0,"x_max":0,"o":"m 868 486 l 729 486 l 729 694 l 590 694 l 590 486 l 313 486 l 313 694 l 174 694 l 174 486 l 35 486 l 35 347 l 174 347 l 174 139 l 313 139 l 313 347 l 590 347 l 590 139 l 313 139 l 313 0 l 729 0 l 729 347 l 868 347 z "},"ǔ":{"ha":694,"x_min":0,"x_max":0,"o":"m 278 903 l 278 1042 l 139 1042 l 139 903 z m 556 903 l 556 1042 l 417 1042 l 417 903 z m 278 764 l 417 764 l 417 903 l 278 903 z m 208 139 l 208 694 l 69 694 l 69 139 z m 625 694 l 486 694 l 486 139 l 208 139 l 208 0 l 625 0 z "},"û":{"ha":694,"x_min":0,"x_max":0,"o":"m 417 903 l 417 1042 l 278 1042 l 278 903 z m 278 764 l 278 903 l 139 903 l 139 764 z m 417 764 l 556 764 l 556 903 l 417 903 z m 208 139 l 208 694 l 69 694 l 69 139 z m 625 694 l 486 694 l 486 139 l 208 139 l 208 0 l 625 0 z "},"ü":{"ha":694,"x_min":0,"x_max":0,"o":"m 278 764 l 278 903 l 139 903 l 139 764 z m 556 764 l 556 903 l 417 903 l 417 764 z m 208 139 l 208 694 l 69 694 l 69 139 z m 625 694 l 486 694 l 486 139 l 208 139 l 208 0 l 625 0 z "},"ǘ":{"ha":694,"x_min":0,"x_max":0,"o":"m 556 1111 l 556 1250 l 417 1250 l 417 1111 z m 417 972 l 417 1111 l 278 1111 l 278 972 z m 278 764 l 278 903 l 139 903 l 139 764 z m 417 903 l 417 764 l 556 764 l 556 903 z m 208 139 l 208 694 l 69 694 l 69 139 z m 625 694 l 486 694 l 486 139 l 208 139 l 208 0 l 625 0 z "},"ǚ":{"ha":694,"x_min":0,"x_max":0,"o":"m 278 1111 l 278 1250 l 139 1250 l 139 1111 z m 556 1111 l 556 1250 l 417 1250 l 417 1111 z m 278 972 l 417 972 l 417 1111 l 278 1111 z m 278 764 l 278 903 l 139 903 l 139 764 z m 417 903 l 417 764 l 556 764 l 556 903 z m 208 139 l 208 694 l 69 694 l 69 139 z m 625 694 l 486 694 l 486 139 l 208 139 l 208 0 l 625 0 z "},"ǜ":{"ha":694,"x_min":0,"x_max":0,"o":"m 278 1111 l 278 1250 l 139 1250 l 139 1111 z m 278 972 l 417 972 l 417 1111 l 278 1111 z m 278 764 l 278 903 l 139 903 l 139 764 z m 417 903 l 417 764 l 556 764 l 556 903 z m 208 139 l 208 694 l 69 694 l 69 139 z m 625 694 l 486 694 l 486 139 l 208 139 l 208 0 l 625 0 z "},"ǖ":{"ha":694,"x_min":0,"x_max":0,"o":"m 139 972 l 556 972 l 556 1111 l 139 1111 z m 278 764 l 278 903 l 139 903 l 139 764 z m 417 903 l 417 764 l 556 764 l 556 903 z m 208 139 l 208 694 l 69 694 l 69 139 z m 625 694 l 486 694 l 486 139 l 208 139 l 208 0 l 625 0 z "},"ụ":{"ha":694,"x_min":0,"x_max":0,"o":"m 208 139 l 208 694 l 69 694 l 69 139 z m 625 694 l 486 694 l 486 139 l 208 139 l 208 0 l 625 0 z m 278 -69 l 278 -208 l 417 -208 l 417 -69 z "},"ù":{"ha":694,"x_min":0,"x_max":0,"o":"m 278 903 l 278 1042 l 139 1042 l 139 903 z m 278 764 l 417 764 l 417 903 l 278 903 z m 208 139 l 208 694 l 69 694 l 69 139 z m 625 694 l 486 694 l 486 139 l 208 139 l 208 0 l 625 0 z "},"ủ":{"ha":694,"x_min":0,"x_max":0,"o":"m 278 903 l 278 764 l 417 764 l 417 1042 l 139 1042 l 139 903 z m 208 139 l 208 694 l 69 694 l 69 139 z m 625 694 l 486 694 l 486 139 l 208 139 l 208 0 l 625 0 z "},"ư":{"ha":799,"x_min":0,"x_max":0,"o":"m 764 903 l 625 903 l 625 694 l 764 694 z m 208 139 l 208 694 l 69 694 l 69 139 z m 486 694 l 486 139 l 208 139 l 208 0 l 625 0 l 625 694 z "},"ứ":{"ha":799,"x_min":0,"x_max":0,"o":"m 486 903 l 486 1042 l 347 1042 l 347 903 z m 347 764 l 347 903 l 208 903 l 208 764 z m 764 903 l 625 903 l 625 694 l 764 694 z m 208 139 l 208 694 l 69 694 l 69 139 z m 486 694 l 486 139 l 208 139 l 208 0 l 625 0 l 625 694 z "},"ự":{"ha":799,"x_min":0,"x_max":0,"o":"m 764 903 l 625 903 l 625 694 l 764 694 z m 208 139 l 208 694 l 69 694 l 69 139 z m 486 694 l 486 139 l 208 139 l 208 0 l 625 0 l 625 694 z m 278 -69 l 278 -208 l 417 -208 l 417 -69 z "},"ừ":{"ha":799,"x_min":0,"x_max":0,"o":"m 278 903 l 278 1042 l 139 1042 l 139 903 z m 278 764 l 417 764 l 417 903 l 278 903 z m 764 903 l 625 903 l 625 694 l 764 694 z m 208 139 l 208 694 l 69 694 l 69 139 z m 486 694 l 486 139 l 208 139 l 208 0 l 625 0 l 625 694 z "},"ử":{"ha":799,"x_min":0,"x_max":0,"o":"m 278 903 l 278 764 l 417 764 l 417 1042 l 139 1042 l 139 903 z m 764 903 l 625 903 l 625 694 l 764 694 z m 208 139 l 208 694 l 69 694 l 69 139 z m 486 694 l 486 139 l 208 139 l 208 0 l 625 0 l 625 694 z "},"ữ":{"ha":799,"x_min":0,"x_max":0,"o":"m 347 903 l 347 1042 l 208 1042 l 208 903 z m 625 903 l 625 1042 l 486 1042 l 486 903 z m 208 764 l 208 903 l 69 903 l 69 764 z m 347 764 l 486 764 l 486 903 l 347 903 z m 764 833 l 625 833 l 625 694 l 764 694 z m 208 139 l 208 694 l 69 694 l 69 139 z m 486 694 l 486 139 l 208 139 l 208 0 l 625 0 l 625 694 z "},"ű":{"ha":694,"x_min":0,"x_max":0,"o":"m 278 764 l 278 1042 l 139 1042 l 139 764 z m 556 764 l 556 1042 l 417 1042 l 417 764 z m 208 139 l 208 694 l 69 694 l 69 139 z m 625 694 l 486 694 l 486 139 l 208 139 l 208 0 l 625 0 z "},"ū":{"ha":694,"x_min":0,"x_max":0,"o":"m 139 764 l 556 764 l 556 903 l 139 903 z m 208 139 l 208 694 l 69 694 l 69 139 z m 625 694 l 486 694 l 486 139 l 208 139 l 208 0 l 625 0 z "},"ų":{"ha":694,"x_min":0,"x_max":0,"o":"m 208 139 l 208 694 l 69 694 l 69 139 z m 625 694 l 486 694 l 486 139 l 208 139 l 208 0 l 625 0 z m 69 0 l 69 -139 l 208 -139 l 208 0 z m 208 -278 l 347 -278 l 347 -139 l 208 -139 z "},"ʊ":{"ha":903,"x_min":0,"x_max":0,"o":"m 243 764 l 35 764 l 35 625 l 243 625 z m 868 764 l 660 764 l 660 625 l 868 625 z m 382 486 l 382 625 l 243 625 l 243 486 z m 521 625 l 521 486 l 660 486 l 660 625 z m 243 139 l 243 486 l 104 486 l 104 139 z m 660 486 l 660 139 l 799 139 l 799 486 z m 660 139 l 243 139 l 243 0 l 660 0 z "},"ů":{"ha":694,"x_min":0,"x_max":0,"o":"m 417 1042 l 417 1181 l 278 1181 l 278 1042 z m 278 903 l 278 1042 l 139 1042 l 139 903 z m 417 903 l 556 903 l 556 1042 l 417 1042 z m 278 903 l 278 764 l 417 764 l 417 903 z m 208 139 l 208 694 l 69 694 l 69 139 z m 625 694 l 486 694 l 486 139 l 208 139 l 208 0 l 625 0 z "},"ũ":{"ha":694,"x_min":0,"x_max":0,"o":"m 347 1042 l 208 1042 l 208 903 l 347 903 z m 625 1042 l 486 1042 l 486 903 l 625 903 z m 69 903 l 69 764 l 208 764 l 208 903 z m 347 903 l 347 764 l 486 764 l 486 903 z m 208 139 l 208 694 l 69 694 l 69 139 z m 486 694 l 486 139 l 208 139 l 208 0 l 625 0 l 625 694 z "},"v":{"ha":833,"x_min":0,"x_max":0,"o":"m 208 278 l 208 694 l 69 694 l 69 278 z m 764 694 l 625 694 l 625 278 l 764 278 z m 347 278 l 208 278 l 208 139 l 347 139 z m 486 278 l 486 139 l 625 139 l 625 278 z m 347 139 l 347 0 l 486 0 l 486 139 z "},"ʋ":{"ha":833,"x_min":0,"x_max":0,"o":"m 208 278 l 208 694 l 69 694 l 69 278 z m 625 694 l 417 694 l 417 556 l 625 556 z m 764 556 l 625 556 l 625 278 l 764 278 z m 347 278 l 208 278 l 208 139 l 347 139 z m 486 278 l 486 139 l 625 139 l 625 278 z m 347 139 l 347 0 l 486 0 l 486 139 z "},"ʌ":{"ha":833,"x_min":0,"x_max":0,"o":"m 486 694 l 347 694 l 347 556 l 486 556 z m 208 556 l 208 417 l 347 417 l 347 556 z m 625 556 l 486 556 l 486 417 l 625 417 z m 69 417 l 69 0 l 208 0 l 208 417 z m 764 417 l 625 417 l 625 0 l 764 0 z "},"w":{"ha":1111,"x_min":0,"x_max":0,"o":"m 208 139 l 208 694 l 69 694 l 69 139 z m 625 139 l 625 694 l 486 694 l 486 139 z m 1042 694 l 903 694 l 903 139 l 625 139 l 625 0 l 1042 0 z m 486 139 l 208 139 l 208 0 l 486 0 z "},"ẃ":{"ha":1111,"x_min":0,"x_max":0,"o":"m 764 903 l 764 1042 l 625 1042 l 625 903 z m 625 764 l 625 903 l 486 903 l 486 764 z m 208 139 l 208 694 l 69 694 l 69 139 z m 625 139 l 625 694 l 486 694 l 486 139 z m 1042 694 l 903 694 l 903 139 l 625 139 l 625 0 l 1042 0 z m 486 139 l 208 139 l 208 0 l 486 0 z "},"ŵ":{"ha":1111,"x_min":0,"x_max":0,"o":"m 625 903 l 625 1042 l 486 1042 l 486 903 z m 486 764 l 486 903 l 347 903 l 347 764 z m 625 764 l 764 764 l 764 903 l 625 903 z m 208 139 l 208 694 l 69 694 l 69 139 z m 625 139 l 625 694 l 486 694 l 486 139 z m 1042 694 l 903 694 l 903 139 l 625 139 l 625 0 l 1042 0 z m 486 139 l 208 139 l 208 0 l 486 0 z "},"ẅ":{"ha":1111,"x_min":0,"x_max":0,"o":"m 486 764 l 486 903 l 347 903 l 347 764 z m 764 764 l 764 903 l 625 903 l 625 764 z m 208 139 l 208 694 l 69 694 l 69 139 z m 625 139 l 625 694 l 486 694 l 486 139 z m 1042 694 l 903 694 l 903 139 l 625 139 l 625 0 l 1042 0 z m 486 139 l 208 139 l 208 0 l 486 0 z "},"ẁ":{"ha":1111,"x_min":0,"x_max":0,"o":"m 486 903 l 486 1042 l 347 1042 l 347 903 z m 486 764 l 625 764 l 625 903 l 486 903 z m 208 139 l 208 694 l 69 694 l 69 139 z m 625 139 l 625 694 l 486 694 l 486 139 z m 1042 694 l 903 694 l 903 139 l 625 139 l 625 0 l 1042 0 z m 486 139 l 208 139 l 208 0 l 486 0 z "},"ⱳ":{"ha":1285,"x_min":0,"x_max":0,"o":"m 208 139 l 208 694 l 69 694 l 69 139 z m 625 139 l 625 694 l 486 694 l 486 139 z m 1250 694 l 1042 694 l 1042 556 l 1250 556 z m 903 556 l 903 139 l 625 139 l 625 0 l 1042 0 l 1042 556 z m 486 139 l 208 139 l 208 0 l 486 0 z "},"ʍ":{"ha":1111,"x_min":0,"x_max":0,"o":"m 486 694 l 208 694 l 208 556 l 486 556 z m 1042 694 l 625 694 l 625 556 l 903 556 l 903 0 l 1042 0 z m 69 556 l 69 0 l 208 0 l 208 556 z m 486 556 l 486 0 l 625 0 l 625 556 z "},"x":{"ha":694,"x_min":0,"x_max":0,"o":"m 208 417 l 208 694 l 69 694 l 69 417 z m 625 694 l 486 694 l 486 417 l 625 417 z m 486 417 l 208 417 l 208 278 l 486 278 z m 69 278 l 69 0 l 208 0 l 208 278 z m 486 278 l 486 0 l 625 0 l 625 278 z "},"y":{"ha":694,"x_min":0,"x_max":0,"o":"m 208 278 l 208 694 l 69 694 l 69 278 z m 625 694 l 486 694 l 486 278 l 208 278 l 208 139 l 486 139 l 486 -139 l 625 -139 z m 486 -139 l 139 -139 l 139 -278 l 486 -278 z "},"ý":{"ha":694,"x_min":0,"x_max":0,"o":"m 556 903 l 556 1042 l 417 1042 l 417 903 z m 417 764 l 417 903 l 278 903 l 278 764 z m 208 278 l 208 694 l 69 694 l 69 278 z m 625 694 l 486 694 l 486 278 l 208 278 l 208 139 l 486 139 l 486 -139 l 625 -139 z m 486 -139 l 139 -139 l 139 -278 l 486 -278 z "},"ŷ":{"ha":694,"x_min":0,"x_max":0,"o":"m 417 903 l 417 1042 l 278 1042 l 278 903 z m 278 764 l 278 903 l 139 903 l 139 764 z m 417 764 l 556 764 l 556 903 l 417 903 z m 208 278 l 208 694 l 69 694 l 69 278 z m 625 694 l 486 694 l 486 278 l 208 278 l 208 139 l 486 139 l 486 -139 l 625 -139 z m 486 -139 l 139 -139 l 139 -278 l 486 -278 z "},"ÿ":{"ha":694,"x_min":0,"x_max":0,"o":"m 278 764 l 278 903 l 139 903 l 139 764 z m 556 764 l 556 903 l 417 903 l 417 764 z m 208 278 l 208 694 l 69 694 l 69 278 z m 625 694 l 486 694 l 486 278 l 208 278 l 208 139 l 486 139 l 486 -139 l 625 -139 z m 486 -139 l 139 -139 l 139 -278 l 486 -278 z "},"ỵ":{"ha":868,"x_min":0,"x_max":0,"o":"m 208 278 l 208 694 l 69 694 l 69 278 z m 486 694 l 486 278 l 208 278 l 208 139 l 486 139 l 486 -139 l 625 -139 l 625 694 z m 486 -139 l 139 -139 l 139 -278 l 486 -278 z m 833 -139 l 694 -139 l 694 -278 l 833 -278 z "},"ỳ":{"ha":694,"x_min":0,"x_max":0,"o":"m 278 903 l 278 1042 l 139 1042 l 139 903 z m 278 764 l 417 764 l 417 903 l 278 903 z m 208 278 l 208 694 l 69 694 l 69 278 z m 625 694 l 486 694 l 486 278 l 208 278 l 208 139 l 486 139 l 486 -139 l 625 -139 z m 486 -139 l 139 -139 l 139 -278 l 486 -278 z "},"ƴ":{"ha":868,"x_min":0,"x_max":0,"o":"m 833 972 l 625 972 l 625 833 l 833 833 z m 486 833 l 486 278 l 208 278 l 208 139 l 486 139 l 486 -139 l 625 -139 l 625 833 z m 208 278 l 208 694 l 69 694 l 69 278 z m 486 -139 l 139 -139 l 139 -278 l 486 -278 z "},"ỷ":{"ha":694,"x_min":0,"x_max":0,"o":"m 278 903 l 278 764 l 417 764 l 417 1042 l 139 1042 l 139 903 z m 208 278 l 208 694 l 69 694 l 69 278 z m 625 694 l 486 694 l 486 278 l 208 278 l 208 139 l 486 139 l 486 -139 l 625 -139 z m 486 -139 l 139 -139 l 139 -278 l 486 -278 z "},"ỹ":{"ha":694,"x_min":0,"x_max":0,"o":"m 347 1042 l 208 1042 l 208 903 l 347 903 z m 625 1042 l 486 1042 l 486 903 l 625 903 z m 69 903 l 69 764 l 208 764 l 208 903 z m 347 903 l 347 764 l 486 764 l 486 903 z m 208 278 l 208 694 l 69 694 l 69 278 z m 486 694 l 486 278 l 208 278 l 208 139 l 486 139 l 486 -139 l 625 -139 l 625 694 z m 486 -139 l 139 -139 l 139 -278 l 486 -278 z "},"ʎ":{"ha":694,"x_min":0,"x_max":0,"o":"m 208 833 l 556 833 l 556 972 l 208 972 z m 486 556 l 208 556 l 208 833 l 69 833 l 69 0 l 208 0 l 208 417 l 486 417 z m 625 417 l 486 417 l 486 0 l 625 0 z "},"z":{"ha":625,"x_min":0,"x_max":0,"o":"m 556 694 l 69 694 l 69 556 l 417 556 l 417 417 l 556 417 z m 417 417 l 208 417 l 208 278 l 417 278 z m 69 278 l 69 0 l 556 0 l 556 139 l 208 139 l 208 278 z "},"ź":{"ha":625,"x_min":0,"x_max":0,"o":"m 521 903 l 521 1042 l 382 1042 l 382 903 z m 382 764 l 382 903 l 243 903 l 243 764 z m 556 694 l 69 694 l 69 556 l 417 556 l 417 417 l 556 417 z m 417 417 l 208 417 l 208 278 l 417 278 z m 69 278 l 69 0 l 556 0 l 556 139 l 208 139 l 208 278 z "},"ž":{"ha":625,"x_min":0,"x_max":0,"o":"m 243 903 l 243 1042 l 104 1042 l 104 903 z m 521 903 l 521 1042 l 382 1042 l 382 903 z m 243 764 l 382 764 l 382 903 l 243 903 z m 556 694 l 69 694 l 69 556 l 417 556 l 417 417 l 556 417 z m 417 417 l 208 417 l 208 278 l 417 278 z m 69 278 l 69 0 l 556 0 l 556 139 l 208 139 l 208 278 z "},"ʑ":{"ha":938,"x_min":0,"x_max":0,"o":"m 556 417 l 556 694 l 69 694 l 69 556 l 417 556 l 417 417 z m 208 278 l 417 278 l 417 417 l 208 417 z m 764 278 l 764 417 l 625 417 l 625 278 z m 625 139 l 625 278 l 486 278 l 486 139 l 208 139 l 208 278 l 69 278 l 69 0 l 417 0 l 417 -278 l 556 -278 l 556 0 l 764 0 l 764 139 z m 903 278 l 764 278 l 764 139 l 903 139 z "},"ż":{"ha":625,"x_min":0,"x_max":0,"o":"m 382 764 l 382 903 l 243 903 l 243 764 z m 556 694 l 69 694 l 69 556 l 417 556 l 417 417 l 556 417 z m 417 417 l 208 417 l 208 278 l 417 278 z m 69 278 l 69 0 l 556 0 l 556 139 l 208 139 l 208 278 z "},"ẓ":{"ha":625,"x_min":0,"x_max":0,"o":"m 556 694 l 69 694 l 69 556 l 417 556 l 417 417 l 556 417 z m 417 417 l 208 417 l 208 278 l 417 278 z m 69 278 l 69 0 l 556 0 l 556 139 l 208 139 l 208 278 z m 243 -69 l 243 -208 l 382 -208 l 382 -69 z "},"ʐ":{"ha":799,"x_min":0,"x_max":0,"o":"m 556 417 l 556 694 l 69 694 l 69 556 l 417 556 l 417 417 z m 208 278 l 417 278 l 417 417 l 208 417 z m 556 -139 l 556 139 l 208 139 l 208 278 l 69 278 l 69 0 l 417 0 l 417 -139 z m 764 -139 l 556 -139 l 556 -278 l 764 -278 z "},"ﬁ":{"ha":799,"x_min":0,"x_max":0,"o":"m 521 1111 l 313 1111 l 313 972 l 521 972 z m 174 972 l 174 694 l 35 694 l 35 556 l 174 556 l 174 0 l 313 0 l 313 556 l 451 556 l 451 694 l 313 694 l 313 972 z m 729 903 l 590 903 l 590 764 l 729 764 z m 590 694 l 590 0 l 729 0 l 729 694 z "},"ﬂ":{"ha":833,"x_min":0,"x_max":0,"o":"m 521 1111 l 313 1111 l 313 972 l 521 972 z m 764 1111 l 625 1111 l 625 0 l 764 0 z m 174 972 l 174 694 l 35 694 l 35 556 l 174 556 l 174 0 l 313 0 l 313 556 l 451 556 l 451 694 l 313 694 l 313 972 z "},"ª":{"ha":660,"x_min":0,"x_max":0,"o":"m 451 1250 l 104 1250 l 104 1111 l 451 1111 z m 590 1111 l 451 1111 l 451 972 l 174 972 l 174 833 l 451 833 l 451 694 l 174 694 l 174 556 l 590 556 z m 174 833 l 35 833 l 35 694 l 174 694 z "},"º":{"ha":694,"x_min":0,"x_max":0,"o":"m 208 1111 l 486 1111 l 486 1250 l 208 1250 z m 208 694 l 208 1111 l 69 1111 l 69 694 z m 625 1111 l 486 1111 l 486 694 l 625 694 z m 486 694 l 208 694 l 208 556 l 486 556 z "},"ǂ":{"ha":625,"x_min":0,"x_max":0,"o":"m 590 694 l 382 694 l 382 1111 l 243 1111 l 243 694 l 35 694 l 35 556 l 243 556 l 243 417 l 35 417 l 35 278 l 243 278 l 243 -278 l 382 -278 l 382 278 l 590 278 l 590 417 l 382 417 l 382 556 l 590 556 z "},"ǀ":{"ha":278,"x_min":0,"x_max":0,"o":"m 208 1111 l 69 1111 l 69 -278 l 208 -278 z "},"ǁ":{"ha":556,"x_min":0,"x_max":0,"o":"m 69 1111 l 69 -278 l 208 -278 l 208 1111 z m 486 1111 l 347 1111 l 347 -278 l 486 -278 z "},"ǃ":{"ha":278,"x_min":0,"x_max":0,"o":"m 208 1042 l 69 1042 l 69 278 l 208 278 z m 69 139 l 69 0 l 208 0 l 208 139 z "},"Α":{"ha":833,"x_min":0,"x_max":0,"o":"m 208 903 l 625 903 l 625 1042 l 208 1042 z m 764 903 l 625 903 l 625 486 l 208 486 l 208 903 l 69 903 l 69 0 l 208 0 l 208 347 l 625 347 l 625 0 l 764 0 z "},"Β":{"ha":833,"x_min":0,"x_max":0,"o":"m 625 625 l 208 625 l 208 903 l 625 903 l 625 1042 l 69 1042 l 69 0 l 625 0 l 625 139 l 208 139 l 208 486 l 625 486 z m 764 903 l 625 903 l 625 625 l 764 625 z m 625 486 l 625 139 l 764 139 l 764 486 z "},"Γ":{"ha":660,"x_min":0,"x_max":0,"o":"m 625 1042 l 69 1042 l 69 0 l 208 0 l 208 903 l 625 903 z "},"Δ":{"ha":833,"x_min":0,"x_max":0,"o":"m 486 764 l 486 1042 l 347 1042 l 347 764 z m 347 417 l 347 764 l 208 764 l 208 417 z m 486 764 l 486 417 l 625 417 l 625 764 z m 764 417 l 625 417 l 625 139 l 208 139 l 208 417 l 69 417 l 69 0 l 764 0 z "},"Ε":{"ha":694,"x_min":0,"x_max":0,"o":"m 625 1042 l 69 1042 l 69 0 l 625 0 l 625 139 l 208 139 l 208 486 l 625 486 l 625 625 l 208 625 l 208 903 l 625 903 z "},"Ζ":{"ha":833,"x_min":0,"x_max":0,"o":"m 764 1042 l 69 1042 l 69 903 l 625 903 l 625 764 l 764 764 z m 486 764 l 486 625 l 625 625 l 625 764 z m 347 625 l 347 417 l 486 417 l 486 625 z m 208 417 l 208 278 l 347 278 l 347 417 z m 69 278 l 69 0 l 764 0 l 764 139 l 208 139 l 208 278 z "},"Η":{"ha":833,"x_min":0,"x_max":0,"o":"m 764 1042 l 625 1042 l 625 625 l 208 625 l 208 1042 l 69 1042 l 69 0 l 208 0 l 208 486 l 625 486 l 625 0 l 764 0 z "},"Θ":{"ha":833,"x_min":0,"x_max":0,"o":"m 208 903 l 625 903 l 625 1042 l 208 1042 z m 208 139 l 208 903 l 69 903 l 69 139 z m 764 903 l 625 903 l 625 139 l 764 139 z m 556 590 l 278 590 l 278 451 l 556 451 z m 625 139 l 208 139 l 208 0 l 625 0 z "},"Ι":{"ha":278,"x_min":0,"x_max":0,"o":"m 208 1042 l 69 1042 l 69 0 l 208 0 z "},"Κ":{"ha":764,"x_min":0,"x_max":0,"o":"m 556 625 l 208 625 l 208 1042 l 69 1042 l 69 0 l 208 0 l 208 486 l 556 486 z m 694 1042 l 556 1042 l 556 625 l 694 625 z m 556 486 l 556 0 l 694 0 l 694 486 z "},"Λ":{"ha":833,"x_min":0,"x_max":0,"o":"m 486 833 l 486 1042 l 347 1042 l 347 833 z m 208 833 l 208 625 l 347 625 l 347 833 z m 625 625 l 625 833 l 486 833 l 486 625 z m 69 625 l 69 0 l 208 0 l 208 625 z m 764 625 l 625 625 l 625 0 l 764 0 z "},"Μ":{"ha":1111,"x_min":0,"x_max":0,"o":"m 347 625 l 347 833 l 208 833 l 208 1042 l 69 1042 l 69 0 l 208 0 l 208 625 z m 1042 1042 l 903 1042 l 903 833 l 764 833 l 764 625 l 903 625 l 903 0 l 1042 0 z m 486 347 l 486 625 l 347 625 l 347 347 z m 625 625 l 625 347 l 764 347 l 764 625 z m 486 347 l 486 139 l 625 139 l 625 347 z "},"Ν":{"ha":833,"x_min":0,"x_max":0,"o":"m 347 660 l 347 868 l 208 868 l 208 1042 l 69 1042 l 69 0 l 208 0 l 208 660 z m 764 1042 l 625 1042 l 625 382 l 486 382 l 486 174 l 625 174 l 625 0 l 764 0 z m 486 382 l 486 660 l 347 660 l 347 382 z "},"Ξ":{"ha":764,"x_min":0,"x_max":0,"o":"m 694 1042 l 69 1042 l 69 903 l 694 903 z m 139 486 l 625 486 l 625 625 l 139 625 z m 694 139 l 69 139 l 69 0 l 694 0 z "},"Ο":{"ha":833,"x_min":0,"x_max":0,"o":"m 208 903 l 625 903 l 625 1042 l 208 1042 z m 208 139 l 208 903 l 69 903 l 69 139 z m 764 903 l 625 903 l 625 139 l 764 139 z m 625 139 l 208 139 l 208 0 l 625 0 z "},"Π":{"ha":833,"x_min":0,"x_max":0,"o":"m 764 1042 l 69 1042 l 69 0 l 208 0 l 208 903 l 625 903 l 625 0 l 764 0 z "},"Ρ":{"ha":833,"x_min":0,"x_max":0,"o":"m 625 625 l 208 625 l 208 903 l 625 903 l 625 1042 l 69 1042 l 69 0 l 208 0 l 208 486 l 625 486 z m 764 903 l 625 903 l 625 625 l 764 625 z "},"Σ":{"ha":764,"x_min":0,"x_max":0,"o":"m 694 1042 l 69 1042 l 69 764 l 208 764 l 208 903 l 694 903 z m 208 625 l 347 625 l 347 764 l 208 764 z m 347 625 l 347 417 l 486 417 l 486 625 z m 208 417 l 208 278 l 347 278 l 347 417 z m 69 278 l 69 0 l 694 0 l 694 139 l 208 139 l 208 278 z "},"Τ":{"ha":764,"x_min":0,"x_max":0,"o":"m 729 1042 l 35 1042 l 35 903 l 313 903 l 313 0 l 451 0 l 451 903 l 729 903 z "},"Υ":{"ha":833,"x_min":0,"x_max":0,"o":"m 208 625 l 208 1042 l 69 1042 l 69 625 z m 764 1042 l 625 1042 l 625 625 l 764 625 z m 625 625 l 208 625 l 208 486 l 347 486 l 347 0 l 486 0 l 486 486 l 625 486 z "},"Φ":{"ha":972,"x_min":0,"x_max":0,"o":"m 764 278 l 556 278 l 556 764 l 764 764 l 764 903 l 556 903 l 556 1042 l 417 1042 l 417 903 l 208 903 l 208 764 l 417 764 l 417 278 l 208 278 l 208 139 l 417 139 l 417 0 l 556 0 l 556 139 l 764 139 z m 208 278 l 208 764 l 69 764 l 69 278 z m 903 764 l 764 764 l 764 278 l 903 278 z "},"Χ":{"ha":833,"x_min":0,"x_max":0,"o":"m 208 625 l 208 1042 l 69 1042 l 69 625 z m 764 1042 l 625 1042 l 625 625 l 764 625 z m 625 625 l 208 625 l 208 486 l 625 486 z m 69 486 l 69 0 l 208 0 l 208 486 z m 625 486 l 625 0 l 764 0 l 764 486 z "},"Ψ":{"ha":972,"x_min":0,"x_max":0,"o":"m 208 417 l 208 1042 l 69 1042 l 69 417 z m 764 417 l 556 417 l 556 1042 l 417 1042 l 417 417 l 208 417 l 208 278 l 417 278 l 417 0 l 556 0 l 556 278 l 764 278 z m 903 1042 l 764 1042 l 764 417 l 903 417 z "},"Ω":{"ha":1042,"x_min":0,"x_max":0,"o":"m 729 1042 l 313 1042 l 313 903 l 729 903 z m 174 903 l 174 694 l 313 694 l 313 903 z m 868 694 l 868 903 l 729 903 l 729 694 z m 35 694 l 35 486 l 174 486 l 174 694 z m 1007 694 l 868 694 l 868 486 l 1007 486 z m 174 486 l 174 278 l 313 278 l 313 486 z m 729 486 l 729 278 l 868 278 l 868 486 z m 313 139 l 104 139 l 104 0 l 451 0 l 451 278 l 313 278 z m 590 278 l 590 0 l 938 0 l 938 139 l 729 139 l 729 278 z "},"Ά":{"ha":903,"x_min":0,"x_max":0,"o":"m 347 1146 l 347 1285 l 208 1285 l 208 1146 z m 208 1007 l 208 1146 l 69 1146 l 69 1007 z m 278 903 l 694 903 l 694 1042 l 278 1042 z m 833 903 l 694 903 l 694 486 l 278 486 l 278 903 l 139 903 l 139 0 l 278 0 l 278 347 l 694 347 l 694 0 l 833 0 z "},"Έ":{"ha":868,"x_min":0,"x_max":0,"o":"m 313 1146 l 313 1285 l 174 1285 l 174 1146 z m 35 1146 l 35 1007 l 174 1007 l 174 1146 z m 799 1042 l 243 1042 l 243 0 l 799 0 l 799 139 l 382 139 l 382 486 l 799 486 l 799 625 l 382 625 l 382 903 l 799 903 z "},"Ή":{"ha":1007,"x_min":0,"x_max":0,"o":"m 313 1146 l 313 1285 l 174 1285 l 174 1146 z m 35 1146 l 35 1007 l 174 1007 l 174 1146 z m 938 1042 l 799 1042 l 799 625 l 382 625 l 382 1042 l 243 1042 l 243 0 l 382 0 l 382 486 l 799 486 l 799 0 l 938 0 z "},"Ί":{"ha":451,"x_min":0,"x_max":0,"o":"m 313 1146 l 313 1285 l 174 1285 l 174 1146 z m 35 1146 l 35 1007 l 174 1007 l 174 1146 z m 382 1042 l 243 1042 l 243 0 l 382 0 z "},"Ό":{"ha":903,"x_min":0,"x_max":0,"o":"m 347 1146 l 347 1285 l 208 1285 l 208 1146 z m 208 1007 l 208 1146 l 69 1146 l 69 1007 z m 278 903 l 694 903 l 694 1042 l 278 1042 z m 278 139 l 278 903 l 139 903 l 139 139 z m 833 903 l 694 903 l 694 139 l 833 139 z m 694 139 l 278 139 l 278 0 l 694 0 z "},"Ύ":{"ha":1007,"x_min":0,"x_max":0,"o":"m 313 1146 l 313 1285 l 174 1285 l 174 1146 z m 35 1146 l 35 1007 l 174 1007 l 174 1146 z m 382 625 l 382 1042 l 243 1042 l 243 625 z m 938 1042 l 799 1042 l 799 625 l 938 625 z m 799 625 l 382 625 l 382 486 l 521 486 l 521 0 l 660 0 l 660 486 l 799 486 z "},"Ώ":{"ha":1042,"x_min":0,"x_max":0,"o":"m 382 1146 l 382 1285 l 243 1285 l 243 1146 z m 243 1007 l 243 1146 l 104 1146 l 104 1007 z m 729 1042 l 313 1042 l 313 903 l 729 903 z m 174 903 l 174 694 l 313 694 l 313 903 z m 868 694 l 868 903 l 729 903 l 729 694 z m 35 694 l 35 486 l 174 486 l 174 694 z m 1007 694 l 868 694 l 868 486 l 1007 486 z m 174 486 l 174 278 l 313 278 l 313 486 z m 729 486 l 729 278 l 868 278 l 868 486 z m 313 139 l 104 139 l 104 0 l 451 0 l 451 278 l 313 278 z m 590 278 l 590 0 l 938 0 l 938 139 l 729 139 l 729 278 z "},"Ϊ":{"ha":486,"x_min":0,"x_max":0,"o":"m 174 1076 l 174 1215 l 35 1215 l 35 1076 z m 451 1215 l 313 1215 l 313 1076 l 451 1076 z m 174 1042 l 174 0 l 313 0 l 313 1042 z "},"Ϋ":{"ha":833,"x_min":0,"x_max":0,"o":"m 347 1076 l 347 1215 l 208 1215 l 208 1076 z m 625 1076 l 625 1215 l 486 1215 l 486 1076 z m 208 625 l 208 1042 l 69 1042 l 69 625 z m 764 1042 l 625 1042 l 625 625 l 764 625 z m 625 625 l 208 625 l 208 486 l 347 486 l 347 0 l 486 0 l 486 486 l 625 486 z "},"α":{"ha":694,"x_min":0,"x_max":0,"o":"m 208 556 l 486 556 l 486 694 l 208 694 z m 208 139 l 208 556 l 69 556 l 69 139 z m 625 556 l 486 556 l 486 139 l 208 139 l 208 0 l 625 0 z "},"β":{"ha":694,"x_min":0,"x_max":0,"o":"m 208 833 l 486 833 l 486 972 l 208 972 z m 486 139 l 208 139 l 208 833 l 69 833 l 69 -278 l 208 -278 l 208 0 l 486 0 z m 625 833 l 486 833 l 486 556 l 625 556 z m 347 556 l 347 417 l 486 417 l 486 556 z m 486 417 l 486 139 l 625 139 l 625 417 z "},"γ":{"ha":833,"x_min":0,"x_max":0,"o":"m 208 417 l 208 694 l 69 694 l 69 417 z m 764 694 l 625 694 l 625 417 l 764 417 z m 347 208 l 347 417 l 208 417 l 208 208 z m 486 417 l 486 208 l 625 208 l 625 417 z m 347 208 l 347 69 l 486 69 l 486 208 z m 347 -139 l 347 69 l 208 69 l 208 -139 z m 486 69 l 486 -139 l 625 -139 l 625 69 z m 347 -139 l 347 -278 l 486 -278 l 486 -139 z "},"δ":{"ha":694,"x_min":0,"x_max":0,"o":"m 208 833 l 556 833 l 556 972 l 208 972 z m 208 139 l 208 556 l 486 556 l 486 694 l 208 694 l 208 833 l 69 833 l 69 139 z m 625 556 l 486 556 l 486 139 l 625 139 z m 486 139 l 208 139 l 208 0 l 486 0 z "},"ε":{"ha":625,"x_min":0,"x_max":0,"o":"m 556 694 l 208 694 l 208 556 l 556 556 z m 69 556 l 69 417 l 208 417 l 208 556 z m 208 278 l 486 278 l 486 417 l 208 417 z m 69 278 l 69 139 l 208 139 l 208 278 z m 208 0 l 556 0 l 556 139 l 208 139 z "},"ζ":{"ha":694,"x_min":0,"x_max":0,"o":"m 625 972 l 139 972 l 139 833 l 486 833 l 486 694 l 625 694 z m 486 694 l 208 694 l 208 556 l 486 556 z m 69 556 l 69 139 l 208 139 l 208 556 z m 208 0 l 486 0 l 486 139 l 208 139 z m 486 -139 l 625 -139 l 625 0 l 486 0 z m 347 -139 l 347 -278 l 486 -278 l 486 -139 z "},"η":{"ha":694,"x_min":0,"x_max":0,"o":"m 486 694 l 69 694 l 69 0 l 208 0 l 208 556 l 486 556 z m 625 556 l 486 556 l 486 -278 l 625 -278 z "},"θ":{"ha":694,"x_min":0,"x_max":0,"o":"m 208 833 l 486 833 l 486 972 l 208 972 z m 625 833 l 486 833 l 486 556 l 208 556 l 208 833 l 69 833 l 69 139 l 208 139 l 208 417 l 486 417 l 486 139 l 625 139 z m 486 139 l 208 139 l 208 0 l 486 0 z "},"ι":{"ha":382,"x_min":0,"x_max":0,"o":"m 208 139 l 208 694 l 69 694 l 69 139 z m 347 139 l 208 139 l 208 0 l 347 0 z "},"κ":{"ha":625,"x_min":0,"x_max":0,"o":"m 417 417 l 208 417 l 208 694 l 69 694 l 69 0 l 208 0 l 208 278 l 417 278 z m 556 694 l 417 694 l 417 417 l 556 417 z m 417 278 l 417 0 l 556 0 l 556 278 z "},"λ":{"ha":833,"x_min":0,"x_max":0,"o":"m 347 694 l 347 972 l 208 972 l 208 694 z m 486 694 l 347 694 l 347 556 l 486 556 z m 208 556 l 208 278 l 347 278 l 347 556 z m 625 278 l 625 556 l 486 556 l 486 278 z m 69 278 l 69 0 l 208 0 l 208 278 z m 764 278 l 625 278 l 625 0 l 764 0 z "},"μ":{"ha":799,"x_min":0,"x_max":0,"o":"m 486 139 l 208 139 l 208 694 l 69 694 l 69 -278 l 208 -278 l 208 0 l 486 0 z m 625 139 l 625 694 l 486 694 l 486 139 z m 764 139 l 625 139 l 625 0 l 764 0 z "},"ν":{"ha":833,"x_min":0,"x_max":0,"o":"m 208 278 l 208 694 l 69 694 l 69 278 z m 764 694 l 625 694 l 625 278 l 764 278 z m 347 278 l 208 278 l 208 139 l 347 139 z m 486 278 l 486 139 l 625 139 l 625 278 z m 347 139 l 347 0 l 486 0 l 486 139 z "},"ξ":{"ha":694,"x_min":0,"x_max":0,"o":"m 625 972 l 139 972 l 139 833 l 486 833 l 486 694 l 625 694 z m 486 694 l 208 694 l 208 556 l 486 556 z m 69 556 l 69 417 l 208 417 l 208 556 z m 208 278 l 486 278 l 486 417 l 208 417 z m 69 278 l 69 139 l 208 139 l 208 278 z m 208 0 l 486 0 l 486 139 l 208 139 z m 486 -139 l 625 -139 l 625 0 l 486 0 z m 347 -139 l 347 -278 l 486 -278 l 486 -139 z "},"ο":{"ha":694,"x_min":0,"x_max":0,"o":"m 208 556 l 486 556 l 486 694 l 208 694 z m 208 139 l 208 556 l 69 556 l 69 139 z m 625 556 l 486 556 l 486 139 l 625 139 z m 486 139 l 208 139 l 208 0 l 486 0 z "},"π":{"ha":938,"x_min":0,"x_max":0,"o":"m 868 694 l 35 694 l 35 556 l 174 556 l 174 0 l 313 0 l 313 556 l 590 556 l 590 139 l 729 139 l 729 556 l 868 556 z m 729 0 l 868 0 l 868 139 l 729 139 z "},"ρ":{"ha":694,"x_min":0,"x_max":0,"o":"m 208 556 l 486 556 l 486 694 l 208 694 z m 486 139 l 208 139 l 208 556 l 69 556 l 69 -278 l 208 -278 l 208 0 l 486 0 z m 625 556 l 486 556 l 486 139 l 625 139 z "},"ς":{"ha":694,"x_min":0,"x_max":0,"o":"m 625 694 l 208 694 l 208 556 l 625 556 z m 69 556 l 69 139 l 208 139 l 208 556 z m 208 0 l 486 0 l 486 139 l 208 139 z m 486 -139 l 625 -139 l 625 0 l 486 0 z m 486 -139 l 208 -139 l 208 -278 l 486 -278 z "},"σ":{"ha":868,"x_min":0,"x_max":0,"o":"m 833 694 l 208 694 l 208 556 l 486 556 l 486 139 l 625 139 l 625 556 l 833 556 z m 208 139 l 208 556 l 69 556 l 69 139 z m 486 139 l 208 139 l 208 0 l 486 0 z "},"τ":{"ha":660,"x_min":0,"x_max":0,"o":"m 590 694 l 35 694 l 35 556 l 243 556 l 243 139 l 382 139 l 382 556 l 590 556 z m 382 0 l 590 0 l 590 139 l 382 139 z "},"υ":{"ha":694,"x_min":0,"x_max":0,"o":"m 208 139 l 208 694 l 69 694 l 69 139 z m 625 694 l 486 694 l 486 139 l 625 139 z m 486 139 l 208 139 l 208 0 l 486 0 z "},"φ":{"ha":833,"x_min":0,"x_max":0,"o":"m 625 556 l 625 694 l 486 694 l 486 556 z m 208 139 l 208 625 l 69 625 l 69 139 z m 486 139 l 486 556 l 347 556 l 347 139 l 208 139 l 208 0 l 347 0 l 347 -278 l 486 -278 l 486 0 l 625 0 l 625 139 z m 764 556 l 625 556 l 625 139 l 764 139 z "},"χ":{"ha":694,"x_min":0,"x_max":0,"o":"m 208 417 l 208 694 l 69 694 l 69 417 z m 625 694 l 486 694 l 486 417 l 625 417 z m 486 417 l 208 417 l 208 278 l 486 278 z m 69 278 l 69 0 l 208 0 l 208 278 z m 486 278 l 486 0 l 625 0 l 625 278 z "},"ψ":{"ha":972,"x_min":0,"x_max":0,"o":"m 208 139 l 208 694 l 69 694 l 69 139 z m 764 139 l 556 139 l 556 694 l 417 694 l 417 139 l 208 139 l 208 0 l 417 0 l 417 -278 l 556 -278 l 556 0 l 764 0 z m 903 694 l 764 694 l 764 139 l 903 139 z "},"ω":{"ha":972,"x_min":0,"x_max":0,"o":"m 347 486 l 347 694 l 208 694 l 208 486 z m 764 486 l 764 694 l 625 694 l 625 486 z m 208 139 l 208 486 l 69 486 l 69 139 z m 903 486 l 764 486 l 764 139 l 903 139 z m 556 139 l 556 417 l 417 417 l 417 139 z m 417 139 l 208 139 l 208 0 l 417 0 z m 764 139 l 556 139 l 556 0 l 764 0 z "},"ί":{"ha":382,"x_min":0,"x_max":0,"o":"m 347 1042 l 208 1042 l 208 903 l 347 903 z m 69 903 l 69 764 l 208 764 l 208 903 z m 208 139 l 208 694 l 69 694 l 69 139 z m 208 139 l 208 0 l 347 0 l 347 139 z "},"ϊ":{"ha":486,"x_min":0,"x_max":0,"o":"m 174 764 l 174 903 l 35 903 l 35 764 z m 451 903 l 313 903 l 313 764 l 451 764 z m 313 139 l 313 694 l 174 694 l 174 139 z m 313 139 l 313 0 l 451 0 l 451 139 z "},"ΐ":{"ha":486,"x_min":0,"x_max":0,"o":"m 451 1250 l 313 1250 l 313 1111 l 451 1111 z m 174 1111 l 174 972 l 313 972 l 313 1111 z m 174 764 l 174 903 l 35 903 l 35 764 z m 313 903 l 313 764 l 451 764 l 451 903 z m 313 139 l 313 694 l 174 694 l 174 139 z m 313 139 l 313 0 l 451 0 l 451 139 z "},"ύ":{"ha":694,"x_min":0,"x_max":0,"o":"m 556 903 l 556 1042 l 417 1042 l 417 903 z m 417 764 l 417 903 l 278 903 l 278 764 z m 208 139 l 208 694 l 69 694 l 69 139 z m 625 694 l 486 694 l 486 139 l 625 139 z m 486 139 l 208 139 l 208 0 l 486 0 z "},"ϋ":{"ha":694,"x_min":0,"x_max":0,"o":"m 278 764 l 278 903 l 139 903 l 139 764 z m 556 764 l 556 903 l 417 903 l 417 764 z m 208 139 l 208 694 l 69 694 l 69 139 z m 625 694 l 486 694 l 486 139 l 625 139 z m 486 139 l 208 139 l 208 0 l 486 0 z "},"ΰ":{"ha":694,"x_min":0,"x_max":0,"o":"m 556 1111 l 556 1250 l 417 1250 l 417 1111 z m 417 972 l 417 1111 l 278 1111 l 278 972 z m 278 764 l 278 903 l 139 903 l 139 764 z m 417 903 l 417 764 l 556 764 l 556 903 z m 208 139 l 208 694 l 69 694 l 69 139 z m 625 694 l 486 694 l 486 139 l 625 139 z m 486 139 l 208 139 l 208 0 l 486 0 z "},"ό":{"ha":694,"x_min":0,"x_max":0,"o":"m 556 903 l 556 1042 l 417 1042 l 417 903 z m 417 764 l 417 903 l 278 903 l 278 764 z m 208 556 l 486 556 l 486 694 l 208 694 z m 208 139 l 208 556 l 69 556 l 69 139 z m 625 556 l 486 556 l 486 139 l 625 139 z m 486 139 l 208 139 l 208 0 l 486 0 z "},"ώ":{"ha":972,"x_min":0,"x_max":0,"o":"m 694 903 l 694 1042 l 556 1042 l 556 903 z m 556 764 l 556 903 l 417 903 l 417 764 z m 347 486 l 347 694 l 208 694 l 208 486 z m 764 486 l 764 694 l 625 694 l 625 486 z m 208 139 l 208 486 l 69 486 l 69 139 z m 903 486 l 764 486 l 764 139 l 903 139 z m 556 139 l 556 417 l 417 417 l 417 139 z m 417 139 l 208 139 l 208 0 l 417 0 z m 764 139 l 556 139 l 556 0 l 764 0 z "},"ά":{"ha":694,"x_min":0,"x_max":0,"o":"m 556 903 l 556 1042 l 417 1042 l 417 903 z m 417 764 l 417 903 l 278 903 l 278 764 z m 208 556 l 486 556 l 486 694 l 208 694 z m 208 139 l 208 556 l 69 556 l 69 139 z m 625 556 l 486 556 l 486 139 l 208 139 l 208 0 l 625 0 z "},"έ":{"ha":625,"x_min":0,"x_max":0,"o":"m 556 1042 l 417 1042 l 417 903 l 556 903 z m 278 903 l 278 764 l 417 764 l 417 903 z m 556 694 l 208 694 l 208 556 l 556 556 z m 69 556 l 69 417 l 208 417 l 208 556 z m 208 278 l 486 278 l 486 417 l 208 417 z m 69 278 l 69 139 l 208 139 l 208 278 z m 208 0 l 556 0 l 556 139 l 208 139 z "},"ή":{"ha":694,"x_min":0,"x_max":0,"o":"m 625 1042 l 486 1042 l 486 903 l 625 903 z m 347 903 l 347 764 l 486 764 l 486 903 z m 486 694 l 69 694 l 69 0 l 208 0 l 208 556 l 486 556 z m 486 556 l 486 -278 l 625 -278 l 625 556 z "},"ꭓ":{"ha":903,"x_min":0,"x_max":0,"o":"m 313 486 l 313 764 l 174 764 l 174 486 z m 868 764 l 729 764 l 729 625 l 868 625 z m 590 625 l 590 486 l 729 486 l 729 625 z m 590 486 l 313 486 l 313 347 l 590 347 z m 174 347 l 174 139 l 313 139 l 313 347 z m 590 347 l 590 0 l 729 0 l 729 347 z m 35 139 l 35 0 l 174 0 l 174 139 z "},"⁰":{"ha":556,"x_min":0,"x_max":0,"o":"m 486 1250 l 69 1250 l 69 556 l 486 556 z m 347 1111 l 347 694 l 208 694 l 208 1111 z "},"¹":{"ha":382,"x_min":0,"x_max":0,"o":"m 313 1250 l 174 1250 l 174 1111 l 35 1111 l 35 972 l 174 972 l 174 556 l 313 556 z "},"²":{"ha":451,"x_min":0,"x_max":0,"o":"m 382 1250 l 35 1250 l 35 1111 l 243 1111 l 243 972 l 35 972 l 35 556 l 382 556 l 382 694 l 174 694 l 174 833 l 382 833 z "},"³":{"ha":451,"x_min":0,"x_max":0,"o":"m 382 1250 l 35 1250 l 35 1111 l 243 1111 l 243 972 l 104 972 l 104 833 l 243 833 l 243 694 l 35 694 l 35 556 l 382 556 z "},"⁴":{"ha":486,"x_min":0,"x_max":0,"o":"m 417 972 l 208 972 l 208 1250 l 69 1250 l 69 833 l 278 833 l 278 556 l 417 556 z "},"⁵":{"ha":486,"x_min":0,"x_max":0,"o":"m 417 1250 l 69 1250 l 69 833 l 278 833 l 278 694 l 69 694 l 69 556 l 417 556 l 417 972 l 208 972 l 208 1111 l 417 1111 z "},"⁶":{"ha":556,"x_min":0,"x_max":0,"o":"m 486 972 l 208 972 l 208 1111 l 417 1111 l 417 1250 l 69 1250 l 69 556 l 486 556 z m 347 833 l 347 694 l 208 694 l 208 833 z "},"⁷":{"ha":486,"x_min":0,"x_max":0,"o":"m 417 1250 l 69 1250 l 69 1111 l 278 1111 l 278 556 l 417 556 z "},"⁸":{"ha":556,"x_min":0,"x_max":0,"o":"m 486 1250 l 69 1250 l 69 556 l 486 556 z m 347 1111 l 347 972 l 208 972 l 208 1111 z m 347 833 l 347 694 l 208 694 l 208 833 z "},"⁹":{"ha":556,"x_min":0,"x_max":0,"o":"m 486 1250 l 69 1250 l 69 833 l 347 833 l 347 694 l 139 694 l 139 556 l 486 556 z m 347 1111 l 347 972 l 208 972 l 208 1111 z "},"⁄":{"ha":833,"x_min":0,"x_max":0,"o":"m 764 1042 l 625 1042 l 625 833 l 764 833 z m 486 833 l 486 625 l 625 625 l 625 833 z m 347 625 l 347 417 l 486 417 l 486 625 z m 208 417 l 208 208 l 347 208 l 347 417 z m 69 208 l 69 0 l 208 0 l 208 208 z "},"⅟":{"ha":1111,"x_min":0,"x_max":0,"o":"m 347 347 l 347 1042 l 208 1042 l 208 903 l 69 903 l 69 764 l 208 764 l 208 347 z m 1042 1042 l 903 1042 l 903 833 l 1042 833 z m 764 833 l 764 625 l 903 625 l 903 833 z m 625 625 l 625 417 l 764 417 l 764 625 z m 486 417 l 486 208 l 625 208 l 625 417 z m 347 208 l 347 0 l 486 0 l 486 208 z "},"½":{"ha":1458,"x_min":0,"x_max":0,"o":"m 347 347 l 347 1042 l 208 1042 l 208 903 l 69 903 l 69 764 l 208 764 l 208 347 z m 1042 833 l 1042 1042 l 903 1042 l 903 833 z m 764 833 l 764 625 l 903 625 l 903 833 z m 1389 694 l 1042 694 l 1042 556 l 1250 556 l 1250 417 l 1042 417 l 1042 0 l 1389 0 l 1389 139 l 1181 139 l 1181 278 l 1389 278 z m 625 625 l 625 417 l 764 417 l 764 625 z m 486 417 l 486 208 l 625 208 l 625 417 z m 347 208 l 347 0 l 486 0 l 486 208 z "},"↉":{"ha":1597,"x_min":0,"x_max":0,"o":"m 486 347 l 486 1042 l 69 1042 l 69 347 z m 1181 833 l 1181 1042 l 1042 1042 l 1042 833 z m 208 486 l 208 903 l 347 903 l 347 486 z m 903 833 l 903 625 l 1042 625 l 1042 833 z m 1528 694 l 1181 694 l 1181 556 l 1389 556 l 1389 417 l 1250 417 l 1250 278 l 1389 278 l 1389 139 l 1181 139 l 1181 0 l 1528 0 z m 764 625 l 764 417 l 903 417 l 903 625 z m 625 417 l 625 208 l 764 208 l 764 417 z m 486 208 l 486 0 l 625 0 l 625 208 z "},"⅓":{"ha":1458,"x_min":0,"x_max":0,"o":"m 347 347 l 347 1042 l 208 1042 l 208 903 l 69 903 l 69 764 l 208 764 l 208 347 z m 1042 833 l 1042 1042 l 903 1042 l 903 833 z m 764 833 l 764 625 l 903 625 l 903 833 z m 1389 694 l 1042 694 l 1042 556 l 1250 556 l 1250 417 l 1111 417 l 1111 278 l 1250 278 l 1250 139 l 1042 139 l 1042 0 l 1389 0 z m 625 625 l 625 417 l 764 417 l 764 625 z m 486 417 l 486 208 l 625 208 l 625 417 z m 347 208 l 347 0 l 486 0 l 486 208 z "},"⅔":{"ha":1528,"x_min":0,"x_max":0,"o":"m 417 347 l 417 486 l 208 486 l 208 625 l 417 625 l 417 1042 l 69 1042 l 69 903 l 278 903 l 278 764 l 69 764 l 69 347 z m 1111 833 l 1111 1042 l 972 1042 l 972 833 z m 833 833 l 833 625 l 972 625 l 972 833 z m 1458 694 l 1111 694 l 1111 556 l 1319 556 l 1319 417 l 1181 417 l 1181 278 l 1319 278 l 1319 139 l 1111 139 l 1111 0 l 1458 0 z m 694 625 l 694 417 l 833 417 l 833 625 z m 556 417 l 556 208 l 694 208 l 694 417 z m 417 208 l 417 0 l 556 0 l 556 208 z "},"¼":{"ha":1458,"x_min":0,"x_max":0,"o":"m 347 347 l 347 1042 l 208 1042 l 208 903 l 69 903 l 69 764 l 208 764 l 208 347 z m 1042 833 l 1042 1042 l 903 1042 l 903 833 z m 764 833 l 764 625 l 903 625 l 903 833 z m 1389 417 l 1181 417 l 1181 694 l 1042 694 l 1042 278 l 1250 278 l 1250 0 l 1389 0 z m 625 625 l 625 417 l 764 417 l 764 625 z m 486 417 l 486 208 l 625 208 l 625 417 z m 347 208 l 347 0 l 486 0 l 486 208 z "},"¾":{"ha":1528,"x_min":0,"x_max":0,"o":"m 417 347 l 417 1042 l 69 1042 l 69 903 l 278 903 l 278 764 l 139 764 l 139 625 l 278 625 l 278 486 l 69 486 l 69 347 z m 1111 833 l 1111 1042 l 972 1042 l 972 833 z m 833 833 l 833 625 l 972 625 l 972 833 z m 1458 417 l 1250 417 l 1250 694 l 1111 694 l 1111 278 l 1319 278 l 1319 0 l 1458 0 z m 694 625 l 694 417 l 833 417 l 833 625 z m 556 417 l 556 208 l 694 208 l 694 417 z m 417 208 l 417 0 l 556 0 l 556 208 z "},"⅕":{"ha":1458,"x_min":0,"x_max":0,"o":"m 347 347 l 347 1042 l 208 1042 l 208 903 l 69 903 l 69 764 l 208 764 l 208 347 z m 1042 833 l 1042 1042 l 903 1042 l 903 833 z m 764 833 l 764 625 l 903 625 l 903 833 z m 1389 694 l 1042 694 l 1042 278 l 1250 278 l 1250 139 l 1042 139 l 1042 0 l 1389 0 l 1389 417 l 1181 417 l 1181 556 l 1389 556 z m 625 625 l 625 417 l 764 417 l 764 625 z m 486 417 l 486 208 l 625 208 l 625 417 z m 347 208 l 347 0 l 486 0 l 486 208 z "},"⅖":{"ha":1528,"x_min":0,"x_max":0,"o":"m 417 347 l 417 486 l 208 486 l 208 625 l 417 625 l 417 1042 l 69 1042 l 69 903 l 278 903 l 278 764 l 69 764 l 69 347 z m 1111 833 l 1111 1042 l 972 1042 l 972 833 z m 833 833 l 833 625 l 972 625 l 972 833 z m 1458 694 l 1111 694 l 1111 278 l 1319 278 l 1319 139 l 1111 139 l 1111 0 l 1458 0 l 1458 417 l 1250 417 l 1250 556 l 1458 556 z m 694 625 l 694 417 l 833 417 l 833 625 z m 556 417 l 556 208 l 694 208 l 694 417 z m 417 208 l 417 0 l 556 0 l 556 208 z "},"⅗":{"ha":1528,"x_min":0,"x_max":0,"o":"m 417 347 l 417 1042 l 69 1042 l 69 903 l 278 903 l 278 764 l 139 764 l 139 625 l 278 625 l 278 486 l 69 486 l 69 347 z m 1111 833 l 1111 1042 l 972 1042 l 972 833 z m 833 833 l 833 625 l 972 625 l 972 833 z m 1458 694 l 1111 694 l 1111 278 l 1319 278 l 1319 139 l 1111 139 l 1111 0 l 1458 0 l 1458 417 l 1250 417 l 1250 556 l 1458 556 z m 694 625 l 694 417 l 833 417 l 833 625 z m 556 417 l 556 208 l 694 208 l 694 417 z m 417 208 l 417 0 l 556 0 l 556 208 z "},"⅘":{"ha":1528,"x_min":0,"x_max":0,"o":"m 417 347 l 417 764 l 208 764 l 208 1042 l 69 1042 l 69 625 l 278 625 l 278 347 z m 1111 833 l 1111 1042 l 972 1042 l 972 833 z m 833 833 l 833 625 l 972 625 l 972 833 z m 1458 694 l 1111 694 l 1111 278 l 1319 278 l 1319 139 l 1111 139 l 1111 0 l 1458 0 l 1458 417 l 1250 417 l 1250 556 l 1458 556 z m 694 625 l 694 417 l 833 417 l 833 625 z m 556 417 l 556 208 l 694 208 l 694 417 z m 417 208 l 417 0 l 556 0 l 556 208 z "},"⅙":{"ha":1528,"x_min":0,"x_max":0,"o":"m 347 347 l 347 1042 l 208 1042 l 208 903 l 69 903 l 69 764 l 208 764 l 208 347 z m 1042 833 l 1042 1042 l 903 1042 l 903 833 z m 764 833 l 764 625 l 903 625 l 903 833 z m 1458 417 l 1181 417 l 1181 556 l 1389 556 l 1389 694 l 1042 694 l 1042 0 l 1458 0 z m 625 625 l 625 417 l 764 417 l 764 625 z m 486 417 l 486 208 l 625 208 l 625 417 z m 1319 278 l 1319 139 l 1181 139 l 1181 278 z m 347 208 l 347 0 l 486 0 l 486 208 z "},"⅚":{"ha":1597,"x_min":0,"x_max":0,"o":"m 417 347 l 417 764 l 208 764 l 208 903 l 417 903 l 417 1042 l 69 1042 l 69 625 l 278 625 l 278 486 l 69 486 l 69 347 z m 1111 833 l 1111 1042 l 972 1042 l 972 833 z m 833 833 l 833 625 l 972 625 l 972 833 z m 1528 417 l 1250 417 l 1250 556 l 1458 556 l 1458 694 l 1111 694 l 1111 0 l 1528 0 z m 694 625 l 694 417 l 833 417 l 833 625 z m 556 417 l 556 208 l 694 208 l 694 417 z m 1389 278 l 1389 139 l 1250 139 l 1250 278 z m 417 208 l 417 0 l 556 0 l 556 208 z "},"⅐":{"ha":1458,"x_min":0,"x_max":0,"o":"m 347 347 l 347 1042 l 208 1042 l 208 903 l 69 903 l 69 764 l 208 764 l 208 347 z m 1042 833 l 1042 1042 l 903 1042 l 903 833 z m 764 833 l 764 625 l 903 625 l 903 833 z m 1389 694 l 1042 694 l 1042 556 l 1250 556 l 1250 0 l 1389 0 z m 625 625 l 625 417 l 764 417 l 764 625 z m 486 417 l 486 208 l 625 208 l 625 417 z m 347 208 l 347 0 l 486 0 l 486 208 z "},"⅛":{"ha":1528,"x_min":0,"x_max":0,"o":"m 347 347 l 347 1042 l 208 1042 l 208 903 l 69 903 l 69 764 l 208 764 l 208 347 z m 1042 833 l 1042 1042 l 903 1042 l 903 833 z m 764 833 l 764 625 l 903 625 l 903 833 z m 1458 694 l 1042 694 l 1042 0 l 1458 0 z m 625 625 l 625 417 l 764 417 l 764 625 z m 1319 556 l 1319 417 l 1181 417 l 1181 556 z m 486 417 l 486 208 l 625 208 l 625 417 z m 1319 278 l 1319 139 l 1181 139 l 1181 278 z m 347 208 l 347 0 l 486 0 l 486 208 z "},"⅜":{"ha":1597,"x_min":0,"x_max":0,"o":"m 417 347 l 417 1042 l 69 1042 l 69 903 l 278 903 l 278 764 l 139 764 l 139 625 l 278 625 l 278 486 l 69 486 l 69 347 z m 1111 833 l 1111 1042 l 972 1042 l 972 833 z m 833 833 l 833 625 l 972 625 l 972 833 z m 1528 694 l 1111 694 l 1111 0 l 1528 0 z m 694 625 l 694 417 l 833 417 l 833 625 z m 1389 556 l 1389 417 l 1250 417 l 1250 556 z m 556 417 l 556 208 l 694 208 l 694 417 z m 1389 278 l 1389 139 l 1250 139 l 1250 278 z m 417 208 l 417 0 l 556 0 l 556 208 z "},"⅝":{"ha":1597,"x_min":0,"x_max":0,"o":"m 417 347 l 417 764 l 208 764 l 208 903 l 417 903 l 417 1042 l 69 1042 l 69 625 l 278 625 l 278 486 l 69 486 l 69 347 z m 1111 833 l 1111 1042 l 972 1042 l 972 833 z m 833 833 l 833 625 l 972 625 l 972 833 z m 1528 694 l 1111 694 l 1111 0 l 1528 0 z m 694 625 l 694 417 l 833 417 l 833 625 z m 1389 556 l 1389 417 l 1250 417 l 1250 556 z m 556 417 l 556 208 l 694 208 l 694 417 z m 1389 278 l 1389 139 l 1250 139 l 1250 278 z m 417 208 l 417 0 l 556 0 l 556 208 z "},"⅞":{"ha":1597,"x_min":0,"x_max":0,"o":"m 417 347 l 417 1042 l 69 1042 l 69 903 l 278 903 l 278 347 z m 1111 833 l 1111 1042 l 972 1042 l 972 833 z m 833 833 l 833 625 l 972 625 l 972 833 z m 1528 694 l 1111 694 l 1111 0 l 1528 0 z m 694 625 l 694 417 l 833 417 l 833 625 z m 1389 556 l 1389 417 l 1250 417 l 1250 556 z m 556 417 l 556 208 l 694 208 l 694 417 z m 1389 278 l 1389 139 l 1250 139 l 1250 278 z m 417 208 l 417 0 l 556 0 l 556 208 z "},"⅑":{"ha":1528,"x_min":0,"x_max":0,"o":"m 347 347 l 347 1042 l 208 1042 l 208 903 l 69 903 l 69 764 l 208 764 l 208 347 z m 1042 833 l 1042 1042 l 903 1042 l 903 833 z m 764 833 l 764 625 l 903 625 l 903 833 z m 1458 694 l 1042 694 l 1042 278 l 1319 278 l 1319 139 l 1111 139 l 1111 0 l 1458 0 z m 625 625 l 625 417 l 764 417 l 764 625 z m 1319 556 l 1319 417 l 1181 417 l 1181 556 z m 486 417 l 486 208 l 625 208 l 625 417 z m 347 208 l 347 0 l 486 0 l 486 208 z "},"⅒":{"ha":1875,"x_min":0,"x_max":0,"o":"m 347 347 l 347 1042 l 208 1042 l 208 903 l 69 903 l 69 764 l 208 764 l 208 347 z m 1042 833 l 1042 1042 l 903 1042 l 903 833 z m 764 833 l 764 625 l 903 625 l 903 833 z m 1181 694 l 1181 556 l 1042 556 l 1042 417 l 1181 417 l 1181 0 l 1319 0 l 1319 694 z m 1806 694 l 1389 694 l 1389 0 l 1806 0 z m 625 625 l 625 417 l 764 417 l 764 625 z m 1667 556 l 1667 139 l 1528 139 l 1528 556 z m 486 417 l 486 208 l 625 208 l 625 417 z m 347 208 l 347 0 l 486 0 l 486 208 z "},"*":{"ha":486,"x_min":0,"x_max":0,"o":"m 174 1042 l 35 1042 l 35 903 l 174 903 z m 451 1042 l 313 1042 l 313 903 l 451 903 z m 174 903 l 174 764 l 313 764 l 313 903 z m 35 764 l 35 625 l 174 625 l 174 764 z m 313 625 l 451 625 l 451 764 l 313 764 z "},"\\":{"ha":694,"x_min":0,"x_max":0,"o":"m 208 764 l 208 1042 l 69 1042 l 69 764 z m 347 556 l 347 764 l 208 764 l 208 556 z m 486 278 l 486 556 l 347 556 l 347 278 z m 625 278 l 486 278 l 486 0 l 625 0 z "},"·":{"ha":278,"x_min":0,"x_max":0,"o":"m 208 625 l 69 625 l 69 486 l 208 486 z "},"•":{"ha":347,"x_min":0,"x_max":0,"o":"m 278 556 l 69 556 l 69 347 l 278 347 z "},":":{"ha":278,"x_min":0,"x_max":0,"o":"m 208 694 l 69 694 l 69 556 l 208 556 z m 69 139 l 69 0 l 208 0 l 208 139 z "},",":{"ha":313,"x_min":0,"x_max":0,"o":"m 243 69 l 104 69 l 104 -139 l 243 -139 z m -35 -139 l -35 -278 l 104 -278 l 104 -139 z "},"…":{"ha":903,"x_min":0,"x_max":0,"o":"m 104 139 l 104 0 l 243 0 l 243 139 z m 382 139 l 382 0 l 521 0 l 521 139 z m 799 139 l 660 139 l 660 0 l 799 0 z "},"!":{"ha":278,"x_min":0,"x_max":0,"o":"m 208 1042 l 69 1042 l 69 278 l 208 278 z m 69 139 l 69 0 l 208 0 l 208 139 z "},"¡":{"ha":278,"x_min":0,"x_max":0,"o":"m 208 764 l 69 764 l 69 625 l 208 625 z m 69 486 l 69 -278 l 208 -278 l 208 486 z "},"#":{"ha":833,"x_min":0,"x_max":0,"o":"m 764 625 l 625 625 l 625 764 l 486 764 l 486 625 l 347 625 l 347 764 l 208 764 l 208 625 l 69 625 l 69 486 l 208 486 l 208 347 l 69 347 l 69 208 l 208 208 l 208 69 l 347 69 l 347 208 l 486 208 l 486 69 l 625 69 l 625 208 l 764 208 l 764 347 l 625 347 l 625 486 l 764 486 z m 486 486 l 486 347 l 347 347 l 347 486 z "},".":{"ha":278,"x_min":0,"x_max":0,"o":"m 208 139 l 69 139 l 69 0 l 208 0 z "},"?":{"ha":590,"x_min":0,"x_max":0,"o":"m 382 1042 l 35 1042 l 35 903 l 382 903 z m 521 903 l 382 903 l 382 625 l 521 625 z m 243 625 l 243 486 l 382 486 l 382 625 z m 104 486 l 104 278 l 243 278 l 243 486 z m 104 139 l 104 0 l 243 0 l 243 139 z "},"¿":{"ha":590,"x_min":0,"x_max":0,"o":"m 486 625 l 486 764 l 347 764 l 347 625 z m 486 278 l 486 486 l 347 486 l 347 278 z m 347 139 l 347 278 l 208 278 l 208 139 z m 208 -139 l 208 139 l 69 139 l 69 -139 z m 556 -139 l 208 -139 l 208 -278 l 556 -278 z "},"\"":{"ha":486,"x_min":0,"x_max":0,"o":"m 35 972 l 35 694 l 174 694 l 174 972 z m 451 972 l 313 972 l 313 694 l 451 694 z "},"'":{"ha":208,"x_min":0,"x_max":0,"o":"m 174 972 l 35 972 l 35 694 l 174 694 z "},";":{"ha":313,"x_min":0,"x_max":0,"o":"m 243 694 l 104 694 l 104 556 l 243 556 z m 104 139 l 104 -139 l 243 -139 l 243 139 z m -35 -139 l -35 -278 l 104 -278 l 104 -139 z "},"/":{"ha":694,"x_min":0,"x_max":0,"o":"m 625 1042 l 486 1042 l 486 764 l 625 764 z m 347 764 l 347 556 l 486 556 l 486 764 z m 208 556 l 208 278 l 347 278 l 347 556 z m 69 278 l 69 0 l 208 0 l 208 278 z "},"_":{"ha":833,"x_min":0,"x_max":0,"o":"m 764 -69 l 69 -69 l 69 -208 l 764 -208 z "},"{":{"ha":556,"x_min":0,"x_max":0,"o":"m 486 1111 l 347 1111 l 347 972 l 486 972 z m 208 972 l 208 556 l 347 556 l 347 972 z m 69 556 l 69 417 l 208 417 l 208 556 z m 208 417 l 208 0 l 347 0 l 347 417 z m 347 -139 l 486 -139 l 486 0 l 347 0 z "},"}":{"ha":556,"x_min":0,"x_max":0,"o":"m 208 1111 l 69 1111 l 69 972 l 208 972 z m 347 556 l 347 972 l 208 972 l 208 556 z m 486 556 l 347 556 l 347 417 l 486 417 z m 208 417 l 208 0 l 347 0 l 347 417 z m 69 0 l 69 -139 l 208 -139 l 208 0 z "},"[":{"ha":417,"x_min":0,"x_max":0,"o":"m 347 1111 l 69 1111 l 69 -139 l 347 -139 l 347 0 l 208 0 l 208 972 l 347 972 z "},"]":{"ha":417,"x_min":0,"x_max":0,"o":"m 347 1111 l 69 1111 l 69 972 l 208 972 l 208 0 l 69 0 l 69 -139 l 347 -139 z "},"(":{"ha":417,"x_min":0,"x_max":0,"o":"m 347 1111 l 208 1111 l 208 903 l 347 903 z m 69 903 l 69 69 l 208 69 l 208 903 z m 208 69 l 208 -139 l 347 -139 l 347 69 z "},")":{"ha":417,"x_min":0,"x_max":0,"o":"m 208 903 l 208 1111 l 69 1111 l 69 903 z m 347 903 l 208 903 l 208 69 l 347 69 z m 69 69 l 69 -139 l 208 -139 l 208 69 z "},"—":{"ha":1111,"x_min":0,"x_max":0,"o":"m 1042 486 l 69 486 l 69 347 l 1042 347 z "},"–":{"ha":833,"x_min":0,"x_max":0,"o":"m 764 486 l 69 486 l 69 347 l 764 347 z "},"-":{"ha":556,"x_min":0,"x_max":0,"o":"m 486 556 l 69 556 l 69 417 l 486 417 z "},"­":{"ha":556,"x_min":0,"x_max":0,"o":"m 486 556 l 69 556 l 69 417 l 486 417 z "},"«":{"ha":972,"x_min":0,"x_max":0,"o":"m 486 556 l 486 694 l 347 694 l 347 556 z m 903 694 l 764 694 l 764 556 l 903 556 z m 347 417 l 347 556 l 208 556 l 208 417 z m 625 556 l 625 417 l 764 417 l 764 556 z m 208 417 l 69 417 l 69 278 l 208 278 z m 486 417 l 486 278 l 625 278 l 625 417 z m 347 278 l 208 278 l 208 139 l 347 139 z m 625 139 l 764 139 l 764 278 l 625 278 z m 347 139 l 347 0 l 486 0 l 486 139 z m 764 0 l 903 0 l 903 139 l 764 139 z "},"»":{"ha":972,"x_min":0,"x_max":0,"o":"m 208 694 l 69 694 l 69 556 l 208 556 z m 625 694 l 486 694 l 486 556 l 625 556 z m 347 556 l 208 556 l 208 417 l 347 417 z m 764 556 l 625 556 l 625 417 l 764 417 z m 486 278 l 486 417 l 347 417 l 347 278 z m 903 417 l 764 417 l 764 278 l 903 278 z m 208 278 l 208 139 l 347 139 l 347 278 z m 625 278 l 625 139 l 764 139 l 764 278 z m 69 139 l 69 0 l 208 0 l 208 139 z m 486 139 l 486 0 l 625 0 l 625 139 z "},"‹":{"ha":556,"x_min":0,"x_max":0,"o":"m 486 694 l 347 694 l 347 556 l 486 556 z m 208 556 l 208 417 l 347 417 l 347 556 z m 69 417 l 69 278 l 208 278 l 208 417 z m 208 139 l 347 139 l 347 278 l 208 278 z m 347 0 l 486 0 l 486 139 l 347 139 z "},"›":{"ha":556,"x_min":0,"x_max":0,"o":"m 208 694 l 69 694 l 69 556 l 208 556 z m 347 556 l 208 556 l 208 417 l 347 417 z m 486 417 l 347 417 l 347 278 l 486 278 z m 208 278 l 208 139 l 347 139 l 347 278 z m 69 139 l 69 0 l 208 0 l 208 139 z "},"„":{"ha":556,"x_min":0,"x_max":0,"o":"m 35 139 l 35 -139 l 174 -139 l 174 139 z m 521 139 l 382 139 l 382 -139 l 521 -139 z "},"“":{"ha":556,"x_min":0,"x_max":0,"o":"m 35 972 l 35 694 l 174 694 l 174 972 z m 521 972 l 382 972 l 382 694 l 521 694 z "},"”":{"ha":556,"x_min":0,"x_max":0,"o":"m 35 972 l 35 694 l 174 694 l 174 972 z m 521 972 l 382 972 l 382 694 l 521 694 z "},"‘":{"ha":208,"x_min":0,"x_max":0,"o":"m 174 972 l 35 972 l 35 694 l 174 694 z "},"’":{"ha":208,"x_min":0,"x_max":0,"o":"m 174 972 l 35 972 l 35 694 l 174 694 z "},"‚":{"ha":208,"x_min":0,"x_max":0,"o":"m 174 139 l 35 139 l 35 -139 l 174 -139 z "},"¢":{"ha":694,"x_min":0,"x_max":0,"o":"m 625 833 l 486 833 l 486 972 l 347 972 l 347 833 l 208 833 l 208 694 l 625 694 z m 69 694 l 69 278 l 208 278 l 208 694 z m 208 139 l 347 139 l 347 0 l 486 0 l 486 139 l 625 139 l 625 278 l 208 278 z "},"¤":{"ha":833,"x_min":0,"x_max":0,"o":"m 208 833 l 69 833 l 69 694 l 208 694 z m 764 833 l 625 833 l 625 694 l 764 694 z m 625 694 l 208 694 l 208 278 l 625 278 z m 486 556 l 486 417 l 347 417 l 347 556 z m 69 278 l 69 139 l 208 139 l 208 278 z m 625 139 l 764 139 l 764 278 l 625 278 z "},"$":{"ha":833,"x_min":0,"x_max":0,"o":"m 486 139 l 486 486 l 625 486 l 625 625 l 486 625 l 486 903 l 694 903 l 694 1042 l 486 1042 l 486 1181 l 347 1181 l 347 1042 l 208 1042 l 208 903 l 347 903 l 347 625 l 208 625 l 208 486 l 347 486 l 347 139 l 139 139 l 139 0 l 347 0 l 347 -139 l 486 -139 l 486 0 l 625 0 l 625 139 z m 208 625 l 208 903 l 69 903 l 69 625 z m 764 486 l 625 486 l 625 139 l 764 139 z "},"€":{"ha":833,"x_min":0,"x_max":0,"o":"m 764 1042 l 347 1042 l 347 903 l 764 903 z m 208 903 l 208 729 l 69 729 l 69 590 l 208 590 l 208 451 l 69 451 l 69 313 l 208 313 l 208 139 l 347 139 l 347 313 l 625 313 l 625 451 l 347 451 l 347 590 l 625 590 l 625 729 l 347 729 l 347 903 z m 347 0 l 764 0 l 764 139 l 347 139 z "},"ƒ":{"ha":590,"x_min":0,"x_max":0,"o":"m 556 1111 l 347 1111 l 347 972 l 556 972 z m 208 972 l 208 694 l 69 694 l 69 556 l 208 556 l 208 69 l 347 69 l 347 556 l 486 556 l 486 694 l 347 694 l 347 972 z m 69 69 l 69 -69 l 208 -69 l 208 69 z "},"£":{"ha":833,"x_min":0,"x_max":0,"o":"m 625 1042 l 347 1042 l 347 903 l 625 903 z m 208 903 l 208 556 l 69 556 l 69 417 l 208 417 l 208 139 l 69 139 l 69 0 l 764 0 l 764 139 l 347 139 l 347 417 l 556 417 l 556 556 l 347 556 l 347 903 z m 764 903 l 625 903 l 625 764 l 764 764 z "},"¥":{"ha":833,"x_min":0,"x_max":0,"o":"m 208 833 l 208 1042 l 69 1042 l 69 833 z m 764 1042 l 625 1042 l 625 833 l 764 833 z m 347 625 l 347 833 l 208 833 l 208 625 z m 486 833 l 486 625 l 625 625 l 625 833 z m 347 625 l 347 486 l 139 486 l 139 347 l 347 347 l 347 278 l 139 278 l 139 139 l 347 139 l 347 0 l 486 0 l 486 139 l 694 139 l 694 278 l 486 278 l 486 347 l 694 347 l 694 486 l 486 486 l 486 625 z "},"+":{"ha":694,"x_min":0,"x_max":0,"o":"m 625 556 l 417 556 l 417 764 l 278 764 l 278 556 l 69 556 l 69 417 l 278 417 l 278 208 l 417 208 l 417 417 l 625 417 z "},"−":{"ha":694,"x_min":0,"x_max":0,"o":"m 625 556 l 69 556 l 69 417 l 625 417 z "},"×":{"ha":694,"x_min":0,"x_max":0,"o":"m 278 694 l 69 694 l 69 556 l 278 556 z m 625 694 l 417 694 l 417 556 l 625 556 z m 278 556 l 278 417 l 417 417 l 417 556 z m 278 417 l 69 417 l 69 278 l 278 278 z m 417 278 l 625 278 l 625 417 l 417 417 z "},"÷":{"ha":694,"x_min":0,"x_max":0,"o":"m 417 625 l 417 764 l 278 764 l 278 625 z m 625 556 l 69 556 l 69 417 l 625 417 z m 278 347 l 278 208 l 417 208 l 417 347 z "},"=":{"ha":694,"x_min":0,"x_max":0,"o":"m 625 694 l 69 694 l 69 556 l 625 556 z m 625 417 l 69 417 l 69 278 l 625 278 z "},"≠":{"ha":833,"x_min":0,"x_max":0,"o":"m 764 694 l 625 694 l 625 833 l 486 833 l 486 694 l 69 694 l 69 556 l 347 556 l 347 417 l 69 417 l 69 278 l 208 278 l 208 139 l 347 139 l 347 278 l 764 278 l 764 417 l 486 417 l 486 556 l 764 556 z "},">":{"ha":833,"x_min":0,"x_max":0,"o":"m 347 833 l 69 833 l 69 694 l 347 694 z m 625 694 l 347 694 l 347 556 l 625 556 z m 764 556 l 625 556 l 625 417 l 764 417 z m 625 417 l 347 417 l 347 278 l 625 278 z m 347 278 l 69 278 l 69 139 l 347 139 z "},"<":{"ha":833,"x_min":0,"x_max":0,"o":"m 764 833 l 486 833 l 486 694 l 764 694 z m 486 694 l 208 694 l 208 556 l 486 556 z m 69 556 l 69 417 l 208 417 l 208 556 z m 208 278 l 486 278 l 486 417 l 208 417 z m 486 139 l 764 139 l 764 278 l 486 278 z "},"≥":{"ha":833,"x_min":0,"x_max":0,"o":"m 556 833 l 69 833 l 69 694 l 556 694 z m 764 694 l 556 694 l 556 556 l 764 556 z m 556 556 l 69 556 l 69 417 l 556 417 z m 764 278 l 69 278 l 69 139 l 764 139 z "},"≤":{"ha":833,"x_min":0,"x_max":0,"o":"m 764 833 l 278 833 l 278 694 l 764 694 z m 278 694 l 69 694 l 69 556 l 278 556 z m 278 417 l 764 417 l 764 556 l 278 556 z m 764 278 l 69 278 l 69 139 l 764 139 z "},"±":{"ha":694,"x_min":0,"x_max":0,"o":"m 625 694 l 417 694 l 417 833 l 278 833 l 278 694 l 69 694 l 69 556 l 278 556 l 278 417 l 417 417 l 417 556 l 625 556 z m 625 278 l 69 278 l 69 139 l 625 139 z "},"≈":{"ha":764,"x_min":0,"x_max":0,"o":"m 729 903 l 590 903 l 590 764 l 729 764 z m 590 764 l 174 764 l 174 625 l 590 625 z m 35 625 l 35 486 l 174 486 l 174 625 z m 590 556 l 590 417 l 729 417 l 729 556 z m 590 417 l 174 417 l 174 278 l 590 278 z m 35 278 l 35 139 l 174 139 l 174 278 z "},"~":{"ha":764,"x_min":0,"x_max":0,"o":"m 729 694 l 590 694 l 590 556 l 729 556 z m 590 556 l 174 556 l 174 417 l 590 417 z m 35 417 l 35 278 l 174 278 l 174 417 z "},"¬":{"ha":833,"x_min":0,"x_max":0,"o":"m 764 556 l 69 556 l 69 417 l 625 417 l 625 139 l 764 139 z "},"∅":{"ha":694,"x_min":0,"x_max":0,"o":"m 208 903 l 486 903 l 486 1042 l 208 1042 z m 208 139 l 208 903 l 69 903 l 69 139 z m 625 903 l 486 903 l 486 139 l 625 139 z m 278 625 l 278 417 l 417 417 l 417 625 z m 486 139 l 208 139 l 208 0 l 486 0 z "},"∞":{"ha":1250,"x_min":0,"x_max":0,"o":"m 208 556 l 556 556 l 556 694 l 208 694 z m 694 556 l 1042 556 l 1042 694 l 694 694 z m 208 278 l 208 556 l 69 556 l 69 278 z m 694 278 l 694 556 l 556 556 l 556 278 z m 1181 556 l 1042 556 l 1042 278 l 1181 278 z m 556 278 l 208 278 l 208 139 l 556 139 z m 1042 278 l 694 278 l 694 139 l 1042 139 z "},"∫":{"ha":625,"x_min":0,"x_max":0,"o":"m 590 1042 l 382 1042 l 382 903 l 590 903 z m 243 903 l 243 0 l 382 0 l 382 903 z m 243 0 l 35 0 l 35 -139 l 243 -139 z "},"∏":{"ha":903,"x_min":0,"x_max":0,"o":"m 868 1042 l 35 1042 l 35 903 l 174 903 l 174 -139 l 313 -139 l 313 903 l 590 903 l 590 -139 l 729 -139 l 729 903 l 868 903 z "},"∑":{"ha":729,"x_min":0,"x_max":0,"o":"m 694 1042 l 69 1042 l 69 764 l 208 764 l 208 903 l 694 903 z m 208 764 l 208 556 l 347 556 l 347 764 z m 347 556 l 347 347 l 486 347 l 486 556 z m 208 347 l 208 139 l 347 139 l 347 347 z m 69 139 l 69 -139 l 694 -139 l 694 0 l 208 0 l 208 139 z "},"√":{"ha":1111,"x_min":0,"x_max":0,"o":"m 1076 1042 l 590 1042 l 590 486 l 729 486 l 729 903 l 1076 903 z m 174 486 l 35 486 l 35 347 l 174 347 z m 451 486 l 451 69 l 590 69 l 590 486 z m 313 69 l 313 347 l 174 347 l 174 69 z m 313 69 l 313 -139 l 451 -139 l 451 69 z "},"∂":{"ha":694,"x_min":0,"x_max":0,"o":"m 486 1042 l 139 1042 l 139 903 l 486 903 z m 625 903 l 486 903 l 486 625 l 208 625 l 208 486 l 486 486 l 486 139 l 625 139 z m 208 139 l 208 486 l 69 486 l 69 139 z m 486 139 l 208 139 l 208 0 l 486 0 z "},"µ":{"ha":799,"x_min":0,"x_max":0,"o":"m 486 139 l 208 139 l 208 694 l 69 694 l 69 -278 l 208 -278 l 208 0 l 486 0 z m 625 139 l 625 694 l 486 694 l 486 139 z m 764 139 l 625 139 l 625 0 l 764 0 z "},"%":{"ha":1111,"x_min":0,"x_max":0,"o":"m 347 903 l 347 1042 l 208 1042 l 208 903 z m 903 833 l 903 1042 l 764 1042 l 764 833 z m 208 694 l 208 903 l 69 903 l 69 694 z m 347 903 l 347 694 l 486 694 l 486 903 z m 764 625 l 764 833 l 625 833 l 625 625 z m 208 694 l 208 556 l 347 556 l 347 694 z m 625 417 l 625 625 l 486 625 l 486 417 z m 903 347 l 903 486 l 764 486 l 764 347 z m 347 417 l 347 208 l 486 208 l 486 417 z m 764 139 l 764 347 l 625 347 l 625 139 z m 1042 347 l 903 347 l 903 139 l 1042 139 z m 208 208 l 208 0 l 347 0 l 347 208 z m 764 139 l 764 0 l 903 0 l 903 139 z "},"‰":{"ha":1597,"x_min":0,"x_max":0,"o":"m 347 903 l 347 1042 l 208 1042 l 208 903 z m 903 833 l 903 1042 l 764 1042 l 764 833 z m 208 694 l 208 903 l 69 903 l 69 694 z m 347 903 l 347 694 l 486 694 l 486 903 z m 764 625 l 764 833 l 625 833 l 625 625 z m 208 694 l 208 556 l 347 556 l 347 694 z m 625 417 l 625 625 l 486 625 l 486 417 z m 903 347 l 903 486 l 764 486 l 764 347 z m 1389 347 l 1389 486 l 1250 486 l 1250 347 z m 347 417 l 347 208 l 486 208 l 486 417 z m 764 139 l 764 347 l 625 347 l 625 139 z m 903 347 l 903 139 l 1042 139 l 1042 347 z m 1250 139 l 1250 347 l 1111 347 l 1111 139 z m 1528 347 l 1389 347 l 1389 139 l 1528 139 z m 208 208 l 208 0 l 347 0 l 347 208 z m 764 139 l 764 0 l 903 0 l 903 139 z m 1250 139 l 1250 0 l 1389 0 l 1389 139 z "},"↑":{"ha":833,"x_min":0,"x_max":0,"o":"m 486 1042 l 347 1042 l 347 903 l 486 903 z m 208 903 l 208 764 l 347 764 l 347 903 z m 625 903 l 486 903 l 486 764 l 625 764 z m 69 764 l 69 625 l 208 625 l 208 764 z m 764 764 l 625 764 l 625 625 l 764 625 z m 347 694 l 347 0 l 486 0 l 486 694 z "},"↗":{"ha":972,"x_min":0,"x_max":0,"o":"m 903 903 l 417 903 l 417 764 l 764 764 l 764 417 l 903 417 z m 486 625 l 486 486 l 625 486 l 625 625 z m 347 486 l 347 347 l 486 347 l 486 486 z m 208 347 l 208 208 l 347 208 l 347 347 z m 69 208 l 69 69 l 208 69 l 208 208 z "},"→":{"ha":1181,"x_min":0,"x_max":0,"o":"m 833 868 l 694 868 l 694 729 l 833 729 z m 972 729 l 833 729 l 833 590 l 972 590 z m 764 451 l 764 590 l 69 590 l 69 451 z m 1111 590 l 972 590 l 972 451 l 1111 451 z m 833 451 l 833 313 l 972 313 l 972 451 z m 694 313 l 694 174 l 833 174 l 833 313 z "},"↘":{"ha":972,"x_min":0,"x_max":0,"o":"m 208 903 l 69 903 l 69 764 l 208 764 z m 347 764 l 208 764 l 208 625 l 347 625 z m 347 486 l 486 486 l 486 625 l 347 625 z m 903 556 l 764 556 l 764 208 l 417 208 l 417 69 l 903 69 z m 486 347 l 625 347 l 625 486 l 486 486 z "},"↓":{"ha":833,"x_min":0,"x_max":0,"o":"m 486 347 l 486 1042 l 347 1042 l 347 347 z m 208 417 l 69 417 l 69 278 l 208 278 z m 764 417 l 625 417 l 625 278 l 764 278 z m 347 278 l 208 278 l 208 139 l 347 139 z m 486 278 l 486 139 l 625 139 l 625 278 z m 347 139 l 347 0 l 486 0 l 486 139 z "},"↙":{"ha":972,"x_min":0,"x_max":0,"o":"m 903 903 l 764 903 l 764 764 l 903 764 z m 625 764 l 625 625 l 764 625 l 764 764 z m 486 625 l 486 486 l 625 486 l 625 625 z m 556 208 l 208 208 l 208 556 l 69 556 l 69 69 l 556 69 z m 347 486 l 347 347 l 486 347 l 486 486 z "},"←":{"ha":1181,"x_min":0,"x_max":0,"o":"m 486 729 l 486 868 l 347 868 l 347 729 z m 347 590 l 347 729 l 208 729 l 208 590 z m 208 590 l 69 590 l 69 451 l 208 451 z m 1111 590 l 417 590 l 417 451 l 1111 451 z m 347 451 l 208 451 l 208 313 l 347 313 z m 347 313 l 347 174 l 486 174 l 486 313 z "},"↖":{"ha":972,"x_min":0,"x_max":0,"o":"m 208 764 l 556 764 l 556 903 l 69 903 l 69 417 l 208 417 z m 486 625 l 347 625 l 347 486 l 486 486 z m 625 486 l 486 486 l 486 347 l 625 347 z m 764 347 l 625 347 l 625 208 l 764 208 z m 903 208 l 764 208 l 764 69 l 903 69 z "},"↔":{"ha":1181,"x_min":0,"x_max":0,"o":"m 486 625 l 486 764 l 347 764 l 347 625 z m 833 764 l 694 764 l 694 625 l 833 625 z m 347 486 l 347 625 l 208 625 l 208 486 z m 972 625 l 833 625 l 833 486 l 972 486 z m 208 486 l 69 486 l 69 347 l 208 347 z m 764 347 l 764 486 l 417 486 l 417 347 z m 1111 486 l 972 486 l 972 347 l 1111 347 z m 347 347 l 208 347 l 208 208 l 347 208 z m 833 347 l 833 208 l 972 208 l 972 347 z m 347 208 l 347 69 l 486 69 l 486 208 z m 694 208 l 694 69 l 833 69 l 833 208 z "},"↕":{"ha":833,"x_min":0,"x_max":0,"o":"m 486 1042 l 347 1042 l 347 903 l 486 903 z m 208 903 l 208 764 l 347 764 l 347 903 z m 625 903 l 486 903 l 486 764 l 625 764 z m 69 764 l 69 625 l 208 625 l 208 764 z m 764 764 l 625 764 l 625 625 l 764 625 z m 486 347 l 486 694 l 347 694 l 347 347 z m 208 417 l 69 417 l 69 278 l 208 278 z m 625 417 l 625 278 l 764 278 l 764 417 z m 347 278 l 208 278 l 208 139 l 347 139 z m 486 278 l 486 139 l 625 139 l 625 278 z m 347 139 l 347 0 l 486 0 l 486 139 z "},"◊":{"ha":833,"x_min":0,"x_max":0,"o":"m 486 833 l 486 1042 l 347 1042 l 347 833 z m 347 625 l 347 833 l 208 833 l 208 625 z m 486 833 l 486 625 l 625 625 l 625 833 z m 208 417 l 208 625 l 69 625 l 69 417 z m 764 625 l 625 625 l 625 417 l 764 417 z m 347 208 l 347 417 l 208 417 l 208 208 z m 486 417 l 486 208 l 625 208 l 625 417 z m 347 208 l 347 0 l 486 0 l 486 208 z "},"@":{"ha":1250,"x_min":0,"x_max":0,"o":"m 903 972 l 347 972 l 347 833 l 903 833 z m 208 833 l 208 694 l 347 694 l 347 833 z m 1042 833 l 903 833 l 903 694 l 1042 694 z m 69 694 l 69 69 l 208 69 l 208 694 z m 1181 694 l 1042 694 l 1042 208 l 1181 208 z m 903 208 l 903 625 l 486 625 l 486 486 l 764 486 l 764 208 z m 486 208 l 486 486 l 347 486 l 347 208 z m 764 208 l 486 208 l 486 69 l 764 69 z m 903 208 l 903 69 l 1042 69 l 1042 208 z m 208 -69 l 347 -69 l 347 69 l 208 69 z m 347 -208 l 972 -208 l 972 -69 l 347 -69 z "},"&":{"ha":938,"x_min":0,"x_max":0,"o":"m 208 903 l 486 903 l 486 1042 l 208 1042 z m 208 625 l 208 903 l 69 903 l 69 625 z m 486 903 l 486 625 l 625 625 l 625 903 z m 208 486 l 486 486 l 486 625 l 208 625 z m 208 139 l 208 486 l 69 486 l 69 139 z m 486 347 l 625 347 l 625 486 l 486 486 z m 903 486 l 764 486 l 764 347 l 903 347 z m 625 347 l 625 139 l 764 139 l 764 347 z m 625 139 l 208 139 l 208 0 l 625 0 z m 764 0 l 903 0 l 903 139 l 764 139 z "},"¶":{"ha":799,"x_min":0,"x_max":0,"o":"m 729 972 l 243 972 l 243 833 l 590 833 l 590 -139 l 729 -139 z m 104 833 l 104 417 l 243 417 l 243 833 z m 243 278 l 382 278 l 382 -139 l 521 -139 l 521 417 l 243 417 z "},"§":{"ha":694,"x_min":0,"x_max":0,"o":"m 486 972 l 208 972 l 208 833 l 486 833 z m 69 833 l 69 625 l 208 625 l 208 833 z m 625 833 l 486 833 l 486 694 l 625 694 z m 208 486 l 486 486 l 486 625 l 208 625 z m 208 278 l 208 486 l 69 486 l 69 278 z m 486 486 l 486 278 l 625 278 l 625 486 z m 486 278 l 208 278 l 208 139 l 486 139 z m 486 139 l 486 -69 l 625 -69 l 625 139 z m 208 69 l 69 69 l 69 -69 l 208 -69 z m 486 -69 l 208 -69 l 208 -208 l 486 -208 z "},"©":{"ha":1250,"x_min":0,"x_max":0,"o":"m 347 833 l 903 833 l 903 972 l 347 972 z m 347 694 l 347 833 l 208 833 l 208 694 z m 903 694 l 1042 694 l 1042 833 l 903 833 z m 208 69 l 208 694 l 69 694 l 69 69 z m 833 694 l 486 694 l 486 556 l 833 556 z m 1181 694 l 1042 694 l 1042 69 l 1181 69 z m 347 556 l 347 208 l 486 208 l 486 556 z m 486 69 l 833 69 l 833 208 l 486 208 z m 347 69 l 208 69 l 208 -69 l 347 -69 z m 903 69 l 903 -69 l 1042 -69 l 1042 69 z m 903 -69 l 347 -69 l 347 -208 l 903 -208 z "},"®":{"ha":1250,"x_min":0,"x_max":0,"o":"m 347 833 l 903 833 l 903 972 l 347 972 z m 347 694 l 347 833 l 208 833 l 208 694 z m 903 694 l 1042 694 l 1042 833 l 903 833 z m 208 69 l 208 694 l 69 694 l 69 69 z m 1181 694 l 1042 694 l 1042 69 l 1181 69 z m 556 382 l 556 521 l 694 521 l 694 660 l 417 660 l 417 104 l 556 104 l 556 243 l 694 243 l 694 382 z m 694 521 l 694 382 l 833 382 l 833 521 z m 694 104 l 833 104 l 833 243 l 694 243 z m 347 69 l 208 69 l 208 -69 l 347 -69 z m 903 69 l 903 -69 l 1042 -69 l 1042 69 z m 903 -69 l 347 -69 l 347 -208 l 903 -208 z "},"™":{"ha":1285,"x_min":0,"x_max":0,"o":"m 451 1042 l 35 1042 l 35 903 l 174 903 l 174 347 l 313 347 l 313 903 l 451 903 z m 799 903 l 660 903 l 660 1042 l 521 1042 l 521 347 l 660 347 l 660 764 l 799 764 z m 1215 1042 l 1076 1042 l 1076 903 l 938 903 l 938 764 l 1076 764 l 1076 347 l 1215 347 z m 799 764 l 799 556 l 938 556 l 938 764 z "},"°":{"ha":590,"x_min":0,"x_max":0,"o":"m 174 903 l 382 903 l 382 1042 l 174 1042 z m 174 694 l 174 903 l 35 903 l 35 694 z m 521 903 l 382 903 l 382 694 l 521 694 z m 382 694 l 174 694 l 174 556 l 382 556 z "},"|":{"ha":278,"x_min":0,"x_max":0,"o":"m 208 1111 l 69 1111 l 69 -139 l 208 -139 z "},"¦":{"ha":278,"x_min":0,"x_max":0,"o":"m 208 1111 l 69 1111 l 69 625 l 208 625 z m 69 347 l 69 -139 l 208 -139 l 208 347 z "},"†":{"ha":625,"x_min":0,"x_max":0,"o":"m 590 833 l 382 833 l 382 1042 l 243 1042 l 243 833 l 35 833 l 35 694 l 243 694 l 243 208 l 382 208 l 382 694 l 590 694 z "},"‡":{"ha":625,"x_min":0,"x_max":0,"o":"m 590 833 l 382 833 l 382 1042 l 243 1042 l 243 833 l 35 833 l 35 694 l 243 694 l 243 556 l 35 556 l 35 417 l 243 417 l 243 208 l 382 208 l 382 417 l 590 417 l 590 556 l 382 556 l 382 694 l 590 694 z "},"^":{"ha":764,"x_min":0,"x_max":0,"o":"m 451 1042 l 313 1042 l 313 903 l 451 903 z m 174 903 l 174 694 l 313 694 l 313 903 z m 590 694 l 590 903 l 451 903 l 451 694 z m 35 694 l 35 556 l 174 556 l 174 694 z m 729 694 l 590 694 l 590 556 l 729 556 z "},"̈":{"ha":0,"x_min":0,"x_max":0,"o":"m -417 903 l -417 764 l -278 764 l -278 903 z m 0 903 l -139 903 l -139 764 l 0 764 z "},"̇":{"ha":0,"x_min":0,"x_max":0,"o":"m 0 903 l -139 903 l -139 764 l 0 764 z "},"̀":{"ha":0,"x_min":0,"x_max":0,"o":"m -139 1042 l -278 1042 l -278 903 l -139 903 z m 0 903 l -139 903 l -139 764 l 0 764 z "},"́":{"ha":0,"x_min":0,"x_max":0,"o":"m 0 1042 l -139 1042 l -139 903 l 0 903 z m -278 903 l -278 764 l -139 764 l -139 903 z "},"̋":{"ha":0,"x_min":0,"x_max":0,"o":"m -417 1042 l -417 764 l -278 764 l -278 1042 z m 0 1042 l -139 1042 l -139 764 l 0 764 z "},"̂":{"ha":0,"x_min":0,"x_max":0,"o":"m -139 1042 l -278 1042 l -278 903 l -139 903 z m -417 903 l -417 764 l -278 764 l -278 903 z m 0 903 l -139 903 l -139 764 l 0 764 z "},"̌":{"ha":0,"x_min":0,"x_max":0,"o":"m -278 1042 l -417 1042 l -417 903 l -278 903 z m 0 1042 l -139 1042 l -139 903 l 0 903 z m -278 903 l -278 764 l -139 764 l -139 903 z "},"̆":{"ha":0,"x_min":0,"x_max":0,"o":"m -417 1042 l -556 1042 l -556 903 l -417 903 z m 0 1042 l -139 1042 l -139 903 l 0 903 z m -139 903 l -417 903 l -417 764 l -139 764 z "},"̊":{"ha":0,"x_min":0,"x_max":0,"o":"m -139 1042 l -139 1181 l -278 1181 l -278 1042 z m -278 1042 l -417 1042 l -417 903 l -278 903 z m 0 1042 l -139 1042 l -139 903 l 0 903 z m -278 903 l -278 764 l -139 764 l -139 903 z "},"̃":{"ha":0,"x_min":0,"x_max":0,"o":"m -278 1042 l -417 1042 l -417 903 l -278 903 z m 0 1042 l -139 1042 l -139 903 l 0 903 z m -556 903 l -556 764 l -417 764 l -417 903 z m -278 903 l -278 764 l -139 764 l -139 903 z "},"̄":{"ha":0,"x_min":0,"x_max":0,"o":"m 0 903 l -417 903 l -417 764 l 0 764 z "},"̉":{"ha":0,"x_min":0,"x_max":0,"o":"m 0 1042 l -278 1042 l -278 903 l -139 903 l -139 764 l 0 764 z "},"̒":{"ha":0,"x_min":0,"x_max":0,"o":"m 0 1181 l -139 1181 l -139 1042 l 0 1042 z m -278 1042 l -278 833 l -139 833 l -139 1042 z "},"̛":{"ha":0,"x_min":0,"x_max":0,"o":"m 0 1111 l -139 1111 l -139 903 l 0 903 z m -278 903 l -278 764 l -139 764 l -139 903 z "},"̣":{"ha":0,"x_min":0,"x_max":0,"o":"m 0 -69 l -139 -69 l -139 -208 l 0 -208 z "},"̦":{"ha":0,"x_min":0,"x_max":0,"o":"m 0 -69 l -139 -69 l -139 -278 l 0 -278 z m -278 -278 l -278 -417 l -139 -417 l -139 -278 z "},"̧":{"ha":0,"x_min":0,"x_max":0,"o":"m -139 0 l -278 0 l -278 -139 l -139 -139 z m 0 -139 l -139 -139 l -139 -278 l 0 -278 z m -278 -278 l -278 -417 l -139 -417 l -139 -278 z "},"̨":{"ha":0,"x_min":0,"x_max":0,"o":"m 0 0 l -139 0 l -139 -139 l 0 -139 z m -278 -139 l -278 -278 l -139 -278 l -139 -139 z m -139 -417 l 0 -417 l 0 -278 l -139 -278 z "},"̱":{"ha":0,"x_min":0,"x_max":0,"o":"m 0 -69 l -417 -69 l -417 -208 l 0 -208 z "},"̵":{"ha":0,"x_min":0,"x_max":0,"o":"m -69 625 l -625 625 l -625 486 l -69 486 z "},"̶":{"ha":0,"x_min":0,"x_max":0,"o":"m -69 625 l -764 625 l -764 486 l -69 486 z "},"̷":{"ha":0,"x_min":0,"x_max":0,"o":"m -69 694 l -208 694 l -208 486 l -69 486 z m -347 486 l -347 208 l -208 208 l -208 486 z m -486 208 l -486 0 l -347 0 l -347 208 z "},"̸":{"ha":0,"x_min":0,"x_max":0,"o":"m -69 1042 l -208 1042 l -208 833 l -69 833 z m -347 833 l -347 625 l -208 625 l -208 833 z m -486 625 l -486 417 l -347 417 l -347 625 z m -625 417 l -625 208 l -486 208 l -486 417 z m -764 208 l -764 0 l -625 0 l -625 208 z "},"ʼ":{"ha":139,"x_min":0,"x_max":0,"o":"m 139 1042 l 0 1042 l 0 764 l 139 764 z "},"´":{"ha":278,"x_min":0,"x_max":0,"o":"m 278 1042 l 139 1042 l 139 903 l 278 903 z m 0 903 l 0 764 l 139 764 l 139 903 z "},"˘":{"ha":556,"x_min":0,"x_max":0,"o":"m 139 1042 l 0 1042 l 0 903 l 139 903 z m 556 1042 l 417 1042 l 417 903 l 556 903 z m 417 903 l 139 903 l 139 764 l 417 764 z "},"ˇ":{"ha":417,"x_min":0,"x_max":0,"o":"m 139 1042 l 0 1042 l 0 903 l 139 903 z m 417 1042 l 278 1042 l 278 903 l 417 903 z m 139 903 l 139 764 l 278 764 l 278 903 z "},"¸":{"ha":278,"x_min":0,"x_max":0,"o":"m 139 0 l 0 0 l 0 -139 l 139 -139 z m 278 -139 l 139 -139 l 139 -278 l 278 -278 z m 0 -278 l 0 -417 l 139 -417 l 139 -278 z "},"ˆ":{"ha":417,"x_min":0,"x_max":0,"o":"m 278 1042 l 139 1042 l 139 903 l 278 903 z m 0 903 l 0 764 l 139 764 l 139 903 z m 417 903 l 278 903 l 278 764 l 417 764 z "},"¨":{"ha":417,"x_min":0,"x_max":0,"o":"m 0 903 l 0 764 l 139 764 l 139 903 z m 417 903 l 278 903 l 278 764 l 417 764 z "},"˙":{"ha":139,"x_min":0,"x_max":0,"o":"m 139 903 l 0 903 l 0 764 l 139 764 z "},"`":{"ha":278,"x_min":0,"x_max":0,"o":"m 139 1042 l 0 1042 l 0 903 l 139 903 z m 278 903 l 139 903 l 139 764 l 278 764 z "},"˝":{"ha":417,"x_min":0,"x_max":0,"o":"m 0 1042 l 0 764 l 139 764 l 139 1042 z m 417 1042 l 278 1042 l 278 764 l 417 764 z "},"¯":{"ha":417,"x_min":0,"x_max":0,"o":"m 417 903 l 0 903 l 0 764 l 417 764 z "},"˛":{"ha":278,"x_min":0,"x_max":0,"o":"m 278 0 l 139 0 l 139 -139 l 278 -139 z m 0 -139 l 0 -278 l 139 -278 l 139 -139 z m 139 -417 l 278 -417 l 278 -278 l 139 -278 z "},"˚":{"ha":417,"x_min":0,"x_max":0,"o":"m 278 1042 l 278 1181 l 139 1181 l 139 1042 z m 139 1042 l 0 1042 l 0 903 l 139 903 z m 417 1042 l 278 1042 l 278 903 l 417 903 z m 139 903 l 139 764 l 278 764 l 278 903 z "},"˜":{"ha":556,"x_min":0,"x_max":0,"o":"m 278 1042 l 139 1042 l 139 903 l 278 903 z m 556 1042 l 417 1042 l 417 903 l 556 903 z m 0 903 l 0 764 l 139 764 l 139 903 z m 278 903 l 278 764 l 417 764 l 417 903 z "},"΄":{"ha":278,"x_min":0,"x_max":0,"o":"m 278 1042 l 139 1042 l 139 903 l 278 903 z m 0 903 l 0 764 l 139 764 l 139 903 z "},"΅":{"ha":417,"x_min":0,"x_max":0,"o":"m 417 1250 l 278 1250 l 278 1111 l 417 1111 z m 139 1111 l 139 972 l 278 972 l 278 1111 z m 0 903 l 0 764 l 139 764 l 139 903 z m 278 903 l 278 764 l 417 764 l 417 903 z "}}}
